<?xml version="1.0" encoding="utf-8" standalone="no"?>
<!DOCTYPE svg PUBLIC "-//W3C//DTD SVG 1.1//EN"
  "http://www.w3.org/Graphics/SVG/1.1/DTD/svg11.dtd">
<!-- Created with matplotlib (https://matplotlib.org/) -->
<svg height="186.310125pt" version="1.1" viewBox="0 0 764.336563 186.310125" width="764.336563pt" xmlns="http://www.w3.org/2000/svg" xmlns:xlink="http://www.w3.org/1999/xlink">
 <defs>
  <style type="text/css">
*{stroke-linecap:butt;stroke-linejoin:round;}
  </style>
 </defs>
 <g id="figure_1">
  <g id="patch_1">
   <path d="M 0 186.310125 
L 764.336563 186.310125 
L 764.336563 0 
L 0 0 
z
" style="fill:#ffffff;"/>
  </g>
  <g id="axes_1">
   <g id="line2d_1">
    <path clip-path="url(#p35cccbe21a)" d="M 31.736563 146.9088 
L 757.136563 146.9088 
" style="fill:none;stroke:#000000;stroke-linecap:square;stroke-width:1.5;"/>
   </g>
   <g id="line2d_2">
    <path clip-path="url(#p35cccbe21a)" d="M 187.841229 115.8624 
L 187.841229 146.9088 
" style="fill:none;stroke:#000000;stroke-linecap:square;stroke-width:0.5;"/>
   </g>
   <g id="line2d_3">
    <path clip-path="url(#p35cccbe21a)" d="M 690.538689 115.8624 
L 690.538689 146.9088 
" style="fill:none;stroke:#000000;stroke-linecap:square;stroke-width:0.5;"/>
   </g>
   <g id="line2d_4">
    <path clip-path="url(#p35cccbe21a)" d="M 259.138711 115.8624 
L 259.138711 146.9088 
" style="fill:none;stroke:#000000;stroke-linecap:square;stroke-width:0.5;"/>
   </g>
   <g id="line2d_5">
    <path clip-path="url(#p35cccbe21a)" d="M 60.777734 84.816 
L 60.777734 115.8624 
" style="fill:none;stroke:#000000;stroke-linecap:square;stroke-width:0.5;"/>
   </g>
   <g id="line2d_6">
    <path clip-path="url(#p35cccbe21a)" d="M 111.891 38.2464 
L 111.891 115.8624 
" style="fill:none;stroke:#000000;stroke-linecap:square;stroke-width:0.5;"/>
   </g>
   <g id="line2d_7">
    <path clip-path="url(#p35cccbe21a)" d="M 293.013384 84.816 
L 293.013384 146.9088 
" style="fill:none;stroke:#000000;stroke-linecap:square;stroke-width:0.5;"/>
   </g>
   <g id="line2d_8">
    <path clip-path="url(#p35cccbe21a)" d="M 514.805458 84.816 
L 514.805458 146.9088 
" style="fill:none;stroke:#000000;stroke-linecap:square;stroke-width:0.5;"/>
   </g>
   <g id="line2d_9">
    <path clip-path="url(#p35cccbe21a)" d="M 227.908405 53.7696 
L 227.908405 146.9088 
" style="fill:none;stroke:#000000;stroke-linecap:square;stroke-width:0.5;"/>
   </g>
   <g id="line2d_10">
    <path clip-path="url(#p35cccbe21a)" d="M 447.290424 84.816 
L 447.290424 146.9088 
" style="fill:none;stroke:#000000;stroke-linecap:square;stroke-width:0.5;"/>
   </g>
   <g id="line2d_11">
    <path clip-path="url(#p35cccbe21a)" d="M 217.397885 84.816 
L 217.397885 146.9088 
" style="fill:none;stroke:#000000;stroke-linecap:square;stroke-width:0.5;"/>
   </g>
   <g id="line2d_12">
    <path clip-path="url(#p35cccbe21a)" d="M 665.199631 84.816 
L 665.199631 146.9088 
" style="fill:none;stroke:#000000;stroke-linecap:square;stroke-width:0.5;"/>
   </g>
   <g id="line2d_13">
    <path clip-path="url(#p35cccbe21a)" d="M 437.75062 115.8624 
L 437.75062 146.9088 
" style="fill:none;stroke:#000000;stroke-linecap:square;stroke-width:0.5;"/>
   </g>
   <g id="line2d_14">
    <path clip-path="url(#p35cccbe21a)" d="M 525.048195 115.8624 
L 525.048195 146.9088 
" style="fill:none;stroke:#000000;stroke-linecap:square;stroke-width:0.5;"/>
   </g>
   <g id="patch_2">
    <path clip-path="url(#p35cccbe21a)" d="M 531.173753 139.9088 
Q 592.613609 139.9088 654.053464 139.9088 
L 654.053464 139.9088 
Q 658.254155 143.4088 662.454845 146.9088 
Q 658.254155 150.4088 654.053464 153.9088 
L 654.053464 153.9088 
Q 592.613609 153.9088 531.173753 153.9088 
L 531.173753 139.9088 
z
" style="fill:#d1e9f1;stroke:#000000;stroke-linecap:round;"/>
   </g>
   <g id="patch_3">
    <path clip-path="url(#p35cccbe21a)" d="M 301.816782 139.9088 
Q 360.713744 139.9088 419.610706 139.9088 
L 419.610706 139.9088 
Q 423.810342 143.4088 428.009978 146.9088 
Q 423.810342 150.4088 419.610706 153.9088 
L 419.610706 153.9088 
Q 360.713744 153.9088 301.816782 153.9088 
L 301.816782 139.9088 
z
" style="fill:#d1e9f1;stroke:#000000;stroke-linecap:round;"/>
   </g>
   <g id="patch_4">
    <path clip-path="url(#p35cccbe21a)" d="M 34.434486 139.9088 
Q 89.145347 139.9088 143.856208 139.9088 
L 143.856208 139.9088 
Q 148.057821 143.4088 152.259434 146.9088 
Q 148.057821 150.4088 143.856208 153.9088 
L 143.856208 153.9088 
Q 89.145347 153.9088 34.434486 153.9088 
L 34.434486 139.9088 
z
" style="fill:#00008b;stroke:#000000;stroke-linecap:round;"/>
   </g>
   <g id="patch_5">
    <path clip-path="url(#p35cccbe21a)" d="M 215.523397 153.9088 
Q 192.039849 153.9088 168.5563 153.9088 
L 168.5563 153.9088 
Q 164.357681 150.4088 160.159061 146.9088 
Q 164.357681 143.4088 168.5563 139.9088 
L 168.5563 139.9088 
Q 192.039849 139.9088 215.523397 139.9088 
L 215.523397 153.9088 
z
" style="fill:#d1e9f1;stroke:#000000;stroke-linecap:round;"/>
   </g>
   <g id="patch_6">
    <path clip-path="url(#p35cccbe21a)" d="M 504.060626 153.9088 
Q 484.15972 153.9088 464.258814 153.9088 
L 464.258814 153.9088 
Q 460.059163 150.4088 455.859511 146.9088 
Q 460.059163 143.4088 464.258814 139.9088 
L 464.258814 139.9088 
Q 484.15972 139.9088 504.060626 139.9088 
L 504.060626 153.9088 
z
" style="fill:#ffd383;stroke:#000000;stroke-linecap:round;"/>
   </g>
   <g id="patch_7">
    <path clip-path="url(#p35cccbe21a)" d="M 667.074119 139.9088 
Q 686.338153 139.9088 705.602187 139.9088 
L 705.602187 139.9088 
Q 709.802723 143.4088 714.003259 146.9088 
Q 709.802723 150.4088 705.602187 153.9088 
L 705.602187 153.9088 
Q 686.338153 153.9088 667.074119 153.9088 
L 667.074119 139.9088 
z
" style="fill:#d1e9f1;stroke:#000000;stroke-linecap:round;"/>
   </g>
   <g id="patch_8">
    <path clip-path="url(#p35cccbe21a)" d="M 281.933822 153.9088 
Q 263.339055 153.9088 244.744289 153.9088 
L 244.744289 153.9088 
Q 240.543945 150.4088 236.343601 146.9088 
Q 240.543945 143.4088 244.744289 139.9088 
L 244.744289 139.9088 
Q 263.339055 139.9088 281.933822 139.9088 
L 281.933822 153.9088 
z
" style="fill:#ffd383;stroke:#000000;stroke-linecap:round;"/>
   </g>
   <g id="patch_9">
    <path clip-path="url(#p35cccbe21a)" d="M 83.305061 122.8624 
Q 64.978234 122.8624 46.651407 122.8624 
L 46.651407 122.8624 
Q 42.450907 119.3624 38.250408 115.8624 
Q 42.450907 112.3624 46.651407 108.8624 
L 46.651407 108.8624 
Q 64.978234 108.8624 83.305061 108.8624 
L 83.305061 122.8624 
z
" style="fill:#ffff00;stroke:#000000;stroke-linecap:round;"/>
   </g>
   <g id="patch_10">
    <path clip-path="url(#p35cccbe21a)" d="M 133.983178 122.8624 
Q 116.091264 122.8624 98.199351 122.8624 
L 98.199351 122.8624 
Q 93.999087 119.3624 89.798822 115.8624 
Q 93.999087 112.3624 98.199351 108.8624 
L 98.199351 108.8624 
Q 116.091264 108.8624 133.983178 108.8624 
L 133.983178 122.8624 
z
" style="fill:#ffd383;stroke:#000000;stroke-linecap:round;"/>
   </g>
   <g id="patch_11">
    <path clip-path="url(#p35cccbe21a)" d="M 301.415106 153.9088 
Q 297.212193 153.9088 293.009281 153.9088 
L 293.009281 153.9088 
Q 288.810471 150.4088 284.611661 146.9088 
Q 288.810471 143.4088 293.009281 139.9088 
L 293.009281 139.9088 
Q 297.212193 139.9088 301.415106 139.9088 
L 301.415106 153.9088 
z
" style="fill:#ff0000;stroke:#000000;stroke-linecap:round;"/>
   </g>
   <g id="patch_12">
    <path clip-path="url(#p35cccbe21a)" d="M 523.20718 153.9088 
Q 519.004268 153.9088 514.801355 153.9088 
L 514.801355 153.9088 
Q 510.602546 150.4088 506.403736 146.9088 
Q 510.602546 143.4088 514.801355 139.9088 
L 514.801355 139.9088 
Q 519.004268 139.9088 523.20718 139.9088 
L 523.20718 153.9088 
z
" style="fill:#ff0000;stroke:#000000;stroke-linecap:round;"/>
   </g>
   <g id="patch_13">
    <path clip-path="url(#p35cccbe21a)" d="M 235.607195 153.9088 
Q 232.109283 153.9088 228.611371 153.9088 
L 228.611371 153.9088 
Q 224.410494 150.4088 220.209616 146.9088 
Q 224.410494 143.4088 228.611371 139.9088 
L 228.611371 139.9088 
Q 232.109283 139.9088 235.607195 139.9088 
L 235.607195 153.9088 
z
" style="fill:#ff0000;stroke:#000000;stroke-linecap:round;"/>
   </g>
   <g id="patch_14">
    <path clip-path="url(#p35cccbe21a)" d="M 454.989213 153.9088 
Q 451.491301 153.9088 447.99339 153.9088 
L 447.99339 153.9088 
Q 443.792512 150.4088 439.591635 146.9088 
Q 443.792512 143.4088 447.99339 139.9088 
L 447.99339 139.9088 
Q 451.491301 139.9088 454.989213 139.9088 
L 454.989213 153.9088 
z
" style="fill:#ff0000;stroke:#000000;stroke-linecap:round;"/>
   </g>
   <g id="patch_15">
    <path clip-path="url(#p35cccbe21a)" d="M 215.523397 139.9088 
Q 216.09636 139.9088 216.669324 139.9088 
L 216.669324 139.9088 
Q 217.970848 143.4088 219.272372 146.9088 
Q 217.970848 150.4088 216.669324 153.9088 
L 216.669324 153.9088 
Q 216.09636 153.9088 215.523397 153.9088 
L 215.523397 139.9088 
z
" style="fill:#fbf3f6;stroke:#000000;stroke-linecap:round;"/>
   </g>
   <g id="patch_16">
    <path clip-path="url(#p35cccbe21a)" d="M 667.074119 153.9088 
Q 666.501155 153.9088 665.928191 153.9088 
L 665.928191 153.9088 
Q 664.626667 150.4088 663.325143 146.9088 
Q 664.626667 143.4088 665.928191 139.9088 
L 665.928191 139.9088 
Q 666.501155 139.9088 667.074119 139.9088 
L 667.074119 153.9088 
z
" style="fill:#fbf3f6;stroke:#000000;stroke-linecap:round;"/>
   </g>
   <g id="patch_17">
    <path clip-path="url(#p35cccbe21a)" d="M 436.445173 139.9088 
Q 436.844201 139.9088 437.24323 139.9088 
L 437.24323 139.9088 
Q 438.149648 143.4088 439.056067 146.9088 
Q 438.149648 150.4088 437.24323 153.9088 
L 437.24323 153.9088 
Q 436.844201 153.9088 436.445173 153.9088 
L 436.445173 139.9088 
z
" style="fill:#fbf3f6;stroke:#000000;stroke-linecap:round;"/>
   </g>
   <g id="patch_18">
    <path clip-path="url(#p35cccbe21a)" d="M 526.353642 153.9088 
Q 525.954613 153.9088 525.555585 153.9088 
L 525.555585 153.9088 
Q 524.649167 150.4088 523.742748 146.9088 
Q 524.649167 143.4088 525.555585 139.9088 
L 525.555585 139.9088 
Q 525.954613 139.9088 526.353642 139.9088 
L 526.353642 153.9088 
z
" style="fill:#fbf3f6;stroke:#000000;stroke-linecap:round;"/>
   </g>
   <g id="matplotlib.axis_1">
    <g id="xtick_1">
     <g id="line2d_15">
      <defs>
       <path d="M 0 0 
L 0 3.5 
" id="m5d78710457" style="stroke:#808080;stroke-width:0.8;"/>
      </defs>
      <g>
       <use style="fill:#808080;stroke:#808080;stroke-width:0.8;" x="31.790119" xlink:href="#m5d78710457" y="162.432"/>
      </g>
     </g>
     <g id="text_1">
      <!-- 0 -->
      <defs>
       <path d="M 31.78125 66.40625 
Q 24.171875 66.40625 20.328125 58.90625 
Q 16.5 51.421875 16.5 36.375 
Q 16.5 21.390625 20.328125 13.890625 
Q 24.171875 6.390625 31.78125 6.390625 
Q 39.453125 6.390625 43.28125 13.890625 
Q 47.125 21.390625 47.125 36.375 
Q 47.125 51.421875 43.28125 58.90625 
Q 39.453125 66.40625 31.78125 66.40625 
z
M 31.78125 74.21875 
Q 44.046875 74.21875 50.515625 64.515625 
Q 56.984375 54.828125 56.984375 36.375 
Q 56.984375 17.96875 50.515625 8.265625 
Q 44.046875 -1.421875 31.78125 -1.421875 
Q 19.53125 -1.421875 13.0625 8.265625 
Q 6.59375 17.96875 6.59375 36.375 
Q 6.59375 54.828125 13.0625 64.515625 
Q 19.53125 74.21875 31.78125 74.21875 
z
" id="DejaVuSans-48"/>
      </defs>
      <g style="fill:#808080;" transform="translate(28.608869 177.030437)scale(0.1 -0.1)">
       <use xlink:href="#DejaVuSans-48"/>
      </g>
     </g>
    </g>
    <g id="xtick_2">
     <g id="line2d_16">
      <g>
       <use style="fill:#808080;stroke:#808080;stroke-width:0.8;" x="132.209109" xlink:href="#m5d78710457" y="162.432"/>
      </g>
     </g>
     <g id="text_2">
      <!-- 1,500 -->
      <defs>
       <path d="M 12.40625 8.296875 
L 28.515625 8.296875 
L 28.515625 63.921875 
L 10.984375 60.40625 
L 10.984375 69.390625 
L 28.421875 72.90625 
L 38.28125 72.90625 
L 38.28125 8.296875 
L 54.390625 8.296875 
L 54.390625 0 
L 12.40625 0 
z
" id="DejaVuSans-49"/>
       <path d="M 11.71875 12.40625 
L 22.015625 12.40625 
L 22.015625 4 
L 14.015625 -11.625 
L 7.71875 -11.625 
L 11.71875 4 
z
" id="DejaVuSans-44"/>
       <path d="M 10.796875 72.90625 
L 49.515625 72.90625 
L 49.515625 64.59375 
L 19.828125 64.59375 
L 19.828125 46.734375 
Q 21.96875 47.46875 24.109375 47.828125 
Q 26.265625 48.1875 28.421875 48.1875 
Q 40.625 48.1875 47.75 41.5 
Q 54.890625 34.8125 54.890625 23.390625 
Q 54.890625 11.625 47.5625 5.09375 
Q 40.234375 -1.421875 26.90625 -1.421875 
Q 22.3125 -1.421875 17.546875 -0.640625 
Q 12.796875 0.140625 7.71875 1.703125 
L 7.71875 11.625 
Q 12.109375 9.234375 16.796875 8.0625 
Q 21.484375 6.890625 26.703125 6.890625 
Q 35.15625 6.890625 40.078125 11.328125 
Q 45.015625 15.765625 45.015625 23.390625 
Q 45.015625 31 40.078125 35.4375 
Q 35.15625 39.890625 26.703125 39.890625 
Q 22.75 39.890625 18.8125 39.015625 
Q 14.890625 38.140625 10.796875 36.28125 
z
" id="DejaVuSans-53"/>
      </defs>
      <g style="fill:#808080;" transform="translate(117.895046 177.030437)scale(0.1 -0.1)">
       <use xlink:href="#DejaVuSans-49"/>
       <use x="63.623047" xlink:href="#DejaVuSans-44"/>
       <use x="95.410156" xlink:href="#DejaVuSans-53"/>
       <use x="159.033203" xlink:href="#DejaVuSans-48"/>
       <use x="222.65625" xlink:href="#DejaVuSans-48"/>
      </g>
     </g>
    </g>
    <g id="xtick_3">
     <g id="line2d_17">
      <g>
       <use style="fill:#808080;stroke:#808080;stroke-width:0.8;" x="232.628098" xlink:href="#m5d78710457" y="162.432"/>
      </g>
     </g>
     <g id="text_3">
      <!-- 3,000 -->
      <defs>
       <path d="M 40.578125 39.3125 
Q 47.65625 37.796875 51.625 33 
Q 55.609375 28.21875 55.609375 21.1875 
Q 55.609375 10.40625 48.1875 4.484375 
Q 40.765625 -1.421875 27.09375 -1.421875 
Q 22.515625 -1.421875 17.65625 -0.515625 
Q 12.796875 0.390625 7.625 2.203125 
L 7.625 11.71875 
Q 11.71875 9.328125 16.59375 8.109375 
Q 21.484375 6.890625 26.8125 6.890625 
Q 36.078125 6.890625 40.9375 10.546875 
Q 45.796875 14.203125 45.796875 21.1875 
Q 45.796875 27.640625 41.28125 31.265625 
Q 36.765625 34.90625 28.71875 34.90625 
L 20.21875 34.90625 
L 20.21875 43.015625 
L 29.109375 43.015625 
Q 36.375 43.015625 40.234375 45.921875 
Q 44.09375 48.828125 44.09375 54.296875 
Q 44.09375 59.90625 40.109375 62.90625 
Q 36.140625 65.921875 28.71875 65.921875 
Q 24.65625 65.921875 20.015625 65.03125 
Q 15.375 64.15625 9.8125 62.3125 
L 9.8125 71.09375 
Q 15.4375 72.65625 20.34375 73.4375 
Q 25.25 74.21875 29.59375 74.21875 
Q 40.828125 74.21875 47.359375 69.109375 
Q 53.90625 64.015625 53.90625 55.328125 
Q 53.90625 49.265625 50.4375 45.09375 
Q 46.96875 40.921875 40.578125 39.3125 
z
" id="DejaVuSans-51"/>
      </defs>
      <g style="fill:#808080;" transform="translate(218.314035 177.030437)scale(0.1 -0.1)">
       <use xlink:href="#DejaVuSans-51"/>
       <use x="63.623047" xlink:href="#DejaVuSans-44"/>
       <use x="95.410156" xlink:href="#DejaVuSans-48"/>
       <use x="159.033203" xlink:href="#DejaVuSans-48"/>
       <use x="222.65625" xlink:href="#DejaVuSans-48"/>
      </g>
     </g>
    </g>
    <g id="xtick_4">
     <g id="line2d_18">
      <g>
       <use style="fill:#808080;stroke:#808080;stroke-width:0.8;" x="333.047087" xlink:href="#m5d78710457" y="162.432"/>
      </g>
     </g>
     <g id="text_4">
      <!-- 4,500 -->
      <defs>
       <path d="M 37.796875 64.3125 
L 12.890625 25.390625 
L 37.796875 25.390625 
z
M 35.203125 72.90625 
L 47.609375 72.90625 
L 47.609375 25.390625 
L 58.015625 25.390625 
L 58.015625 17.1875 
L 47.609375 17.1875 
L 47.609375 0 
L 37.796875 0 
L 37.796875 17.1875 
L 4.890625 17.1875 
L 4.890625 26.703125 
z
" id="DejaVuSans-52"/>
      </defs>
      <g style="fill:#808080;" transform="translate(318.733025 177.030437)scale(0.1 -0.1)">
       <use xlink:href="#DejaVuSans-52"/>
       <use x="63.623047" xlink:href="#DejaVuSans-44"/>
       <use x="95.410156" xlink:href="#DejaVuSans-53"/>
       <use x="159.033203" xlink:href="#DejaVuSans-48"/>
       <use x="222.65625" xlink:href="#DejaVuSans-48"/>
      </g>
     </g>
    </g>
    <g id="xtick_5">
     <g id="line2d_19">
      <g>
       <use style="fill:#808080;stroke:#808080;stroke-width:0.8;" x="433.466077" xlink:href="#m5d78710457" y="162.432"/>
      </g>
     </g>
     <g id="text_5">
      <!-- 6,000 -->
      <defs>
       <path d="M 33.015625 40.375 
Q 26.375 40.375 22.484375 35.828125 
Q 18.609375 31.296875 18.609375 23.390625 
Q 18.609375 15.53125 22.484375 10.953125 
Q 26.375 6.390625 33.015625 6.390625 
Q 39.65625 6.390625 43.53125 10.953125 
Q 47.40625 15.53125 47.40625 23.390625 
Q 47.40625 31.296875 43.53125 35.828125 
Q 39.65625 40.375 33.015625 40.375 
z
M 52.59375 71.296875 
L 52.59375 62.3125 
Q 48.875 64.0625 45.09375 64.984375 
Q 41.3125 65.921875 37.59375 65.921875 
Q 27.828125 65.921875 22.671875 59.328125 
Q 17.53125 52.734375 16.796875 39.40625 
Q 19.671875 43.65625 24.015625 45.921875 
Q 28.375 48.1875 33.59375 48.1875 
Q 44.578125 48.1875 50.953125 41.515625 
Q 57.328125 34.859375 57.328125 23.390625 
Q 57.328125 12.15625 50.6875 5.359375 
Q 44.046875 -1.421875 33.015625 -1.421875 
Q 20.359375 -1.421875 13.671875 8.265625 
Q 6.984375 17.96875 6.984375 36.375 
Q 6.984375 53.65625 15.1875 63.9375 
Q 23.390625 74.21875 37.203125 74.21875 
Q 40.921875 74.21875 44.703125 73.484375 
Q 48.484375 72.75 52.59375 71.296875 
z
" id="DejaVuSans-54"/>
      </defs>
      <g style="fill:#808080;" transform="translate(419.152014 177.030437)scale(0.1 -0.1)">
       <use xlink:href="#DejaVuSans-54"/>
       <use x="63.623047" xlink:href="#DejaVuSans-44"/>
       <use x="95.410156" xlink:href="#DejaVuSans-48"/>
       <use x="159.033203" xlink:href="#DejaVuSans-48"/>
       <use x="222.65625" xlink:href="#DejaVuSans-48"/>
      </g>
     </g>
    </g>
    <g id="xtick_6">
     <g id="line2d_20">
      <g>
       <use style="fill:#808080;stroke:#808080;stroke-width:0.8;" x="533.885066" xlink:href="#m5d78710457" y="162.432"/>
      </g>
     </g>
     <g id="text_6">
      <!-- 7,500 -->
      <defs>
       <path d="M 8.203125 72.90625 
L 55.078125 72.90625 
L 55.078125 68.703125 
L 28.609375 0 
L 18.3125 0 
L 43.21875 64.59375 
L 8.203125 64.59375 
z
" id="DejaVuSans-55"/>
      </defs>
      <g style="fill:#808080;" transform="translate(519.571003 177.030437)scale(0.1 -0.1)">
       <use xlink:href="#DejaVuSans-55"/>
       <use x="63.623047" xlink:href="#DejaVuSans-44"/>
       <use x="95.410156" xlink:href="#DejaVuSans-53"/>
       <use x="159.033203" xlink:href="#DejaVuSans-48"/>
       <use x="222.65625" xlink:href="#DejaVuSans-48"/>
      </g>
     </g>
    </g>
    <g id="xtick_7">
     <g id="line2d_21">
      <g>
       <use style="fill:#808080;stroke:#808080;stroke-width:0.8;" x="634.304055" xlink:href="#m5d78710457" y="162.432"/>
      </g>
     </g>
     <g id="text_7">
      <!-- 9,000 -->
      <defs>
       <path d="M 10.984375 1.515625 
L 10.984375 10.5 
Q 14.703125 8.734375 18.5 7.8125 
Q 22.3125 6.890625 25.984375 6.890625 
Q 35.75 6.890625 40.890625 13.453125 
Q 46.046875 20.015625 46.78125 33.40625 
Q 43.953125 29.203125 39.59375 26.953125 
Q 35.25 24.703125 29.984375 24.703125 
Q 19.046875 24.703125 12.671875 31.3125 
Q 6.296875 37.9375 6.296875 49.421875 
Q 6.296875 60.640625 12.9375 67.421875 
Q 19.578125 74.21875 30.609375 74.21875 
Q 43.265625 74.21875 49.921875 64.515625 
Q 56.59375 54.828125 56.59375 36.375 
Q 56.59375 19.140625 48.40625 8.859375 
Q 40.234375 -1.421875 26.421875 -1.421875 
Q 22.703125 -1.421875 18.890625 -0.6875 
Q 15.09375 0.046875 10.984375 1.515625 
z
M 30.609375 32.421875 
Q 37.25 32.421875 41.125 36.953125 
Q 45.015625 41.5 45.015625 49.421875 
Q 45.015625 57.28125 41.125 61.84375 
Q 37.25 66.40625 30.609375 66.40625 
Q 23.96875 66.40625 20.09375 61.84375 
Q 16.21875 57.28125 16.21875 49.421875 
Q 16.21875 41.5 20.09375 36.953125 
Q 23.96875 32.421875 30.609375 32.421875 
z
" id="DejaVuSans-57"/>
      </defs>
      <g style="fill:#808080;" transform="translate(619.989993 177.030437)scale(0.1 -0.1)">
       <use xlink:href="#DejaVuSans-57"/>
       <use x="63.623047" xlink:href="#DejaVuSans-44"/>
       <use x="95.410156" xlink:href="#DejaVuSans-48"/>
       <use x="159.033203" xlink:href="#DejaVuSans-48"/>
       <use x="222.65625" xlink:href="#DejaVuSans-48"/>
      </g>
     </g>
    </g>
    <g id="xtick_8">
     <g id="line2d_22">
      <g>
       <use style="fill:#808080;stroke:#808080;stroke-width:0.8;" x="734.723044" xlink:href="#m5d78710457" y="162.432"/>
      </g>
     </g>
     <g id="text_8">
      <!-- 10,500 -->
      <g style="fill:#808080;" transform="translate(717.227732 177.030437)scale(0.1 -0.1)">
       <use xlink:href="#DejaVuSans-49"/>
       <use x="63.623047" xlink:href="#DejaVuSans-48"/>
       <use x="127.246094" xlink:href="#DejaVuSans-44"/>
       <use x="159.033203" xlink:href="#DejaVuSans-53"/>
       <use x="222.65625" xlink:href="#DejaVuSans-48"/>
       <use x="286.279297" xlink:href="#DejaVuSans-48"/>
      </g>
     </g>
    </g>
   </g>
   <g id="text_9">
    <!-- dsx homology arm -->
    <defs>
     <path d="M 45.40625 46.390625 
L 45.40625 75.984375 
L 54.390625 75.984375 
L 54.390625 0 
L 45.40625 0 
L 45.40625 8.203125 
Q 42.578125 3.328125 38.25 0.953125 
Q 33.9375 -1.421875 27.875 -1.421875 
Q 17.96875 -1.421875 11.734375 6.484375 
Q 5.515625 14.40625 5.515625 27.296875 
Q 5.515625 40.1875 11.734375 48.09375 
Q 17.96875 56 27.875 56 
Q 33.9375 56 38.25 53.625 
Q 42.578125 51.265625 45.40625 46.390625 
z
M 14.796875 27.296875 
Q 14.796875 17.390625 18.875 11.75 
Q 22.953125 6.109375 30.078125 6.109375 
Q 37.203125 6.109375 41.296875 11.75 
Q 45.40625 17.390625 45.40625 27.296875 
Q 45.40625 37.203125 41.296875 42.84375 
Q 37.203125 48.484375 30.078125 48.484375 
Q 22.953125 48.484375 18.875 42.84375 
Q 14.796875 37.203125 14.796875 27.296875 
z
" id="DejaVuSans-100"/>
     <path d="M 44.28125 53.078125 
L 44.28125 44.578125 
Q 40.484375 46.53125 36.375 47.5 
Q 32.28125 48.484375 27.875 48.484375 
Q 21.1875 48.484375 17.84375 46.4375 
Q 14.5 44.390625 14.5 40.28125 
Q 14.5 37.15625 16.890625 35.375 
Q 19.28125 33.59375 26.515625 31.984375 
L 29.59375 31.296875 
Q 39.15625 29.25 43.1875 25.515625 
Q 47.21875 21.78125 47.21875 15.09375 
Q 47.21875 7.46875 41.1875 3.015625 
Q 35.15625 -1.421875 24.609375 -1.421875 
Q 20.21875 -1.421875 15.453125 -0.5625 
Q 10.6875 0.296875 5.421875 2 
L 5.421875 11.28125 
Q 10.40625 8.6875 15.234375 7.390625 
Q 20.0625 6.109375 24.8125 6.109375 
Q 31.15625 6.109375 34.5625 8.28125 
Q 37.984375 10.453125 37.984375 14.40625 
Q 37.984375 18.0625 35.515625 20.015625 
Q 33.0625 21.96875 24.703125 23.78125 
L 21.578125 24.515625 
Q 13.234375 26.265625 9.515625 29.90625 
Q 5.8125 33.546875 5.8125 39.890625 
Q 5.8125 47.609375 11.28125 51.796875 
Q 16.75 56 26.8125 56 
Q 31.78125 56 36.171875 55.265625 
Q 40.578125 54.546875 44.28125 53.078125 
z
" id="DejaVuSans-115"/>
     <path d="M 54.890625 54.6875 
L 35.109375 28.078125 
L 55.90625 0 
L 45.3125 0 
L 29.390625 21.484375 
L 13.484375 0 
L 2.875 0 
L 24.125 28.609375 
L 4.6875 54.6875 
L 15.28125 54.6875 
L 29.78125 35.203125 
L 44.28125 54.6875 
z
" id="DejaVuSans-120"/>
     <path id="DejaVuSans-32"/>
     <path d="M 54.890625 33.015625 
L 54.890625 0 
L 45.90625 0 
L 45.90625 32.71875 
Q 45.90625 40.484375 42.875 44.328125 
Q 39.84375 48.1875 33.796875 48.1875 
Q 26.515625 48.1875 22.3125 43.546875 
Q 18.109375 38.921875 18.109375 30.90625 
L 18.109375 0 
L 9.078125 0 
L 9.078125 75.984375 
L 18.109375 75.984375 
L 18.109375 46.1875 
Q 21.34375 51.125 25.703125 53.5625 
Q 30.078125 56 35.796875 56 
Q 45.21875 56 50.046875 50.171875 
Q 54.890625 44.34375 54.890625 33.015625 
z
" id="DejaVuSans-104"/>
     <path d="M 30.609375 48.390625 
Q 23.390625 48.390625 19.1875 42.75 
Q 14.984375 37.109375 14.984375 27.296875 
Q 14.984375 17.484375 19.15625 11.84375 
Q 23.34375 6.203125 30.609375 6.203125 
Q 37.796875 6.203125 41.984375 11.859375 
Q 46.1875 17.53125 46.1875 27.296875 
Q 46.1875 37.015625 41.984375 42.703125 
Q 37.796875 48.390625 30.609375 48.390625 
z
M 30.609375 56 
Q 42.328125 56 49.015625 48.375 
Q 55.71875 40.765625 55.71875 27.296875 
Q 55.71875 13.875 49.015625 6.21875 
Q 42.328125 -1.421875 30.609375 -1.421875 
Q 18.84375 -1.421875 12.171875 6.21875 
Q 5.515625 13.875 5.515625 27.296875 
Q 5.515625 40.765625 12.171875 48.375 
Q 18.84375 56 30.609375 56 
z
" id="DejaVuSans-111"/>
     <path d="M 52 44.1875 
Q 55.375 50.25 60.0625 53.125 
Q 64.75 56 71.09375 56 
Q 79.640625 56 84.28125 50.015625 
Q 88.921875 44.046875 88.921875 33.015625 
L 88.921875 0 
L 79.890625 0 
L 79.890625 32.71875 
Q 79.890625 40.578125 77.09375 44.375 
Q 74.3125 48.1875 68.609375 48.1875 
Q 61.625 48.1875 57.5625 43.546875 
Q 53.515625 38.921875 53.515625 30.90625 
L 53.515625 0 
L 44.484375 0 
L 44.484375 32.71875 
Q 44.484375 40.625 41.703125 44.40625 
Q 38.921875 48.1875 33.109375 48.1875 
Q 26.21875 48.1875 22.15625 43.53125 
Q 18.109375 38.875 18.109375 30.90625 
L 18.109375 0 
L 9.078125 0 
L 9.078125 54.6875 
L 18.109375 54.6875 
L 18.109375 46.1875 
Q 21.1875 51.21875 25.484375 53.609375 
Q 29.78125 56 35.6875 56 
Q 41.65625 56 45.828125 52.96875 
Q 50 49.953125 52 44.1875 
z
" id="DejaVuSans-109"/>
     <path d="M 9.421875 75.984375 
L 18.40625 75.984375 
L 18.40625 0 
L 9.421875 0 
z
" id="DejaVuSans-108"/>
     <path d="M 45.40625 27.984375 
Q 45.40625 37.75 41.375 43.109375 
Q 37.359375 48.484375 30.078125 48.484375 
Q 22.859375 48.484375 18.828125 43.109375 
Q 14.796875 37.75 14.796875 27.984375 
Q 14.796875 18.265625 18.828125 12.890625 
Q 22.859375 7.515625 30.078125 7.515625 
Q 37.359375 7.515625 41.375 12.890625 
Q 45.40625 18.265625 45.40625 27.984375 
z
M 54.390625 6.78125 
Q 54.390625 -7.171875 48.1875 -13.984375 
Q 42 -20.796875 29.203125 -20.796875 
Q 24.46875 -20.796875 20.265625 -20.09375 
Q 16.0625 -19.390625 12.109375 -17.921875 
L 12.109375 -9.1875 
Q 16.0625 -11.328125 19.921875 -12.34375 
Q 23.78125 -13.375 27.78125 -13.375 
Q 36.625 -13.375 41.015625 -8.765625 
Q 45.40625 -4.15625 45.40625 5.171875 
L 45.40625 9.625 
Q 42.625 4.78125 38.28125 2.390625 
Q 33.9375 0 27.875 0 
Q 17.828125 0 11.671875 7.65625 
Q 5.515625 15.328125 5.515625 27.984375 
Q 5.515625 40.671875 11.671875 48.328125 
Q 17.828125 56 27.875 56 
Q 33.9375 56 38.28125 53.609375 
Q 42.625 51.21875 45.40625 46.390625 
L 45.40625 54.6875 
L 54.390625 54.6875 
z
" id="DejaVuSans-103"/>
     <path d="M 32.171875 -5.078125 
Q 28.375 -14.84375 24.75 -17.8125 
Q 21.140625 -20.796875 15.09375 -20.796875 
L 7.90625 -20.796875 
L 7.90625 -13.28125 
L 13.1875 -13.28125 
Q 16.890625 -13.28125 18.9375 -11.515625 
Q 21 -9.765625 23.484375 -3.21875 
L 25.09375 0.875 
L 2.984375 54.6875 
L 12.5 54.6875 
L 29.59375 11.921875 
L 46.6875 54.6875 
L 56.203125 54.6875 
z
" id="DejaVuSans-121"/>
     <path d="M 34.28125 27.484375 
Q 23.390625 27.484375 19.1875 25 
Q 14.984375 22.515625 14.984375 16.5 
Q 14.984375 11.71875 18.140625 8.90625 
Q 21.296875 6.109375 26.703125 6.109375 
Q 34.1875 6.109375 38.703125 11.40625 
Q 43.21875 16.703125 43.21875 25.484375 
L 43.21875 27.484375 
z
M 52.203125 31.203125 
L 52.203125 0 
L 43.21875 0 
L 43.21875 8.296875 
Q 40.140625 3.328125 35.546875 0.953125 
Q 30.953125 -1.421875 24.3125 -1.421875 
Q 15.921875 -1.421875 10.953125 3.296875 
Q 6 8.015625 6 15.921875 
Q 6 25.140625 12.171875 29.828125 
Q 18.359375 34.515625 30.609375 34.515625 
L 43.21875 34.515625 
L 43.21875 35.40625 
Q 43.21875 41.609375 39.140625 45 
Q 35.0625 48.390625 27.6875 48.390625 
Q 23 48.390625 18.546875 47.265625 
Q 14.109375 46.140625 10.015625 43.890625 
L 10.015625 52.203125 
Q 14.9375 54.109375 19.578125 55.046875 
Q 24.21875 56 28.609375 56 
Q 40.484375 56 46.34375 49.84375 
Q 52.203125 43.703125 52.203125 31.203125 
z
" id="DejaVuSans-97"/>
     <path d="M 41.109375 46.296875 
Q 39.59375 47.171875 37.8125 47.578125 
Q 36.03125 48 33.890625 48 
Q 26.265625 48 22.1875 43.046875 
Q 18.109375 38.09375 18.109375 28.8125 
L 18.109375 0 
L 9.078125 0 
L 9.078125 54.6875 
L 18.109375 54.6875 
L 18.109375 46.1875 
Q 20.953125 51.171875 25.484375 53.578125 
Q 30.03125 56 36.53125 56 
Q 37.453125 56 38.578125 55.875 
Q 39.703125 55.765625 41.0625 55.515625 
z
" id="DejaVuSans-114"/>
    </defs>
    <g transform="translate(545.504455 149.944112)scale(0.11 -0.11)">
     <use xlink:href="#DejaVuSans-100"/>
     <use x="63.476562" xlink:href="#DejaVuSans-115"/>
     <use x="115.576172" xlink:href="#DejaVuSans-120"/>
     <use x="174.755859" xlink:href="#DejaVuSans-32"/>
     <use x="206.542969" xlink:href="#DejaVuSans-104"/>
     <use x="269.921875" xlink:href="#DejaVuSans-111"/>
     <use x="331.103516" xlink:href="#DejaVuSans-109"/>
     <use x="428.515625" xlink:href="#DejaVuSans-111"/>
     <use x="489.697266" xlink:href="#DejaVuSans-108"/>
     <use x="517.480469" xlink:href="#DejaVuSans-111"/>
     <use x="578.662109" xlink:href="#DejaVuSans-103"/>
     <use x="642.138672" xlink:href="#DejaVuSans-121"/>
     <use x="701.318359" xlink:href="#DejaVuSans-32"/>
     <use x="733.105469" xlink:href="#DejaVuSans-97"/>
     <use x="794.384766" xlink:href="#DejaVuSans-114"/>
     <use x="835.482422" xlink:href="#DejaVuSans-109"/>
    </g>
   </g>
   <g id="text_10">
    <!-- dsx homology arm -->
    <g transform="translate(313.603536 149.944112)scale(0.11 -0.11)">
     <use xlink:href="#DejaVuSans-100"/>
     <use x="63.476562" xlink:href="#DejaVuSans-115"/>
     <use x="115.576172" xlink:href="#DejaVuSans-120"/>
     <use x="174.755859" xlink:href="#DejaVuSans-32"/>
     <use x="206.542969" xlink:href="#DejaVuSans-104"/>
     <use x="269.921875" xlink:href="#DejaVuSans-111"/>
     <use x="331.103516" xlink:href="#DejaVuSans-109"/>
     <use x="428.515625" xlink:href="#DejaVuSans-111"/>
     <use x="489.697266" xlink:href="#DejaVuSans-108"/>
     <use x="517.480469" xlink:href="#DejaVuSans-111"/>
     <use x="578.662109" xlink:href="#DejaVuSans-103"/>
     <use x="642.138672" xlink:href="#DejaVuSans-121"/>
     <use x="701.318359" xlink:href="#DejaVuSans-32"/>
     <use x="733.105469" xlink:href="#DejaVuSans-97"/>
     <use x="794.384766" xlink:href="#DejaVuSans-114"/>
     <use x="835.482422" xlink:href="#DejaVuSans-109"/>
    </g>
   </g>
   <g id="text_11">
    <!-- backbone -->
    <defs>
     <path d="M 48.6875 27.296875 
Q 48.6875 37.203125 44.609375 42.84375 
Q 40.53125 48.484375 33.40625 48.484375 
Q 26.265625 48.484375 22.1875 42.84375 
Q 18.109375 37.203125 18.109375 27.296875 
Q 18.109375 17.390625 22.1875 11.75 
Q 26.265625 6.109375 33.40625 6.109375 
Q 40.53125 6.109375 44.609375 11.75 
Q 48.6875 17.390625 48.6875 27.296875 
z
M 18.109375 46.390625 
Q 20.953125 51.265625 25.265625 53.625 
Q 29.59375 56 35.59375 56 
Q 45.5625 56 51.78125 48.09375 
Q 58.015625 40.1875 58.015625 27.296875 
Q 58.015625 14.40625 51.78125 6.484375 
Q 45.5625 -1.421875 35.59375 -1.421875 
Q 29.59375 -1.421875 25.265625 0.953125 
Q 20.953125 3.328125 18.109375 8.203125 
L 18.109375 0 
L 9.078125 0 
L 9.078125 75.984375 
L 18.109375 75.984375 
z
" id="DejaVuSans-98"/>
     <path d="M 48.78125 52.59375 
L 48.78125 44.1875 
Q 44.96875 46.296875 41.140625 47.34375 
Q 37.3125 48.390625 33.40625 48.390625 
Q 24.65625 48.390625 19.8125 42.84375 
Q 14.984375 37.3125 14.984375 27.296875 
Q 14.984375 17.28125 19.8125 11.734375 
Q 24.65625 6.203125 33.40625 6.203125 
Q 37.3125 6.203125 41.140625 7.25 
Q 44.96875 8.296875 48.78125 10.40625 
L 48.78125 2.09375 
Q 45.015625 0.34375 40.984375 -0.53125 
Q 36.96875 -1.421875 32.421875 -1.421875 
Q 20.0625 -1.421875 12.78125 6.34375 
Q 5.515625 14.109375 5.515625 27.296875 
Q 5.515625 40.671875 12.859375 48.328125 
Q 20.21875 56 33.015625 56 
Q 37.15625 56 41.109375 55.140625 
Q 45.0625 54.296875 48.78125 52.59375 
z
" id="DejaVuSans-99"/>
     <path d="M 9.078125 75.984375 
L 18.109375 75.984375 
L 18.109375 31.109375 
L 44.921875 54.6875 
L 56.390625 54.6875 
L 27.390625 29.109375 
L 57.625 0 
L 45.90625 0 
L 18.109375 26.703125 
L 18.109375 0 
L 9.078125 0 
z
" id="DejaVuSans-107"/>
     <path d="M 54.890625 33.015625 
L 54.890625 0 
L 45.90625 0 
L 45.90625 32.71875 
Q 45.90625 40.484375 42.875 44.328125 
Q 39.84375 48.1875 33.796875 48.1875 
Q 26.515625 48.1875 22.3125 43.546875 
Q 18.109375 38.921875 18.109375 30.90625 
L 18.109375 0 
L 9.078125 0 
L 9.078125 54.6875 
L 18.109375 54.6875 
L 18.109375 46.1875 
Q 21.34375 51.125 25.703125 53.5625 
Q 30.078125 56 35.796875 56 
Q 45.21875 56 50.046875 50.171875 
Q 54.890625 44.34375 54.890625 33.015625 
z
" id="DejaVuSans-110"/>
     <path d="M 56.203125 29.59375 
L 56.203125 25.203125 
L 14.890625 25.203125 
Q 15.484375 15.921875 20.484375 11.0625 
Q 25.484375 6.203125 34.421875 6.203125 
Q 39.59375 6.203125 44.453125 7.46875 
Q 49.3125 8.734375 54.109375 11.28125 
L 54.109375 2.78125 
Q 49.265625 0.734375 44.1875 -0.34375 
Q 39.109375 -1.421875 33.890625 -1.421875 
Q 20.796875 -1.421875 13.15625 6.1875 
Q 5.515625 13.8125 5.515625 26.8125 
Q 5.515625 40.234375 12.765625 48.109375 
Q 20.015625 56 32.328125 56 
Q 43.359375 56 49.78125 48.890625 
Q 56.203125 41.796875 56.203125 29.59375 
z
M 47.21875 32.234375 
Q 47.125 39.59375 43.09375 43.984375 
Q 39.0625 48.390625 32.421875 48.390625 
Q 24.90625 48.390625 20.390625 44.140625 
Q 15.875 39.890625 15.1875 32.171875 
z
" id="DejaVuSans-101"/>
    </defs>
    <g style="fill:#ffffff;" transform="translate(66.549069 149.944112)scale(0.11 -0.11)">
     <use xlink:href="#DejaVuSans-98"/>
     <use x="63.476562" xlink:href="#DejaVuSans-97"/>
     <use x="124.755859" xlink:href="#DejaVuSans-99"/>
     <use x="179.736328" xlink:href="#DejaVuSans-107"/>
     <use x="237.646484" xlink:href="#DejaVuSans-98"/>
     <use x="301.123047" xlink:href="#DejaVuSans-111"/>
     <use x="362.304688" xlink:href="#DejaVuSans-110"/>
     <use x="425.683594" xlink:href="#DejaVuSans-101"/>
    </g>
   </g>
   <g id="text_12">
    <g id="patch_19">
     <path d="M 162.414901 124.485369 
L 213.267557 124.485369 
Q 216.567557 124.485369 216.567557 121.185369 
L 216.567557 110.539431 
Q 216.567557 107.239431 213.267557 107.239431 
L 162.414901 107.239431 
Q 159.114901 107.239431 159.114901 110.539431 
L 159.114901 121.185369 
Q 159.114901 124.485369 162.414901 124.485369 
z
" style="fill:#ffffff;"/>
    </g>
    <!-- piggyBac -->
    <defs>
     <path d="M 18.109375 8.203125 
L 18.109375 -20.796875 
L 9.078125 -20.796875 
L 9.078125 54.6875 
L 18.109375 54.6875 
L 18.109375 46.390625 
Q 20.953125 51.265625 25.265625 53.625 
Q 29.59375 56 35.59375 56 
Q 45.5625 56 51.78125 48.09375 
Q 58.015625 40.1875 58.015625 27.296875 
Q 58.015625 14.40625 51.78125 6.484375 
Q 45.5625 -1.421875 35.59375 -1.421875 
Q 29.59375 -1.421875 25.265625 0.953125 
Q 20.953125 3.328125 18.109375 8.203125 
z
M 48.6875 27.296875 
Q 48.6875 37.203125 44.609375 42.84375 
Q 40.53125 48.484375 33.40625 48.484375 
Q 26.265625 48.484375 22.1875 42.84375 
Q 18.109375 37.203125 18.109375 27.296875 
Q 18.109375 17.390625 22.1875 11.75 
Q 26.265625 6.109375 33.40625 6.109375 
Q 40.53125 6.109375 44.609375 11.75 
Q 48.6875 17.390625 48.6875 27.296875 
z
" id="DejaVuSans-112"/>
     <path d="M 9.421875 54.6875 
L 18.40625 54.6875 
L 18.40625 0 
L 9.421875 0 
z
M 9.421875 75.984375 
L 18.40625 75.984375 
L 18.40625 64.59375 
L 9.421875 64.59375 
z
" id="DejaVuSans-105"/>
     <path d="M 19.671875 34.8125 
L 19.671875 8.109375 
L 35.5 8.109375 
Q 43.453125 8.109375 47.28125 11.40625 
Q 51.125 14.703125 51.125 21.484375 
Q 51.125 28.328125 47.28125 31.5625 
Q 43.453125 34.8125 35.5 34.8125 
z
M 19.671875 64.796875 
L 19.671875 42.828125 
L 34.28125 42.828125 
Q 41.5 42.828125 45.03125 45.53125 
Q 48.578125 48.25 48.578125 53.8125 
Q 48.578125 59.328125 45.03125 62.0625 
Q 41.5 64.796875 34.28125 64.796875 
z
M 9.8125 72.90625 
L 35.015625 72.90625 
Q 46.296875 72.90625 52.390625 68.21875 
Q 58.5 63.53125 58.5 54.890625 
Q 58.5 48.1875 55.375 44.234375 
Q 52.25 40.28125 46.1875 39.3125 
Q 53.46875 37.75 57.5 32.78125 
Q 61.53125 27.828125 61.53125 20.40625 
Q 61.53125 10.640625 54.890625 5.3125 
Q 48.25 0 35.984375 0 
L 9.8125 0 
z
" id="DejaVuSans-66"/>
    </defs>
    <g transform="translate(162.414901 118.897712)scale(0.11 -0.11)">
     <use xlink:href="#DejaVuSans-112"/>
     <use x="63.476562" xlink:href="#DejaVuSans-105"/>
     <use x="91.259766" xlink:href="#DejaVuSans-103"/>
     <use x="154.736328" xlink:href="#DejaVuSans-103"/>
     <use x="218.212891" xlink:href="#DejaVuSans-121"/>
     <use x="277.392578" xlink:href="#DejaVuSans-66"/>
     <use x="345.996094" xlink:href="#DejaVuSans-97"/>
     <use x="407.275391" xlink:href="#DejaVuSans-99"/>
    </g>
   </g>
   <g id="text_13">
    <!-- GFP -->
    <defs>
     <path d="M 59.515625 10.40625 
L 59.515625 29.984375 
L 43.40625 29.984375 
L 43.40625 38.09375 
L 69.28125 38.09375 
L 69.28125 6.78125 
Q 63.578125 2.734375 56.6875 0.65625 
Q 49.8125 -1.421875 42 -1.421875 
Q 24.90625 -1.421875 15.25 8.5625 
Q 5.609375 18.5625 5.609375 36.375 
Q 5.609375 54.25 15.25 64.234375 
Q 24.90625 74.21875 42 74.21875 
Q 49.125 74.21875 55.546875 72.453125 
Q 61.96875 70.703125 67.390625 67.28125 
L 67.390625 56.78125 
Q 61.921875 61.421875 55.765625 63.765625 
Q 49.609375 66.109375 42.828125 66.109375 
Q 29.4375 66.109375 22.71875 58.640625 
Q 16.015625 51.171875 16.015625 36.375 
Q 16.015625 21.625 22.71875 14.15625 
Q 29.4375 6.6875 42.828125 6.6875 
Q 48.046875 6.6875 52.140625 7.59375 
Q 56.25 8.5 59.515625 10.40625 
z
" id="DejaVuSans-71"/>
     <path d="M 9.8125 72.90625 
L 51.703125 72.90625 
L 51.703125 64.59375 
L 19.671875 64.59375 
L 19.671875 43.109375 
L 48.578125 43.109375 
L 48.578125 34.8125 
L 19.671875 34.8125 
L 19.671875 0 
L 9.8125 0 
z
" id="DejaVuSans-70"/>
     <path d="M 19.671875 64.796875 
L 19.671875 37.40625 
L 32.078125 37.40625 
Q 38.96875 37.40625 42.71875 40.96875 
Q 46.484375 44.53125 46.484375 51.125 
Q 46.484375 57.671875 42.71875 61.234375 
Q 38.96875 64.796875 32.078125 64.796875 
z
M 9.8125 72.90625 
L 32.078125 72.90625 
Q 44.34375 72.90625 50.609375 67.359375 
Q 56.890625 61.8125 56.890625 51.125 
Q 56.890625 40.328125 50.609375 34.8125 
Q 44.34375 29.296875 32.078125 29.296875 
L 19.671875 29.296875 
L 19.671875 0 
L 9.8125 0 
z
" id="DejaVuSans-80"/>
    </defs>
    <g transform="translate(469.21874 149.944112)scale(0.11 -0.11)">
     <use xlink:href="#DejaVuSans-71"/>
     <use x="77.490234" xlink:href="#DejaVuSans-70"/>
     <use x="135.009766" xlink:href="#DejaVuSans-80"/>
    </g>
   </g>
   <g id="text_14">
    <g id="patch_20">
     <path d="M 665.112361 124.485369 
L 715.965017 124.485369 
Q 719.265017 124.485369 719.265017 121.185369 
L 719.265017 110.539431 
Q 719.265017 107.239431 715.965017 107.239431 
L 665.112361 107.239431 
Q 661.812361 107.239431 661.812361 110.539431 
L 661.812361 121.185369 
Q 661.812361 124.485369 665.112361 124.485369 
z
" style="fill:#ffffff;"/>
    </g>
    <!-- piggyBac -->
    <g transform="translate(665.112361 118.897712)scale(0.11 -0.11)">
     <use xlink:href="#DejaVuSans-112"/>
     <use x="63.476562" xlink:href="#DejaVuSans-105"/>
     <use x="91.259766" xlink:href="#DejaVuSans-103"/>
     <use x="154.736328" xlink:href="#DejaVuSans-103"/>
     <use x="218.212891" xlink:href="#DejaVuSans-121"/>
     <use x="277.392578" xlink:href="#DejaVuSans-66"/>
     <use x="345.996094" xlink:href="#DejaVuSans-97"/>
     <use x="407.275391" xlink:href="#DejaVuSans-99"/>
    </g>
   </g>
   <g id="text_15">
    <g id="patch_21">
     <path d="M 241.344492 124.485369 
L 276.93293 124.485369 
Q 280.23293 124.485369 280.23293 121.185369 
L 280.23293 110.539431 
Q 280.23293 107.239431 276.93293 107.239431 
L 241.344492 107.239431 
Q 238.044492 107.239431 238.044492 110.539431 
L 238.044492 121.185369 
Q 238.044492 124.485369 241.344492 124.485369 
z
" style="fill:#ffffff;"/>
    </g>
    <!-- DsRed -->
    <defs>
     <path d="M 19.671875 64.796875 
L 19.671875 8.109375 
L 31.59375 8.109375 
Q 46.6875 8.109375 53.6875 14.9375 
Q 60.6875 21.78125 60.6875 36.53125 
Q 60.6875 51.171875 53.6875 57.984375 
Q 46.6875 64.796875 31.59375 64.796875 
z
M 9.8125 72.90625 
L 30.078125 72.90625 
Q 51.265625 72.90625 61.171875 64.09375 
Q 71.09375 55.28125 71.09375 36.53125 
Q 71.09375 17.671875 61.125 8.828125 
Q 51.171875 0 30.078125 0 
L 9.8125 0 
z
" id="DejaVuSans-68"/>
     <path d="M 44.390625 34.1875 
Q 47.5625 33.109375 50.5625 29.59375 
Q 53.5625 26.078125 56.59375 19.921875 
L 66.609375 0 
L 56 0 
L 46.6875 18.703125 
Q 43.0625 26.03125 39.671875 28.421875 
Q 36.28125 30.8125 30.421875 30.8125 
L 19.671875 30.8125 
L 19.671875 0 
L 9.8125 0 
L 9.8125 72.90625 
L 32.078125 72.90625 
Q 44.578125 72.90625 50.734375 67.671875 
Q 56.890625 62.453125 56.890625 51.90625 
Q 56.890625 45.015625 53.6875 40.46875 
Q 50.484375 35.9375 44.390625 34.1875 
z
M 19.671875 64.796875 
L 19.671875 38.921875 
L 32.078125 38.921875 
Q 39.203125 38.921875 42.84375 42.21875 
Q 46.484375 45.515625 46.484375 51.90625 
Q 46.484375 58.296875 42.84375 61.546875 
Q 39.203125 64.796875 32.078125 64.796875 
z
" id="DejaVuSans-82"/>
    </defs>
    <g transform="translate(241.344492 118.897712)scale(0.11 -0.11)">
     <use xlink:href="#DejaVuSans-68"/>
     <use x="77.001953" xlink:href="#DejaVuSans-115"/>
     <use x="129.101562" xlink:href="#DejaVuSans-82"/>
     <use x="198.521484" xlink:href="#DejaVuSans-101"/>
     <use x="260.044922" xlink:href="#DejaVuSans-100"/>
    </g>
   </g>
   <g id="text_16">
    <g id="patch_22">
     <path d="M 7.2 93.438969 
L 114.355469 93.438969 
Q 117.655469 93.438969 117.655469 90.138969 
L 117.655469 79.493031 
Q 117.655469 76.193031 114.355469 76.193031 
L 7.2 76.193031 
Q 3.9 76.193031 3.9 79.493031 
L 3.9 90.138969 
Q 3.9 93.438969 7.2 93.438969 
z
" style="fill:#ffffff;"/>
    </g>
    <!-- origin of replication -->
    <defs>
     <path d="M 37.109375 75.984375 
L 37.109375 68.5 
L 28.515625 68.5 
Q 23.6875 68.5 21.796875 66.546875 
Q 19.921875 64.59375 19.921875 59.515625 
L 19.921875 54.6875 
L 34.71875 54.6875 
L 34.71875 47.703125 
L 19.921875 47.703125 
L 19.921875 0 
L 10.890625 0 
L 10.890625 47.703125 
L 2.296875 47.703125 
L 2.296875 54.6875 
L 10.890625 54.6875 
L 10.890625 58.5 
Q 10.890625 67.625 15.140625 71.796875 
Q 19.390625 75.984375 28.609375 75.984375 
z
" id="DejaVuSans-102"/>
     <path d="M 18.3125 70.21875 
L 18.3125 54.6875 
L 36.8125 54.6875 
L 36.8125 47.703125 
L 18.3125 47.703125 
L 18.3125 18.015625 
Q 18.3125 11.328125 20.140625 9.421875 
Q 21.96875 7.515625 27.59375 7.515625 
L 36.8125 7.515625 
L 36.8125 0 
L 27.59375 0 
Q 17.1875 0 13.234375 3.875 
Q 9.28125 7.765625 9.28125 18.015625 
L 9.28125 47.703125 
L 2.6875 47.703125 
L 2.6875 54.6875 
L 9.28125 54.6875 
L 9.28125 70.21875 
z
" id="DejaVuSans-116"/>
    </defs>
    <g transform="translate(7.2 87.851312)scale(0.11 -0.11)">
     <use xlink:href="#DejaVuSans-111"/>
     <use x="61.181641" xlink:href="#DejaVuSans-114"/>
     <use x="102.294922" xlink:href="#DejaVuSans-105"/>
     <use x="130.078125" xlink:href="#DejaVuSans-103"/>
     <use x="193.554688" xlink:href="#DejaVuSans-105"/>
     <use x="221.337891" xlink:href="#DejaVuSans-110"/>
     <use x="284.716797" xlink:href="#DejaVuSans-32"/>
     <use x="316.503906" xlink:href="#DejaVuSans-111"/>
     <use x="377.685547" xlink:href="#DejaVuSans-102"/>
     <use x="412.890625" xlink:href="#DejaVuSans-32"/>
     <use x="444.677734" xlink:href="#DejaVuSans-114"/>
     <use x="485.759766" xlink:href="#DejaVuSans-101"/>
     <use x="547.283203" xlink:href="#DejaVuSans-112"/>
     <use x="610.759766" xlink:href="#DejaVuSans-108"/>
     <use x="638.542969" xlink:href="#DejaVuSans-105"/>
     <use x="666.326172" xlink:href="#DejaVuSans-99"/>
     <use x="721.306641" xlink:href="#DejaVuSans-97"/>
     <use x="782.585938" xlink:href="#DejaVuSans-116"/>
     <use x="821.794922" xlink:href="#DejaVuSans-105"/>
     <use x="849.578125" xlink:href="#DejaVuSans-111"/>
     <use x="910.759766" xlink:href="#DejaVuSans-110"/>
    </g>
   </g>
   <g id="text_17">
    <g id="patch_23">
     <path d="M 62.004281 53.028166 
L 161.777719 53.028166 
Q 165.077719 53.028166 165.077719 49.728166 
L 165.077719 26.764634 
Q 165.077719 23.464634 161.777719 23.464634 
L 62.004281 23.464634 
Q 58.704281 23.464634 58.704281 26.764634 
L 58.704281 49.728166 
Q 58.704281 53.028166 62.004281 53.028166 
z
" style="fill:#ffffff;"/>
    </g>
    <!-- chloramphenicol -->
    <g transform="translate(66.206625 35.122916)scale(0.11 -0.11)">
     <use xlink:href="#DejaVuSans-99"/>
     <use x="54.980469" xlink:href="#DejaVuSans-104"/>
     <use x="118.359375" xlink:href="#DejaVuSans-108"/>
     <use x="146.142578" xlink:href="#DejaVuSans-111"/>
     <use x="207.324219" xlink:href="#DejaVuSans-114"/>
     <use x="248.4375" xlink:href="#DejaVuSans-97"/>
     <use x="309.716797" xlink:href="#DejaVuSans-109"/>
     <use x="407.128906" xlink:href="#DejaVuSans-112"/>
     <use x="470.605469" xlink:href="#DejaVuSans-104"/>
     <use x="533.984375" xlink:href="#DejaVuSans-101"/>
     <use x="595.507812" xlink:href="#DejaVuSans-110"/>
     <use x="658.886719" xlink:href="#DejaVuSans-105"/>
     <use x="686.669922" xlink:href="#DejaVuSans-99"/>
     <use x="741.650391" xlink:href="#DejaVuSans-111"/>
     <use x="802.832031" xlink:href="#DejaVuSans-108"/>
    </g>
    <!-- resistance marker -->
    <g transform="translate(62.004281 47.440509)scale(0.11 -0.11)">
     <use xlink:href="#DejaVuSans-114"/>
     <use x="41.082031" xlink:href="#DejaVuSans-101"/>
     <use x="102.605469" xlink:href="#DejaVuSans-115"/>
     <use x="154.705078" xlink:href="#DejaVuSans-105"/>
     <use x="182.488281" xlink:href="#DejaVuSans-115"/>
     <use x="234.587891" xlink:href="#DejaVuSans-116"/>
     <use x="273.796875" xlink:href="#DejaVuSans-97"/>
     <use x="335.076172" xlink:href="#DejaVuSans-110"/>
     <use x="398.455078" xlink:href="#DejaVuSans-99"/>
     <use x="453.435547" xlink:href="#DejaVuSans-101"/>
     <use x="514.958984" xlink:href="#DejaVuSans-32"/>
     <use x="546.746094" xlink:href="#DejaVuSans-109"/>
     <use x="644.158203" xlink:href="#DejaVuSans-97"/>
     <use x="705.4375" xlink:href="#DejaVuSans-114"/>
     <use x="746.550781" xlink:href="#DejaVuSans-107"/>
     <use x="804.414062" xlink:href="#DejaVuSans-101"/>
     <use x="865.9375" xlink:href="#DejaVuSans-114"/>
    </g>
   </g>
   <g id="text_18">
    <g id="patch_24">
     <path d="M 279.442993 93.438969 
L 306.583774 93.438969 
Q 309.883774 93.438969 309.883774 90.138969 
L 309.883774 79.493031 
Q 309.883774 76.193031 306.583774 76.193031 
L 279.442993 76.193031 
Q 276.142993 76.193031 276.142993 79.493031 
L 276.142993 90.138969 
Q 276.142993 93.438969 279.442993 93.438969 
z
" style="fill:#ffffff;"/>
    </g>
    <!-- 3xP3 -->
    <g transform="translate(279.442993 87.851312)scale(0.11 -0.11)">
     <use xlink:href="#DejaVuSans-51"/>
     <use x="63.623047" xlink:href="#DejaVuSans-120"/>
     <use x="122.802734" xlink:href="#DejaVuSans-80"/>
     <use x="183.105469" xlink:href="#DejaVuSans-51"/>
    </g>
   </g>
   <g id="text_19">
    <g id="patch_25">
     <path d="M 501.235067 93.438969 
L 528.375848 93.438969 
Q 531.675848 93.438969 531.675848 90.138969 
L 531.675848 79.493031 
Q 531.675848 76.193031 528.375848 76.193031 
L 501.235067 76.193031 
Q 497.935067 76.193031 497.935067 79.493031 
L 497.935067 90.138969 
Q 497.935067 93.438969 501.235067 93.438969 
z
" style="fill:#ffffff;"/>
    </g>
    <!-- 3xP3 -->
    <g transform="translate(501.235067 87.851312)scale(0.11 -0.11)">
     <use xlink:href="#DejaVuSans-51"/>
     <use x="63.623047" xlink:href="#DejaVuSans-120"/>
     <use x="122.802734" xlink:href="#DejaVuSans-80"/>
     <use x="183.105469" xlink:href="#DejaVuSans-51"/>
    </g>
   </g>
   <g id="text_20">
    <g id="patch_26">
     <path d="M 213.655671 62.392569 
L 242.16114 62.392569 
Q 245.46114 62.392569 245.46114 59.092569 
L 245.46114 48.446631 
Q 245.46114 45.146631 242.16114 45.146631 
L 213.655671 45.146631 
Q 210.355671 45.146631 210.355671 48.446631 
L 210.355671 59.092569 
Q 210.355671 62.392569 213.655671 62.392569 
z
" style="fill:#ffffff;"/>
    </g>
    <!-- SV40 -->
    <defs>
     <path d="M 53.515625 70.515625 
L 53.515625 60.890625 
Q 47.90625 63.578125 42.921875 64.890625 
Q 37.9375 66.21875 33.296875 66.21875 
Q 25.25 66.21875 20.875 63.09375 
Q 16.5 59.96875 16.5 54.203125 
Q 16.5 49.359375 19.40625 46.890625 
Q 22.3125 44.4375 30.421875 42.921875 
L 36.375 41.703125 
Q 47.40625 39.59375 52.65625 34.296875 
Q 57.90625 29 57.90625 20.125 
Q 57.90625 9.515625 50.796875 4.046875 
Q 43.703125 -1.421875 29.984375 -1.421875 
Q 24.8125 -1.421875 18.96875 -0.25 
Q 13.140625 0.921875 6.890625 3.21875 
L 6.890625 13.375 
Q 12.890625 10.015625 18.65625 8.296875 
Q 24.421875 6.59375 29.984375 6.59375 
Q 38.421875 6.59375 43.015625 9.90625 
Q 47.609375 13.234375 47.609375 19.390625 
Q 47.609375 24.75 44.3125 27.78125 
Q 41.015625 30.8125 33.5 32.328125 
L 27.484375 33.5 
Q 16.453125 35.6875 11.515625 40.375 
Q 6.59375 45.0625 6.59375 53.421875 
Q 6.59375 63.09375 13.40625 68.65625 
Q 20.21875 74.21875 32.171875 74.21875 
Q 37.3125 74.21875 42.625 73.28125 
Q 47.953125 72.359375 53.515625 70.515625 
z
" id="DejaVuSans-83"/>
     <path d="M 28.609375 0 
L 0.78125 72.90625 
L 11.078125 72.90625 
L 34.1875 11.53125 
L 57.328125 72.90625 
L 67.578125 72.90625 
L 39.796875 0 
z
" id="DejaVuSans-86"/>
    </defs>
    <g transform="translate(213.655671 56.804912)scale(0.11 -0.11)">
     <use xlink:href="#DejaVuSans-83"/>
     <use x="63.476562" xlink:href="#DejaVuSans-86"/>
     <use x="131.884766" xlink:href="#DejaVuSans-52"/>
     <use x="195.507812" xlink:href="#DejaVuSans-48"/>
    </g>
   </g>
   <g id="text_21">
    <g id="patch_27">
     <path d="M 433.03769 93.438969 
L 461.543158 93.438969 
Q 464.843158 93.438969 464.843158 90.138969 
L 464.843158 79.493031 
Q 464.843158 76.193031 461.543158 76.193031 
L 433.03769 76.193031 
Q 429.73769 76.193031 429.73769 79.493031 
L 429.73769 90.138969 
Q 429.73769 93.438969 433.03769 93.438969 
z
" style="fill:#ffffff;"/>
    </g>
    <!-- SV40 -->
    <g transform="translate(433.03769 87.851312)scale(0.11 -0.11)">
     <use xlink:href="#DejaVuSans-83"/>
     <use x="63.476562" xlink:href="#DejaVuSans-86"/>
     <use x="131.884766" xlink:href="#DejaVuSans-52"/>
     <use x="195.507812" xlink:href="#DejaVuSans-48"/>
    </g>
   </g>
   <g id="text_22">
    <g id="patch_28">
     <path d="M 200.941713 93.438969 
L 233.854056 93.438969 
Q 237.154056 93.438969 237.154056 90.138969 
L 237.154056 79.493031 
Q 237.154056 76.193031 233.854056 76.193031 
L 200.941713 76.193031 
Q 197.641713 76.193031 197.641713 79.493031 
L 197.641713 90.138969 
Q 197.641713 93.438969 200.941713 93.438969 
z
" style="fill:#ffffff;"/>
    </g>
    <!-- AttB -->
    <defs>
     <path d="M 34.1875 63.1875 
L 20.796875 26.90625 
L 47.609375 26.90625 
z
M 28.609375 72.90625 
L 39.796875 72.90625 
L 67.578125 0 
L 57.328125 0 
L 50.6875 18.703125 
L 17.828125 18.703125 
L 11.1875 0 
L 0.78125 0 
z
" id="DejaVuSans-65"/>
     <path d="M 58.984375 44.34375 
L 58.984375 37.9375 
L 8.40625 37.9375 
L 8.40625 24.75 
L 58.984375 24.75 
L 58.984375 18.359375 
L 71.96875 31.34375 
z
M 54.109375 6.546875 
L 54.109375 19.875 
L 3.515625 19.875 
L 3.515625 42.828125 
L 54.109375 42.828125 
L 54.109375 56.15625 
L 78.90625 31.34375 
z
" id="DejaVuSans-8680"/>
    </defs>
    <g transform="translate(200.941713 87.851312)scale(0.11 -0.11)">
     <use xlink:href="#DejaVuSans-65"/>
     <use x="68.392578" xlink:href="#DejaVuSans-116"/>
     <use x="107.601562" xlink:href="#DejaVuSans-116"/>
     <use x="146.810547" xlink:href="#DejaVuSans-66"/>
     <use x="215.414062" xlink:href="#DejaVuSans-8680"/>
    </g>
   </g>
   <g id="text_23">
    <g id="patch_29">
     <path d="M 648.743459 93.438969 
L 681.655803 93.438969 
Q 684.955803 93.438969 684.955803 90.138969 
L 684.955803 79.493031 
Q 684.955803 76.193031 681.655803 76.193031 
L 648.743459 76.193031 
Q 645.443459 76.193031 645.443459 79.493031 
L 645.443459 90.138969 
Q 645.443459 93.438969 648.743459 93.438969 
z
" style="fill:#ffffff;"/>
    </g>
    <!-- AttB -->
    <defs>
     <path d="M 22.609375 44.34375 
L 9.625 31.34375 
L 22.609375 18.359375 
L 22.609375 24.75 
L 73.1875 24.75 
L 73.1875 37.9375 
L 22.609375 37.9375 
z
M 27.484375 6.546875 
L 2.6875 31.34375 
L 27.484375 56.15625 
L 27.484375 42.828125 
L 78.078125 42.828125 
L 78.078125 19.875 
L 27.484375 19.875 
z
" id="DejaVuSans-8678"/>
    </defs>
    <g transform="translate(648.743459 87.851312)scale(0.11 -0.11)">
     <use xlink:href="#DejaVuSans-8678"/>
     <use x="83.789062" xlink:href="#DejaVuSans-65"/>
     <use x="152.181641" xlink:href="#DejaVuSans-116"/>
     <use x="191.390625" xlink:href="#DejaVuSans-116"/>
     <use x="230.599609" xlink:href="#DejaVuSans-66"/>
    </g>
   </g>
   <g id="text_24">
    <g id="patch_30">
     <path d="M 421.751636 124.485369 
L 453.749604 124.485369 
Q 457.049604 124.485369 457.049604 121.185369 
L 457.049604 110.539431 
Q 457.049604 107.239431 453.749604 107.239431 
L 421.751636 107.239431 
Q 418.451636 107.239431 418.451636 110.539431 
L 418.451636 121.185369 
Q 418.451636 124.485369 421.751636 124.485369 
z
" style="fill:#ffffff;"/>
    </g>
    <!-- AttP -->
    <g transform="translate(421.751636 118.897712)scale(0.11 -0.11)">
     <use xlink:href="#DejaVuSans-65"/>
     <use x="68.392578" xlink:href="#DejaVuSans-116"/>
     <use x="107.601562" xlink:href="#DejaVuSans-116"/>
     <use x="146.810547" xlink:href="#DejaVuSans-80"/>
     <use x="207.113281" xlink:href="#DejaVuSans-8680"/>
    </g>
   </g>
   <g id="text_25">
    <g id="patch_31">
     <path d="M 509.04921 124.485369 
L 541.047179 124.485369 
Q 544.347179 124.485369 544.347179 121.185369 
L 544.347179 110.539431 
Q 544.347179 107.239431 541.047179 107.239431 
L 509.04921 107.239431 
Q 505.74921 107.239431 505.74921 110.539431 
L 505.74921 121.185369 
Q 505.74921 124.485369 509.04921 124.485369 
z
" style="fill:#ffffff;"/>
    </g>
    <!-- AttP -->
    <g transform="translate(509.04921 118.897712)scale(0.11 -0.11)">
     <use xlink:href="#DejaVuSans-8678"/>
     <use x="83.789062" xlink:href="#DejaVuSans-65"/>
     <use x="152.181641" xlink:href="#DejaVuSans-116"/>
     <use x="191.390625" xlink:href="#DejaVuSans-116"/>
     <use x="230.599609" xlink:href="#DejaVuSans-80"/>
    </g>
   </g>
   <g id="legend_1">
    <g id="patch_32">
     <path d="M 455.939688 23.798437 
L 475.939688 23.798437 
L 475.939688 16.798437 
L 455.939688 16.798437 
z
" style="fill:#ffff00;stroke:#000000;stroke-linejoin:miter;"/>
    </g>
    <g id="text_26">
     <!-- rep_origin -->
     <defs>
      <path d="M 50.984375 -16.609375 
L 50.984375 -23.578125 
L -0.984375 -23.578125 
L -0.984375 -16.609375 
z
" id="DejaVuSans-95"/>
     </defs>
     <g transform="translate(483.939688 23.798437)scale(0.1 -0.1)">
      <use xlink:href="#DejaVuSans-114"/>
      <use x="41.082031" xlink:href="#DejaVuSans-101"/>
      <use x="102.605469" xlink:href="#DejaVuSans-112"/>
      <use x="166.082031" xlink:href="#DejaVuSans-95"/>
      <use x="216.082031" xlink:href="#DejaVuSans-111"/>
      <use x="277.263672" xlink:href="#DejaVuSans-114"/>
      <use x="318.376953" xlink:href="#DejaVuSans-105"/>
      <use x="346.160156" xlink:href="#DejaVuSans-103"/>
      <use x="409.636719" xlink:href="#DejaVuSans-105"/>
      <use x="437.419922" xlink:href="#DejaVuSans-110"/>
     </g>
    </g>
    <g id="patch_33">
     <path d="M 455.939688 38.754687 
L 475.939688 38.754687 
L 475.939688 31.754687 
L 455.939688 31.754687 
z
" style="fill:#ffd383;stroke:#000000;stroke-linejoin:miter;"/>
    </g>
    <g id="text_27">
     <!-- CDS -->
     <defs>
      <path d="M 64.40625 67.28125 
L 64.40625 56.890625 
Q 59.421875 61.53125 53.78125 63.8125 
Q 48.140625 66.109375 41.796875 66.109375 
Q 29.296875 66.109375 22.65625 58.46875 
Q 16.015625 50.828125 16.015625 36.375 
Q 16.015625 21.96875 22.65625 14.328125 
Q 29.296875 6.6875 41.796875 6.6875 
Q 48.140625 6.6875 53.78125 8.984375 
Q 59.421875 11.28125 64.40625 15.921875 
L 64.40625 5.609375 
Q 59.234375 2.09375 53.4375 0.328125 
Q 47.65625 -1.421875 41.21875 -1.421875 
Q 24.65625 -1.421875 15.125 8.703125 
Q 5.609375 18.84375 5.609375 36.375 
Q 5.609375 53.953125 15.125 64.078125 
Q 24.65625 74.21875 41.21875 74.21875 
Q 47.75 74.21875 53.53125 72.484375 
Q 59.328125 70.75 64.40625 67.28125 
z
" id="DejaVuSans-67"/>
     </defs>
     <g transform="translate(483.939688 38.754687)scale(0.1 -0.1)">
      <use xlink:href="#DejaVuSans-67"/>
      <use x="69.824219" xlink:href="#DejaVuSans-68"/>
      <use x="146.826172" xlink:href="#DejaVuSans-83"/>
     </g>
    </g>
    <g id="patch_34">
     <path d="M 554.020938 23.798437 
L 574.020938 23.798437 
L 574.020938 16.798437 
L 554.020938 16.798437 
z
" style="fill:#d1e9f1;stroke:#000000;stroke-linejoin:miter;"/>
    </g>
    <g id="text_28">
     <!-- misc_feature -->
     <defs>
      <path d="M 8.5 21.578125 
L 8.5 54.6875 
L 17.484375 54.6875 
L 17.484375 21.921875 
Q 17.484375 14.15625 20.5 10.265625 
Q 23.53125 6.390625 29.59375 6.390625 
Q 36.859375 6.390625 41.078125 11.03125 
Q 45.3125 15.671875 45.3125 23.6875 
L 45.3125 54.6875 
L 54.296875 54.6875 
L 54.296875 0 
L 45.3125 0 
L 45.3125 8.40625 
Q 42.046875 3.421875 37.71875 1 
Q 33.40625 -1.421875 27.6875 -1.421875 
Q 18.265625 -1.421875 13.375 4.4375 
Q 8.5 10.296875 8.5 21.578125 
z
M 31.109375 56 
z
" id="DejaVuSans-117"/>
     </defs>
     <g transform="translate(582.020938 23.798437)scale(0.1 -0.1)">
      <use xlink:href="#DejaVuSans-109"/>
      <use x="97.412109" xlink:href="#DejaVuSans-105"/>
      <use x="125.195312" xlink:href="#DejaVuSans-115"/>
      <use x="177.294922" xlink:href="#DejaVuSans-99"/>
      <use x="232.275391" xlink:href="#DejaVuSans-95"/>
      <use x="282.275391" xlink:href="#DejaVuSans-102"/>
      <use x="317.480469" xlink:href="#DejaVuSans-101"/>
      <use x="379.003906" xlink:href="#DejaVuSans-97"/>
      <use x="440.283203" xlink:href="#DejaVuSans-116"/>
      <use x="479.492188" xlink:href="#DejaVuSans-117"/>
      <use x="542.871094" xlink:href="#DejaVuSans-114"/>
      <use x="583.953125" xlink:href="#DejaVuSans-101"/>
     </g>
    </g>
    <g id="patch_35">
     <path d="M 554.020938 38.754687 
L 574.020938 38.754687 
L 574.020938 31.754687 
L 554.020938 31.754687 
z
" style="fill:#fbf3f6;stroke:#000000;stroke-linejoin:miter;"/>
    </g>
    <g id="text_29">
     <!-- misc_recomb -->
     <g transform="translate(582.020938 38.754687)scale(0.1 -0.1)">
      <use xlink:href="#DejaVuSans-109"/>
      <use x="97.412109" xlink:href="#DejaVuSans-105"/>
      <use x="125.195312" xlink:href="#DejaVuSans-115"/>
      <use x="177.294922" xlink:href="#DejaVuSans-99"/>
      <use x="232.275391" xlink:href="#DejaVuSans-95"/>
      <use x="282.275391" xlink:href="#DejaVuSans-114"/>
      <use x="323.357422" xlink:href="#DejaVuSans-101"/>
      <use x="384.880859" xlink:href="#DejaVuSans-99"/>
      <use x="439.861328" xlink:href="#DejaVuSans-111"/>
      <use x="501.042969" xlink:href="#DejaVuSans-109"/>
      <use x="598.455078" xlink:href="#DejaVuSans-98"/>
     </g>
    </g>
    <g id="patch_36">
     <path d="M 668.214688 23.798437 
L 688.214688 23.798437 
L 688.214688 16.798437 
L 668.214688 16.798437 
z
" style="fill:#ff0000;stroke:#000000;stroke-linejoin:miter;"/>
    </g>
    <g id="text_30">
     <!-- regulatory -->
     <g transform="translate(696.214688 23.798437)scale(0.1 -0.1)">
      <use xlink:href="#DejaVuSans-114"/>
      <use x="41.082031" xlink:href="#DejaVuSans-101"/>
      <use x="102.605469" xlink:href="#DejaVuSans-103"/>
      <use x="166.082031" xlink:href="#DejaVuSans-117"/>
      <use x="229.460938" xlink:href="#DejaVuSans-108"/>
      <use x="257.244141" xlink:href="#DejaVuSans-97"/>
      <use x="318.523438" xlink:href="#DejaVuSans-116"/>
      <use x="357.732422" xlink:href="#DejaVuSans-111"/>
      <use x="418.914062" xlink:href="#DejaVuSans-114"/>
      <use x="460.027344" xlink:href="#DejaVuSans-121"/>
     </g>
    </g>
    <g id="patch_37">
     <path d="M 668.214688 38.476562 
L 688.214688 38.476562 
L 688.214688 31.476562 
L 668.214688 31.476562 
z
" style="fill:#00008b;stroke:#000000;stroke-linejoin:miter;"/>
    </g>
    <g id="text_31">
     <!-- backbone -->
     <g transform="translate(696.214688 38.476562)scale(0.1 -0.1)">
      <use xlink:href="#DejaVuSans-98"/>
      <use x="63.476562" xlink:href="#DejaVuSans-97"/>
      <use x="124.755859" xlink:href="#DejaVuSans-99"/>
      <use x="179.736328" xlink:href="#DejaVuSans-107"/>
      <use x="237.646484" xlink:href="#DejaVuSans-98"/>
      <use x="301.123047" xlink:href="#DejaVuSans-111"/>
      <use x="362.304688" xlink:href="#DejaVuSans-110"/>
      <use x="425.683594" xlink:href="#DejaVuSans-101"/>
     </g>
    </g>
   </g>
  </g>
 </g>
 <defs>
  <clipPath id="p35cccbe21a">
   <rect height="155.232" width="725.4" x="31.736563" y="7.2"/>
  </clipPath>
 </defs>
</svg>
