<?xml version="1.0" encoding="utf-8" standalone="no"?>
<!DOCTYPE svg PUBLIC "-//W3C//DTD SVG 1.1//EN"
  "http://www.w3.org/Graphics/SVG/1.1/DTD/svg11.dtd">
<!-- Created with matplotlib (https://matplotlib.org/) -->
<svg height="335.16pt" version="1.1" viewBox="0 0 236.16 335.16" width="236.16pt" xmlns="http://www.w3.org/2000/svg" xmlns:xlink="http://www.w3.org/1999/xlink">
 <defs>
  <style type="text/css">
*{stroke-linecap:butt;stroke-linejoin:round;}
  </style>
 </defs>
 <g id="figure_1">
  <g id="patch_1">
   <path d="M 0 335.16 
L 236.16 335.16 
L 236.16 0 
L 0 0 
z
" style="fill:#ffffff;"/>
  </g>
  <g id="axes_1">
   <g id="line2d_1">
    <path clip-path="url(#pa9cd20ed2f)" d="M 188.613803 62.64 
L 188.613803 181.05747 
" style="fill:none;stroke:#000000;stroke-linecap:square;stroke-width:0.5;"/>
   </g>
   <g id="line2d_2">
    <path clip-path="url(#pa9cd20ed2f)" d="M 60.488937 82.44 
L 60.488937 162.711724 
" style="fill:none;stroke:#000000;stroke-linecap:square;stroke-width:0.5;"/>
   </g>
   <g id="line2d_3">
    <path clip-path="url(#pa9cd20ed2f)" d="M 35.548823 102.24 
L 35.548823 264.209677 
" style="fill:none;stroke:#000000;stroke-linecap:square;stroke-width:0.5;"/>
   </g>
   <g id="line2d_4">
    <path clip-path="url(#pa9cd20ed2f)" d="M 78.67572 42.84 
L 78.67572 148.378161 
" style="fill:none;stroke:#000000;stroke-linecap:square;stroke-width:0.5;"/>
   </g>
   <g id="line2d_5">
    <path clip-path="url(#pa9cd20ed2f)" d="M 196.133689 82.44 
L 196.133689 203.653846 
" style="fill:none;stroke:#000000;stroke-linecap:square;stroke-width:0.5;"/>
   </g>
   <g id="line2d_6">
    <path clip-path="url(#pa9cd20ed2f)" d="M 48.054357 62.64 
L 48.054357 180.079334 
" style="fill:none;stroke:#000000;stroke-linecap:square;stroke-width:0.5;"/>
   </g>
   <g id="line2d_7">
    <path clip-path="url(#pa9cd20ed2f)" d="M 175.749823 102.24 
L 175.749823 162.795274 
" style="fill:none;stroke:#000000;stroke-linecap:square;stroke-width:0.5;"/>
   </g>
   <g id="patch_2">
    <path clip-path="url(#pa9cd20ed2f)" d="M 118.08 296.28 
C 139.084086 296.28 159.230726 287.934988 174.082857 273.082857 
C 188.934988 258.230726 197.28 238.084086 197.28 217.08 
C 197.28 196.075914 188.934988 175.929274 174.082857 161.077143 
C 159.230726 146.225012 139.084086 137.88 118.08 137.88 
C 97.075914 137.88 76.929274 146.225012 62.077143 161.077143 
C 47.225012 175.929274 38.88 196.075914 38.88 217.08 
C 38.88 238.084086 47.225012 258.230726 62.077143 273.082857 
C 76.929274 287.934988 97.075914 296.28 118.08 296.28 
z
" style="fill:none;stroke:#000000;stroke-linejoin:miter;"/>
   </g>
   <g id="patch_3">
    <path clip-path="url(#pa9cd20ed2f)" d="M 202.790139 214.684608 
C 203.211689 229.592208 199.690622 244.350244 192.584094 257.461747 
C 185.477567 270.57325 175.034269 281.579388 162.313508 289.363762 
L 162.313508 289.363762 
L 153.374618 287.980846 
L 156.525946 279.906074 
L 156.525946 279.906074 
C 167.582308 273.140216 176.659193 263.574133 182.835895 252.178154 
C 189.012596 240.782175 192.072963 227.955096 191.706569 214.998023 
L 191.706569 214.998023 
z
" style="fill:#d1e9f1;stroke:#000000;stroke-linejoin:miter;"/>
   </g>
   <g id="patch_4">
    <path clip-path="url(#pa9cd20ed2f)" d="M 81.66239 140.560047 
C 94.557398 134.423015 108.796893 131.643978 123.053191 132.482051 
C 137.309488 133.320125 151.125292 137.748426 163.212421 145.354062 
L 163.212421 145.354062 
L 165.941687 153.977711 
L 157.307244 154.738764 
L 157.307244 154.738764 
C 146.801609 148.128258 134.793481 144.279361 122.402493 143.550942 
C 110.011506 142.822523 97.635122 145.237948 86.427311 150.572003 
L 86.427311 150.572003 
z
" style="fill:#d1e9f1;stroke:#000000;stroke-linejoin:miter;"/>
   </g>
   <g id="patch_5">
    <path clip-path="url(#pa9cd20ed2f)" d="M 86.545822 295.738382 
C 74.254577 290.810817 63.287714 283.0702 54.527801 273.139464 
C 45.767888 263.208728 39.456388 251.361611 36.101226 238.551518 
L 36.101226 238.551518 
L 40.006928 230.392982 
L 46.82742 235.74216 
L 46.82742 235.74216 
C 49.74359 246.876166 55.229286 257.173194 62.843042 265.804581 
C 70.456798 274.435969 79.988744 281.163794 90.671789 285.446632 
L 90.671789 285.446632 
z
" style="fill:#00008b;stroke:#000000;stroke-linejoin:miter;"/>
   </g>
   <g id="patch_6">
    <path clip-path="url(#pa9cd20ed2f)" d="M 39.353229 185.716948 
C 37.300921 190.8686 35.759224 196.209282 34.750323 201.662136 
C 33.741423 207.114989 33.270182 212.653729 33.343384 218.198649 
L 33.343384 218.198649 
L 39.279373 225.023621 
L 44.430418 218.052284 
L 44.430418 218.052284 
C 44.366794 213.232868 44.776377 208.418822 45.653272 203.679426 
C 46.530167 198.94003 47.870147 194.298129 49.653928 189.820525 
L 49.653928 189.820525 
z
" style="fill:#d1e9f1;stroke:#000000;stroke-linejoin:miter;"/>
   </g>
   <g id="patch_7">
    <path clip-path="url(#pa9cd20ed2f)" d="M 199.907198 195.037877 
C 198.693239 190.531285 197.109055 186.132673 195.170815 181.886936 
C 193.232575 177.641198 190.946895 173.562829 188.337105 169.693454 
L 188.337105 169.693454 
L 179.631164 167.239312 
L 179.144587 175.893563 
L 179.144587 175.893563 
C 181.412909 179.256664 183.399528 182.801415 185.084166 186.491636 
C 186.768805 190.181856 188.145713 194.004949 189.200836 197.921893 
L 189.200836 197.921893 
z
" style="fill:#ffd383;stroke:#000000;stroke-linejoin:miter;"/>
   </g>
   <g id="patch_8">
    <path clip-path="url(#pa9cd20ed2f)" d="M 152.780288 294.393877 
C 148.664474 296.241151 144.407714 297.756821 140.050608 298.926429 
C 135.693503 300.096037 131.24995 300.915853 126.762332 301.378058 
L 126.762332 301.378058 
L 119.29704 296.270649 
L 125.626326 290.348406 
L 125.626326 290.348406 
C 129.526779 289.946676 133.388933 289.234126 137.175949 288.21755 
C 140.962966 287.200975 144.662767 285.883617 148.240064 284.278042 
L 148.240064 284.278042 
z
" style="fill:#d1e9f1;stroke:#000000;stroke-linejoin:miter;"/>
   </g>
   <g id="patch_9">
    <path clip-path="url(#pa9cd20ed2f)" d="M 69.087253 147.933371 
C 65.540088 150.446659 62.19157 153.229174 59.071363 156.256269 
C 55.951156 159.283363 53.0685 162.546071 50.448933 166.015489 
L 50.448933 166.015489 
L 50.954508 175.04658 
L 59.297858 172.696827 
L 59.297858 172.696827 
C 61.574678 169.681351 64.080163 166.84554 66.792119 164.214514 
C 69.504075 161.583488 72.414469 159.16504 75.497519 156.980594 
L 75.497519 156.980594 
z
" style="fill:#ffd383;stroke:#000000;stroke-linejoin:miter;"/>
   </g>
   <g id="patch_10">
    <path clip-path="url(#pa9cd20ed2f)" d="M 45.603357 286.824371 
C 49.127181 290.486242 52.923466 293.875793 56.959588 296.963893 
C 60.99571 300.051993 65.260073 302.82977 69.71603 305.273352 
L 69.71603 305.273352 
L 79.818544 304.078061 
L 75.047491 295.551251 
L 75.047491 295.551251 
C 71.082742 293.377039 67.288467 290.905474 63.697272 288.157794 
C 60.106076 285.410115 56.728279 282.394216 53.592908 279.136015 
L 53.592908 279.136015 
z
" style="fill:#ffff00;stroke:#000000;stroke-linejoin:miter;"/>
   </g>
   <g id="patch_11">
    <path clip-path="url(#pa9cd20ed2f)" d="M 22.832613 249.40764 
C 24.425287 254.10016 26.362564 258.668572 28.62861 263.075543 
C 30.894657 267.482513 33.483283 271.716004 36.373335 275.741418 
L 36.373335 275.741418 
L 46.001512 279.025889 
L 45.380369 269.274805 
L 45.380369 269.274805 
C 42.808906 265.693138 40.50564 261.926331 38.489393 258.005168 
C 36.473147 254.084005 34.749429 250.019197 33.332325 245.843963 
L 33.332325 245.843963 
z
" style="fill:#ffd383;stroke:#000000;stroke-linejoin:miter;"/>
   </g>
   <g id="patch_12">
    <path clip-path="url(#pa9cd20ed2f)" d="M 81.396369 140.687221 
C 80.469736 141.132187 79.551276 141.593977 78.641445 142.072361 
C 77.731613 142.550745 76.830561 143.045643 75.938736 143.55681 
L 75.938736 143.55681 
L 73.803557 151.412378 
L 81.452546 153.176667 
L 81.452546 153.176667 
C 82.227684 152.732381 83.010841 152.302236 83.801629 151.886445 
C 84.592417 151.470653 85.390705 151.069284 86.196096 150.682537 
L 86.196096 150.682537 
z
" style="fill:#ff0000;stroke:#000000;stroke-linejoin:miter;"/>
   </g>
   <g id="patch_13">
    <path clip-path="url(#pa9cd20ed2f)" d="M 202.423352 208.849291 
C 202.323514 207.826218 202.205071 206.805047 202.06808 205.786285 
C 201.931089 204.767522 201.775573 203.751336 201.601609 202.738231 
L 201.601609 202.738231 
L 194.956345 198.036168 
L 190.673548 204.614725 
L 190.673548 204.614725 
C 190.82475 205.495273 190.959918 206.3785 191.078985 207.263967 
C 191.198052 208.149434 191.300998 209.036994 191.387773 209.926206 
L 191.387773 209.926206 
z
" style="fill:#ff0000;stroke:#000000;stroke-linejoin:miter;"/>
   </g>
   <g id="patch_14">
    <path clip-path="url(#pa9cd20ed2f)" d="M 45.970293 172.56331 
C 45.475492 173.364806 44.994088 174.174496 44.526283 174.992042 
C 44.058477 175.809588 43.604334 176.634877 43.164044 177.467564 
L 43.164044 177.467564 
L 45.753688 184.807029 
L 52.966132 182.6505 
L 52.966132 182.6505 
C 53.348814 181.926762 53.743536 181.209455 54.150134 180.498878 
C 54.556731 179.7883 54.975147 179.084551 55.405208 178.387924 
L 55.405208 178.387924 
z
" style="fill:#ff0000;stroke:#000000;stroke-linejoin:miter;"/>
   </g>
   <g id="patch_15">
    <path clip-path="url(#pa9cd20ed2f)" d="M 183.535845 163.25549 
C 182.937588 162.527951 182.327243 161.810438 181.705064 161.103248 
C 181.082885 160.396058 180.448959 159.699291 179.80355 159.013237 
L 179.80355 159.013237 
L 172.020983 159.088532 
L 171.727571 166.610757 
L 171.727571 166.610757 
C 172.288534 167.207048 172.839517 167.812649 173.380289 168.427309 
C 173.921062 169.041969 174.451549 169.665602 174.971529 170.297949 
L 174.971529 170.297949 
z
" style="fill:#ff0000;stroke:#000000;stroke-linejoin:miter;"/>
   </g>
   <g id="patch_16">
    <path clip-path="url(#pa9cd20ed2f)" d="M 39.353229 185.716948 
C 39.438103 185.503898 39.523842 185.291194 39.610443 185.07884 
C 39.697045 184.866487 39.784507 184.654486 39.87283 184.442842 
L 39.87283 184.442842 
L 45.494065 185.395272 
L 50.105544 188.713125 
L 50.105544 188.713125 
C 50.028778 188.897076 49.952758 189.081339 49.877488 189.265908 
C 49.802218 189.450477 49.727697 189.635351 49.653928 189.820525 
L 49.653928 189.820525 
z
" style="fill:#00008b;stroke:#000000;stroke-linejoin:miter;"/>
   </g>
   <g id="patch_17">
    <path clip-path="url(#pa9cd20ed2f)" d="M 152.780288 294.393877 
C 152.989514 294.299971 153.198358 294.205217 153.406815 294.109616 
C 153.615272 294.014014 153.82334 293.917568 154.031014 293.820277 
L 154.031014 293.820277 
L 152.839122 288.244903 
L 149.327143 283.779493 
L 149.327143 283.779493 
C 149.146641 283.864054 148.965797 283.947882 148.784615 284.030974 
C 148.603433 284.114067 148.421914 284.196423 148.240064 284.278042 
L 148.240064 284.278042 
z
" style="fill:#00008b;stroke:#000000;stroke-linejoin:miter;"/>
   </g>
   <g id="patch_18">
    <path clip-path="url(#pa9cd20ed2f)" d="M 174.084419 153.479288 
C 174.204285 153.584837 174.323852 153.690726 174.44312 153.796951 
C 174.562387 153.903177 174.681354 154.00974 174.800019 154.116638 
L 174.800019 154.116638 
L 171.751371 158.838915 
L 167.378708 162.354835 
L 167.378708 162.354835 
C 167.27557 162.261923 167.172168 162.169303 167.068506 162.076976 
C 166.964844 161.984649 166.86092 161.892616 166.756738 161.800876 
L 166.756738 161.800876 
z
" style="fill:#00008b;stroke:#000000;stroke-linejoin:miter;"/>
   </g>
   <g id="patch_19">
    <path clip-path="url(#pa9cd20ed2f)" d="M 202.616328 211.150855 
C 202.605154 210.991532 202.593529 210.832241 202.581454 210.672984 
C 202.569379 210.513727 202.556853 210.354504 202.543878 210.195318 
L 202.543878 210.195318 
L 196.9404 209.753515 
L 191.492529 211.096117 
L 191.492529 211.096117 
C 191.503807 211.234476 191.514694 211.372865 191.525189 211.511285 
C 191.535684 211.649705 191.545788 211.788154 191.5555 211.926631 
L 191.5555 211.926631 
z
" style="fill:#00008b;stroke:#000000;stroke-linejoin:miter;"/>
   </g>
   <g id="text_1">
    <g id="patch_20">
     <path d="M 177.872475 71.262969 
L 199.355131 71.262969 
Q 202.655131 71.262969 202.655131 67.962969 
L 202.655131 57.317031 
Q 202.655131 54.017031 199.355131 54.017031 
L 177.872475 54.017031 
Q 174.572475 54.017031 174.572475 57.317031 
L 174.572475 67.962969 
Q 174.572475 71.262969 177.872475 71.262969 
z
" style="fill:#fff6e5;stroke:#808080;stroke-linejoin:miter;stroke-width:0.3;"/>
    </g>
    <!-- GFP -->
    <defs>
     <path d="M 59.515625 10.40625 
L 59.515625 29.984375 
L 43.40625 29.984375 
L 43.40625 38.09375 
L 69.28125 38.09375 
L 69.28125 6.78125 
Q 63.578125 2.734375 56.6875 0.65625 
Q 49.8125 -1.421875 42 -1.421875 
Q 24.90625 -1.421875 15.25 8.5625 
Q 5.609375 18.5625 5.609375 36.375 
Q 5.609375 54.25 15.25 64.234375 
Q 24.90625 74.21875 42 74.21875 
Q 49.125 74.21875 55.546875 72.453125 
Q 61.96875 70.703125 67.390625 67.28125 
L 67.390625 56.78125 
Q 61.921875 61.421875 55.765625 63.765625 
Q 49.609375 66.109375 42.828125 66.109375 
Q 29.4375 66.109375 22.71875 58.640625 
Q 16.015625 51.171875 16.015625 36.375 
Q 16.015625 21.625 22.71875 14.15625 
Q 29.4375 6.6875 42.828125 6.6875 
Q 48.046875 6.6875 52.140625 7.59375 
Q 56.25 8.5 59.515625 10.40625 
z
" id="DejaVuSans-71"/>
     <path d="M 9.8125 72.90625 
L 51.703125 72.90625 
L 51.703125 64.59375 
L 19.671875 64.59375 
L 19.671875 43.109375 
L 48.578125 43.109375 
L 48.578125 34.8125 
L 19.671875 34.8125 
L 19.671875 0 
L 9.8125 0 
z
" id="DejaVuSans-70"/>
     <path d="M 19.671875 64.796875 
L 19.671875 37.40625 
L 32.078125 37.40625 
Q 38.96875 37.40625 42.71875 40.96875 
Q 46.484375 44.53125 46.484375 51.125 
Q 46.484375 57.671875 42.71875 61.234375 
Q 38.96875 64.796875 32.078125 64.796875 
z
M 9.8125 72.90625 
L 32.078125 72.90625 
Q 44.34375 72.90625 50.609375 67.359375 
Q 56.890625 61.8125 56.890625 51.125 
Q 56.890625 40.328125 50.609375 34.8125 
Q 44.34375 29.296875 32.078125 29.296875 
L 19.671875 29.296875 
L 19.671875 0 
L 9.8125 0 
z
" id="DejaVuSans-80"/>
    </defs>
    <g transform="translate(177.872475 65.675312)scale(0.11 -0.11)">
     <use xlink:href="#DejaVuSans-71"/>
     <use x="77.490234" xlink:href="#DejaVuSans-70"/>
     <use x="135.009766" xlink:href="#DejaVuSans-80"/>
    </g>
   </g>
   <g id="text_2">
    <g id="patch_21">
     <path d="M 42.694718 91.062969 
L 78.283155 91.062969 
Q 81.583155 91.062969 81.583155 87.762969 
L 81.583155 77.117031 
Q 81.583155 73.817031 78.283155 73.817031 
L 42.694718 73.817031 
Q 39.394718 73.817031 39.394718 77.117031 
L 39.394718 87.762969 
Q 39.394718 91.062969 42.694718 91.062969 
z
" style="fill:#fff6e5;stroke:#808080;stroke-linejoin:miter;stroke-width:0.3;"/>
    </g>
    <!-- DsRed -->
    <defs>
     <path d="M 19.671875 64.796875 
L 19.671875 8.109375 
L 31.59375 8.109375 
Q 46.6875 8.109375 53.6875 14.9375 
Q 60.6875 21.78125 60.6875 36.53125 
Q 60.6875 51.171875 53.6875 57.984375 
Q 46.6875 64.796875 31.59375 64.796875 
z
M 9.8125 72.90625 
L 30.078125 72.90625 
Q 51.265625 72.90625 61.171875 64.09375 
Q 71.09375 55.28125 71.09375 36.53125 
Q 71.09375 17.671875 61.125 8.828125 
Q 51.171875 0 30.078125 0 
L 9.8125 0 
z
" id="DejaVuSans-68"/>
     <path d="M 44.28125 53.078125 
L 44.28125 44.578125 
Q 40.484375 46.53125 36.375 47.5 
Q 32.28125 48.484375 27.875 48.484375 
Q 21.1875 48.484375 17.84375 46.4375 
Q 14.5 44.390625 14.5 40.28125 
Q 14.5 37.15625 16.890625 35.375 
Q 19.28125 33.59375 26.515625 31.984375 
L 29.59375 31.296875 
Q 39.15625 29.25 43.1875 25.515625 
Q 47.21875 21.78125 47.21875 15.09375 
Q 47.21875 7.46875 41.1875 3.015625 
Q 35.15625 -1.421875 24.609375 -1.421875 
Q 20.21875 -1.421875 15.453125 -0.5625 
Q 10.6875 0.296875 5.421875 2 
L 5.421875 11.28125 
Q 10.40625 8.6875 15.234375 7.390625 
Q 20.0625 6.109375 24.8125 6.109375 
Q 31.15625 6.109375 34.5625 8.28125 
Q 37.984375 10.453125 37.984375 14.40625 
Q 37.984375 18.0625 35.515625 20.015625 
Q 33.0625 21.96875 24.703125 23.78125 
L 21.578125 24.515625 
Q 13.234375 26.265625 9.515625 29.90625 
Q 5.8125 33.546875 5.8125 39.890625 
Q 5.8125 47.609375 11.28125 51.796875 
Q 16.75 56 26.8125 56 
Q 31.78125 56 36.171875 55.265625 
Q 40.578125 54.546875 44.28125 53.078125 
z
" id="DejaVuSans-115"/>
     <path d="M 44.390625 34.1875 
Q 47.5625 33.109375 50.5625 29.59375 
Q 53.5625 26.078125 56.59375 19.921875 
L 66.609375 0 
L 56 0 
L 46.6875 18.703125 
Q 43.0625 26.03125 39.671875 28.421875 
Q 36.28125 30.8125 30.421875 30.8125 
L 19.671875 30.8125 
L 19.671875 0 
L 9.8125 0 
L 9.8125 72.90625 
L 32.078125 72.90625 
Q 44.578125 72.90625 50.734375 67.671875 
Q 56.890625 62.453125 56.890625 51.90625 
Q 56.890625 45.015625 53.6875 40.46875 
Q 50.484375 35.9375 44.390625 34.1875 
z
M 19.671875 64.796875 
L 19.671875 38.921875 
L 32.078125 38.921875 
Q 39.203125 38.921875 42.84375 42.21875 
Q 46.484375 45.515625 46.484375 51.90625 
Q 46.484375 58.296875 42.84375 61.546875 
Q 39.203125 64.796875 32.078125 64.796875 
z
" id="DejaVuSans-82"/>
     <path d="M 56.203125 29.59375 
L 56.203125 25.203125 
L 14.890625 25.203125 
Q 15.484375 15.921875 20.484375 11.0625 
Q 25.484375 6.203125 34.421875 6.203125 
Q 39.59375 6.203125 44.453125 7.46875 
Q 49.3125 8.734375 54.109375 11.28125 
L 54.109375 2.78125 
Q 49.265625 0.734375 44.1875 -0.34375 
Q 39.109375 -1.421875 33.890625 -1.421875 
Q 20.796875 -1.421875 13.15625 6.1875 
Q 5.515625 13.8125 5.515625 26.8125 
Q 5.515625 40.234375 12.765625 48.109375 
Q 20.015625 56 32.328125 56 
Q 43.359375 56 49.78125 48.890625 
Q 56.203125 41.796875 56.203125 29.59375 
z
M 47.21875 32.234375 
Q 47.125 39.59375 43.09375 43.984375 
Q 39.0625 48.390625 32.421875 48.390625 
Q 24.90625 48.390625 20.390625 44.140625 
Q 15.875 39.890625 15.1875 32.171875 
z
" id="DejaVuSans-101"/>
     <path d="M 45.40625 46.390625 
L 45.40625 75.984375 
L 54.390625 75.984375 
L 54.390625 0 
L 45.40625 0 
L 45.40625 8.203125 
Q 42.578125 3.328125 38.25 0.953125 
Q 33.9375 -1.421875 27.875 -1.421875 
Q 17.96875 -1.421875 11.734375 6.484375 
Q 5.515625 14.40625 5.515625 27.296875 
Q 5.515625 40.1875 11.734375 48.09375 
Q 17.96875 56 27.875 56 
Q 33.9375 56 38.25 53.625 
Q 42.578125 51.265625 45.40625 46.390625 
z
M 14.796875 27.296875 
Q 14.796875 17.390625 18.875 11.75 
Q 22.953125 6.109375 30.078125 6.109375 
Q 37.203125 6.109375 41.296875 11.75 
Q 45.40625 17.390625 45.40625 27.296875 
Q 45.40625 37.203125 41.296875 42.84375 
Q 37.203125 48.484375 30.078125 48.484375 
Q 22.953125 48.484375 18.875 42.84375 
Q 14.796875 37.203125 14.796875 27.296875 
z
" id="DejaVuSans-100"/>
    </defs>
    <g transform="translate(42.694718 85.475313)scale(0.11 -0.11)">
     <use xlink:href="#DejaVuSans-68"/>
     <use x="77.001953" xlink:href="#DejaVuSans-115"/>
     <use x="129.101562" xlink:href="#DejaVuSans-82"/>
     <use x="198.521484" xlink:href="#DejaVuSans-101"/>
     <use x="260.044922" xlink:href="#DejaVuSans-100"/>
    </g>
   </g>
   <g id="text_3">
    <g id="patch_22">
     <path d="M 15.267573 110.862969 
L 55.830073 110.862969 
Q 59.130073 110.862969 59.130073 107.562969 
L 59.130073 96.917031 
Q 59.130073 93.617031 55.830073 93.617031 
L 15.267573 93.617031 
Q 11.967573 93.617031 11.967573 96.917031 
L 11.967573 107.562969 
Q 11.967573 110.862969 15.267573 110.862969 
z
" style="fill:#fff6e5;stroke:#808080;stroke-linejoin:miter;stroke-width:0.3;"/>
    </g>
    <!-- Chlor-R -->
    <defs>
     <path d="M 64.40625 67.28125 
L 64.40625 56.890625 
Q 59.421875 61.53125 53.78125 63.8125 
Q 48.140625 66.109375 41.796875 66.109375 
Q 29.296875 66.109375 22.65625 58.46875 
Q 16.015625 50.828125 16.015625 36.375 
Q 16.015625 21.96875 22.65625 14.328125 
Q 29.296875 6.6875 41.796875 6.6875 
Q 48.140625 6.6875 53.78125 8.984375 
Q 59.421875 11.28125 64.40625 15.921875 
L 64.40625 5.609375 
Q 59.234375 2.09375 53.4375 0.328125 
Q 47.65625 -1.421875 41.21875 -1.421875 
Q 24.65625 -1.421875 15.125 8.703125 
Q 5.609375 18.84375 5.609375 36.375 
Q 5.609375 53.953125 15.125 64.078125 
Q 24.65625 74.21875 41.21875 74.21875 
Q 47.75 74.21875 53.53125 72.484375 
Q 59.328125 70.75 64.40625 67.28125 
z
" id="DejaVuSans-67"/>
     <path d="M 54.890625 33.015625 
L 54.890625 0 
L 45.90625 0 
L 45.90625 32.71875 
Q 45.90625 40.484375 42.875 44.328125 
Q 39.84375 48.1875 33.796875 48.1875 
Q 26.515625 48.1875 22.3125 43.546875 
Q 18.109375 38.921875 18.109375 30.90625 
L 18.109375 0 
L 9.078125 0 
L 9.078125 75.984375 
L 18.109375 75.984375 
L 18.109375 46.1875 
Q 21.34375 51.125 25.703125 53.5625 
Q 30.078125 56 35.796875 56 
Q 45.21875 56 50.046875 50.171875 
Q 54.890625 44.34375 54.890625 33.015625 
z
" id="DejaVuSans-104"/>
     <path d="M 9.421875 75.984375 
L 18.40625 75.984375 
L 18.40625 0 
L 9.421875 0 
z
" id="DejaVuSans-108"/>
     <path d="M 30.609375 48.390625 
Q 23.390625 48.390625 19.1875 42.75 
Q 14.984375 37.109375 14.984375 27.296875 
Q 14.984375 17.484375 19.15625 11.84375 
Q 23.34375 6.203125 30.609375 6.203125 
Q 37.796875 6.203125 41.984375 11.859375 
Q 46.1875 17.53125 46.1875 27.296875 
Q 46.1875 37.015625 41.984375 42.703125 
Q 37.796875 48.390625 30.609375 48.390625 
z
M 30.609375 56 
Q 42.328125 56 49.015625 48.375 
Q 55.71875 40.765625 55.71875 27.296875 
Q 55.71875 13.875 49.015625 6.21875 
Q 42.328125 -1.421875 30.609375 -1.421875 
Q 18.84375 -1.421875 12.171875 6.21875 
Q 5.515625 13.875 5.515625 27.296875 
Q 5.515625 40.765625 12.171875 48.375 
Q 18.84375 56 30.609375 56 
z
" id="DejaVuSans-111"/>
     <path d="M 41.109375 46.296875 
Q 39.59375 47.171875 37.8125 47.578125 
Q 36.03125 48 33.890625 48 
Q 26.265625 48 22.1875 43.046875 
Q 18.109375 38.09375 18.109375 28.8125 
L 18.109375 0 
L 9.078125 0 
L 9.078125 54.6875 
L 18.109375 54.6875 
L 18.109375 46.1875 
Q 20.953125 51.171875 25.484375 53.578125 
Q 30.03125 56 36.53125 56 
Q 37.453125 56 38.578125 55.875 
Q 39.703125 55.765625 41.0625 55.515625 
z
" id="DejaVuSans-114"/>
     <path d="M 4.890625 31.390625 
L 31.203125 31.390625 
L 31.203125 23.390625 
L 4.890625 23.390625 
z
" id="DejaVuSans-45"/>
    </defs>
    <g transform="translate(15.267573 105.275313)scale(0.11 -0.11)">
     <use xlink:href="#DejaVuSans-67"/>
     <use x="69.824219" xlink:href="#DejaVuSans-104"/>
     <use x="133.203125" xlink:href="#DejaVuSans-108"/>
     <use x="160.986328" xlink:href="#DejaVuSans-111"/>
     <use x="222.167969" xlink:href="#DejaVuSans-114"/>
     <use x="263.1875" xlink:href="#DejaVuSans-45"/>
     <use x="299.271484" xlink:href="#DejaVuSans-82"/>
    </g>
   </g>
   <g id="text_4">
    <g id="patch_23">
     <path d="M 65.105329 51.462969 
L 92.24611 51.462969 
Q 95.54611 51.462969 95.54611 48.162969 
L 95.54611 37.517031 
Q 95.54611 34.217031 92.24611 34.217031 
L 65.105329 34.217031 
Q 61.805329 34.217031 61.805329 37.517031 
L 61.805329 48.162969 
Q 61.805329 51.462969 65.105329 51.462969 
z
" style="fill:#ffe5e5;stroke:#808080;stroke-linejoin:miter;stroke-width:0.3;"/>
    </g>
    <!-- 3xP3 -->
    <defs>
     <path d="M 40.578125 39.3125 
Q 47.65625 37.796875 51.625 33 
Q 55.609375 28.21875 55.609375 21.1875 
Q 55.609375 10.40625 48.1875 4.484375 
Q 40.765625 -1.421875 27.09375 -1.421875 
Q 22.515625 -1.421875 17.65625 -0.515625 
Q 12.796875 0.390625 7.625 2.203125 
L 7.625 11.71875 
Q 11.71875 9.328125 16.59375 8.109375 
Q 21.484375 6.890625 26.8125 6.890625 
Q 36.078125 6.890625 40.9375 10.546875 
Q 45.796875 14.203125 45.796875 21.1875 
Q 45.796875 27.640625 41.28125 31.265625 
Q 36.765625 34.90625 28.71875 34.90625 
L 20.21875 34.90625 
L 20.21875 43.015625 
L 29.109375 43.015625 
Q 36.375 43.015625 40.234375 45.921875 
Q 44.09375 48.828125 44.09375 54.296875 
Q 44.09375 59.90625 40.109375 62.90625 
Q 36.140625 65.921875 28.71875 65.921875 
Q 24.65625 65.921875 20.015625 65.03125 
Q 15.375 64.15625 9.8125 62.3125 
L 9.8125 71.09375 
Q 15.4375 72.65625 20.34375 73.4375 
Q 25.25 74.21875 29.59375 74.21875 
Q 40.828125 74.21875 47.359375 69.109375 
Q 53.90625 64.015625 53.90625 55.328125 
Q 53.90625 49.265625 50.4375 45.09375 
Q 46.96875 40.921875 40.578125 39.3125 
z
" id="DejaVuSans-51"/>
     <path d="M 54.890625 54.6875 
L 35.109375 28.078125 
L 55.90625 0 
L 45.3125 0 
L 29.390625 21.484375 
L 13.484375 0 
L 2.875 0 
L 24.125 28.609375 
L 4.6875 54.6875 
L 15.28125 54.6875 
L 29.78125 35.203125 
L 44.28125 54.6875 
z
" id="DejaVuSans-120"/>
    </defs>
    <g transform="translate(65.105329 45.875312)scale(0.11 -0.11)">
     <use xlink:href="#DejaVuSans-51"/>
     <use x="63.623047" xlink:href="#DejaVuSans-120"/>
     <use x="122.802734" xlink:href="#DejaVuSans-80"/>
     <use x="183.105469" xlink:href="#DejaVuSans-51"/>
    </g>
   </g>
   <g id="text_5">
    <g id="patch_24">
     <path d="M 182.563298 91.062969 
L 209.70408 91.062969 
Q 213.00408 91.062969 213.00408 87.762969 
L 213.00408 77.117031 
Q 213.00408 73.817031 209.70408 73.817031 
L 182.563298 73.817031 
Q 179.263298 73.817031 179.263298 77.117031 
L 179.263298 87.762969 
Q 179.263298 91.062969 182.563298 91.062969 
z
" style="fill:#ffe5e5;stroke:#808080;stroke-linejoin:miter;stroke-width:0.3;"/>
    </g>
    <!-- 3xP3 -->
    <g transform="translate(182.563298 85.475313)scale(0.11 -0.11)">
     <use xlink:href="#DejaVuSans-51"/>
     <use x="63.623047" xlink:href="#DejaVuSans-120"/>
     <use x="122.802734" xlink:href="#DejaVuSans-80"/>
     <use x="183.105469" xlink:href="#DejaVuSans-51"/>
    </g>
   </g>
   <g id="text_6">
    <g id="patch_25">
     <path d="M 33.801622 71.262969 
L 62.307091 71.262969 
Q 65.607091 71.262969 65.607091 67.962969 
L 65.607091 57.317031 
Q 65.607091 54.017031 62.307091 54.017031 
L 33.801622 54.017031 
Q 30.501622 54.017031 30.501622 57.317031 
L 30.501622 67.962969 
Q 30.501622 71.262969 33.801622 71.262969 
z
" style="fill:#ffe5e5;stroke:#808080;stroke-linejoin:miter;stroke-width:0.3;"/>
    </g>
    <!-- SV40 -->
    <defs>
     <path d="M 53.515625 70.515625 
L 53.515625 60.890625 
Q 47.90625 63.578125 42.921875 64.890625 
Q 37.9375 66.21875 33.296875 66.21875 
Q 25.25 66.21875 20.875 63.09375 
Q 16.5 59.96875 16.5 54.203125 
Q 16.5 49.359375 19.40625 46.890625 
Q 22.3125 44.4375 30.421875 42.921875 
L 36.375 41.703125 
Q 47.40625 39.59375 52.65625 34.296875 
Q 57.90625 29 57.90625 20.125 
Q 57.90625 9.515625 50.796875 4.046875 
Q 43.703125 -1.421875 29.984375 -1.421875 
Q 24.8125 -1.421875 18.96875 -0.25 
Q 13.140625 0.921875 6.890625 3.21875 
L 6.890625 13.375 
Q 12.890625 10.015625 18.65625 8.296875 
Q 24.421875 6.59375 29.984375 6.59375 
Q 38.421875 6.59375 43.015625 9.90625 
Q 47.609375 13.234375 47.609375 19.390625 
Q 47.609375 24.75 44.3125 27.78125 
Q 41.015625 30.8125 33.5 32.328125 
L 27.484375 33.5 
Q 16.453125 35.6875 11.515625 40.375 
Q 6.59375 45.0625 6.59375 53.421875 
Q 6.59375 63.09375 13.40625 68.65625 
Q 20.21875 74.21875 32.171875 74.21875 
Q 37.3125 74.21875 42.625 73.28125 
Q 47.953125 72.359375 53.515625 70.515625 
z
" id="DejaVuSans-83"/>
     <path d="M 28.609375 0 
L 0.78125 72.90625 
L 11.078125 72.90625 
L 34.1875 11.53125 
L 57.328125 72.90625 
L 67.578125 72.90625 
L 39.796875 0 
z
" id="DejaVuSans-86"/>
     <path d="M 37.796875 64.3125 
L 12.890625 25.390625 
L 37.796875 25.390625 
z
M 35.203125 72.90625 
L 47.609375 72.90625 
L 47.609375 25.390625 
L 58.015625 25.390625 
L 58.015625 17.1875 
L 47.609375 17.1875 
L 47.609375 0 
L 37.796875 0 
L 37.796875 17.1875 
L 4.890625 17.1875 
L 4.890625 26.703125 
z
" id="DejaVuSans-52"/>
     <path d="M 31.78125 66.40625 
Q 24.171875 66.40625 20.328125 58.90625 
Q 16.5 51.421875 16.5 36.375 
Q 16.5 21.390625 20.328125 13.890625 
Q 24.171875 6.390625 31.78125 6.390625 
Q 39.453125 6.390625 43.28125 13.890625 
Q 47.125 21.390625 47.125 36.375 
Q 47.125 51.421875 43.28125 58.90625 
Q 39.453125 66.40625 31.78125 66.40625 
z
M 31.78125 74.21875 
Q 44.046875 74.21875 50.515625 64.515625 
Q 56.984375 54.828125 56.984375 36.375 
Q 56.984375 17.96875 50.515625 8.265625 
Q 44.046875 -1.421875 31.78125 -1.421875 
Q 19.53125 -1.421875 13.0625 8.265625 
Q 6.59375 17.96875 6.59375 36.375 
Q 6.59375 54.828125 13.0625 64.515625 
Q 19.53125 74.21875 31.78125 74.21875 
z
" id="DejaVuSans-48"/>
    </defs>
    <g transform="translate(33.801622 65.675312)scale(0.11 -0.11)">
     <use xlink:href="#DejaVuSans-83"/>
     <use x="63.476562" xlink:href="#DejaVuSans-86"/>
     <use x="131.884766" xlink:href="#DejaVuSans-52"/>
     <use x="195.507812" xlink:href="#DejaVuSans-48"/>
    </g>
   </g>
   <g id="text_7">
    <g id="patch_26">
     <path d="M 161.497089 110.862969 
L 190.002557 110.862969 
Q 193.302557 110.862969 193.302557 107.562969 
L 193.302557 96.917031 
Q 193.302557 93.617031 190.002557 93.617031 
L 161.497089 93.617031 
Q 158.197089 93.617031 158.197089 96.917031 
L 158.197089 107.562969 
Q 158.197089 110.862969 161.497089 110.862969 
z
" style="fill:#ffe5e5;stroke:#808080;stroke-linejoin:miter;stroke-width:0.3;"/>
    </g>
    <!-- SV40 -->
    <g transform="translate(161.497089 105.275313)scale(0.11 -0.11)">
     <use xlink:href="#DejaVuSans-83"/>
     <use x="63.476562" xlink:href="#DejaVuSans-86"/>
     <use x="131.884766" xlink:href="#DejaVuSans-52"/>
     <use x="195.507812" xlink:href="#DejaVuSans-48"/>
    </g>
   </g>
  </g>
 </g>
 <defs>
  <clipPath id="pa9cd20ed2f">
   <rect height="320.76" width="221.76" x="7.2" y="7.2"/>
  </clipPath>
 </defs>
</svg>
