<?xml version="1.0" encoding="utf-8" standalone="no"?>
<!DOCTYPE svg PUBLIC "-//W3C//DTD SVG 1.1//EN"
  "http://www.w3.org/Graphics/SVG/1.1/DTD/svg11.dtd">
<!-- Created with matplotlib (https://matplotlib.org/) -->
<svg height="244.398125pt" version="1.1" viewBox="0 0 423.890012 244.398125" width="423.890012pt" xmlns="http://www.w3.org/2000/svg" xmlns:xlink="http://www.w3.org/1999/xlink">
 <defs>
  <style type="text/css">
*{stroke-linecap:butt;stroke-linejoin:round;}
  </style>
 </defs>
 <g id="figure_1">
  <g id="patch_1">
   <path d="M 0 244.398125 
L 423.890012 244.398125 
L 423.890012 0 
L 0 0 
z
" style="fill:#ffffff;"/>
  </g>
  <g id="axes_1">
   <g id="line2d_1">
    <path clip-path="url(#p401a3acc8b)" d="M 44.474375 147.205643 
L 412.144076 147.205643 
" style="fill:none;stroke:#000000;stroke-linecap:square;stroke-width:1.5;"/>
   </g>
   <g id="line2d_2">
    <path clip-path="url(#p401a3acc8b)" d="M 123.596178 101.018214 
L 123.596178 147.205643 
" style="fill:none;stroke:#000000;stroke-linecap:square;stroke-width:0.5;"/>
   </g>
   <g id="line2d_3">
    <path clip-path="url(#p401a3acc8b)" d="M 271.656898 124.111929 
L 271.656898 147.205643 
" style="fill:none;stroke:#000000;stroke-linecap:square;stroke-width:0.5;"/>
   </g>
   <g id="line2d_4">
    <path clip-path="url(#p401a3acc8b)" d="M 159.733377 124.111929 
L 159.733377 147.205643 
" style="fill:none;stroke:#000000;stroke-linecap:square;stroke-width:0.5;"/>
   </g>
   <g id="line2d_5">
    <path clip-path="url(#p401a3acc8b)" d="M 138.576998 77.9245 
L 138.576998 147.205643 
" style="fill:none;stroke:#000000;stroke-linecap:square;stroke-width:0.5;"/>
   </g>
   <g id="line2d_6">
    <path clip-path="url(#p401a3acc8b)" d="M 365.545752 124.111929 
L 365.545752 147.205643 
" style="fill:none;stroke:#000000;stroke-linecap:square;stroke-width:0.5;"/>
   </g>
   <g id="patch_2">
    <path clip-path="url(#p401a3acc8b)" d="M 297.614604 140.205643 
Q 326.683189 140.205643 355.751774 140.205643 
L 355.751774 140.205643 
Q 359.953164 143.705643 364.154554 147.205643 
Q 359.953164 150.705643 355.751774 154.205643 
L 355.751774 154.205643 
Q 326.683189 154.205643 297.614604 154.205643 
L 297.614604 140.205643 
z
" style="fill:#f0ffff;stroke:#000000;stroke-linecap:round;"/>
   </g>
   <g id="patch_3">
    <path clip-path="url(#p401a3acc8b)" d="M 181.364799 140.205643 
Q 209.14675 140.205643 236.928701 140.205643 
L 236.928701 140.205643 
Q 241.127323 143.705643 245.325944 147.205643 
Q 241.127323 150.705643 236.928701 154.205643 
L 236.928701 154.205643 
Q 209.14675 154.205643 181.364799 154.205643 
L 181.364799 140.205643 
z
" style="fill:#f0ffff;stroke:#000000;stroke-linecap:round;"/>
   </g>
   <g id="patch_4">
    <path clip-path="url(#p401a3acc8b)" d="M 45.84182 140.205643 
Q 71.500802 140.205643 97.159784 140.205643 
L 97.159784 140.205643 
Q 101.360647 143.705643 105.56151 147.205643 
Q 101.360647 150.705643 97.159784 154.205643 
L 97.159784 154.205643 
Q 71.500802 154.205643 45.84182 154.205643 
L 45.84182 140.205643 
z
" style="fill:#f0ffff;stroke:#000000;stroke-linecap:round;"/>
   </g>
   <g id="patch_5">
    <path clip-path="url(#p401a3acc8b)" d="M 137.626912 154.205643 
Q 127.79752 154.205643 117.968127 154.205643 
L 117.968127 154.205643 
Q 113.766786 150.705643 109.565444 147.205643 
Q 113.766786 143.705643 117.968127 140.205643 
L 117.968127 140.205643 
Q 127.79752 140.205643 137.626912 140.205643 
L 137.626912 154.205643 
z
" style="fill:#ffdab9;stroke:#000000;stroke-linecap:round;"/>
   </g>
   <g id="patch_6">
    <path clip-path="url(#p401a3acc8b)" d="M 283.872289 154.205643 
Q 275.85743 154.205643 267.842571 154.205643 
L 267.842571 154.205643 
Q 263.642039 150.705643 259.441507 147.205643 
Q 263.642039 143.705643 267.842571 140.205643 
L 267.842571 140.205643 
Q 275.85743 140.205643 283.872289 140.205643 
L 283.872289 154.205643 
z
" style="fill:#87ceeb;stroke:#000000;stroke-linecap:round;"/>
   </g>
   <g id="patch_7">
    <path clip-path="url(#p401a3acc8b)" d="M 366.495838 140.205643 
Q 374.188858 140.205643 381.881878 140.205643 
L 381.881878 140.205643 
Q 386.081899 143.705643 390.281919 147.205643 
Q 386.081899 150.705643 381.881878 154.205643 
L 381.881878 154.205643 
Q 374.188858 154.205643 366.495838 154.205643 
L 366.495838 140.205643 
z
" style="fill:#f0ffff;stroke:#000000;stroke-linecap:round;"/>
   </g>
   <g id="patch_8">
    <path clip-path="url(#p401a3acc8b)" d="M 171.287101 154.205643 
Q 163.932038 154.205643 156.576976 154.205643 
L 156.576976 154.205643 
Q 152.378314 150.705643 148.179653 147.205643 
Q 152.378314 143.705643 156.576976 140.205643 
L 156.576976 140.205643 
Q 163.932038 140.205643 171.287101 140.205643 
L 171.287101 154.205643 
z
" style="fill:#87ceeb;stroke:#000000;stroke-linecap:round;"/>
   </g>
   <g id="patch_9">
    <path clip-path="url(#p401a3acc8b)" d="M 70.611919 131.111929 
Q 63.393436 131.111929 56.174954 131.111929 
L 56.174954 131.111929 
Q 51.975439 127.611929 47.775924 124.111929 
Q 51.975439 120.611929 56.174954 117.111929 
L 56.174954 117.111929 
Q 63.393436 117.111929 70.611919 117.111929 
L 70.611919 131.111929 
z
" style="fill:#f0ffff;stroke:#000000;stroke-linecap:round;"/>
   </g>
   <g id="patch_10">
    <path clip-path="url(#p401a3acc8b)" d="M 96.298172 131.111929 
Q 89.301138 131.111929 82.304103 131.111929 
L 82.304103 131.111929 
Q 78.103696 127.611929 73.903288 124.111929 
Q 78.103696 120.611929 82.304103 117.111929 
L 82.304103 117.111929 
Q 89.301138 117.111929 96.298172 117.111929 
L 96.298172 131.111929 
z
" style="fill:#f0ffff;stroke:#000000;stroke-linecap:round;"/>
   </g>
   <g id="patch_11">
    <path clip-path="url(#p401a3acc8b)" d="M 181.161209 154.205643 
Q 179.59549 154.205643 178.029772 154.205643 
L 178.029772 154.205643 
Q 175.337069 150.705643 172.644367 147.205643 
Q 175.337069 143.705643 178.029772 140.205643 
L 178.029772 140.205643 
Q 179.59549 140.205643 181.161209 140.205643 
L 181.161209 154.205643 
z
" style="fill:#f0ffff;stroke:#000000;stroke-linecap:round;"/>
   </g>
   <g id="patch_12">
    <path clip-path="url(#p401a3acc8b)" d="M 293.576739 154.205643 
Q 292.011021 154.205643 290.445302 154.205643 
L 290.445302 154.205643 
Q 287.7526 150.705643 285.059897 147.205643 
Q 287.7526 143.705643 290.445302 140.205643 
L 290.445302 140.205643 
Q 292.011021 140.205643 293.576739 140.205643 
L 293.576739 154.205643 
z
" style="fill:#f0ffff;stroke:#000000;stroke-linecap:round;"/>
   </g>
   <g id="patch_13">
    <path clip-path="url(#p401a3acc8b)" d="M 147.806405 154.205643 
Q 146.371683 154.205643 144.936961 154.205643 
L 144.936961 154.205643 
Q 142.469544 150.705643 140.002127 147.205643 
Q 142.469544 143.705643 144.936961 140.205643 
L 144.936961 140.205643 
Q 146.371683 140.205643 147.806405 140.205643 
L 147.806405 154.205643 
z
" style="fill:#f0ffff;stroke:#000000;stroke-linecap:round;"/>
   </g>
   <g id="patch_14">
    <path clip-path="url(#p401a3acc8b)" d="M 259.000396 154.205643 
Q 257.565674 154.205643 256.130952 154.205643 
L 256.130952 154.205643 
Q 253.663535 150.705643 251.196118 147.205643 
Q 253.663535 143.705643 256.130952 140.205643 
L 256.130952 140.205643 
Q 257.565674 140.205643 259.000396 140.205643 
L 259.000396 154.205643 
z
" style="fill:#f0ffff;stroke:#000000;stroke-linecap:round;"/>
   </g>
   <g id="patch_15">
    <path clip-path="url(#p401a3acc8b)" d="M 137.626912 140.205643 
Q 137.977627 140.205643 138.328343 140.205643 
L 138.328343 140.205643 
Q 138.927713 143.705643 139.527084 147.205643 
Q 138.927713 150.705643 138.328343 154.205643 
L 138.328343 154.205643 
Q 137.977627 154.205643 137.626912 154.205643 
L 137.626912 140.205643 
z
" style="fill:#87ceeb;stroke:#000000;stroke-linecap:round;"/>
   </g>
   <g id="patch_16">
    <path clip-path="url(#p401a3acc8b)" d="M 366.495838 154.205643 
Q 366.145122 154.205643 365.794407 154.205643 
L 365.794407 154.205643 
Q 365.195036 150.705643 364.595666 147.205643 
Q 365.195036 143.705643 365.794407 140.205643 
L 365.794407 140.205643 
Q 366.145122 140.205643 366.495838 140.205643 
L 366.495838 154.205643 
z
" style="fill:#87ceeb;stroke:#000000;stroke-linecap:round;"/>
   </g>
   <g id="patch_17">
    <path clip-path="url(#p401a3acc8b)" d="M 249.601331 140.205643 
Q 249.845579 140.205643 250.089827 140.205643 
L 250.089827 140.205643 
Q 250.507246 143.705643 250.924665 147.205643 
Q 250.507246 150.705643 250.089827 154.205643 
L 250.089827 154.205643 
Q 249.845579 154.205643 249.601331 154.205643 
L 249.601331 140.205643 
z
" style="fill:#f0ffff;stroke:#000000;stroke-linecap:round;"/>
   </g>
   <g id="patch_18">
    <path clip-path="url(#p401a3acc8b)" d="M 295.171526 154.205643 
Q 294.927278 154.205643 294.68303 154.205643 
L 294.68303 154.205643 
Q 294.265611 150.705643 293.848192 147.205643 
Q 294.265611 143.705643 294.68303 140.205643 
L 294.68303 140.205643 
Q 294.927278 140.205643 295.171526 140.205643 
L 295.171526 154.205643 
z
" style="fill:#f0ffff;stroke:#000000;stroke-linecap:round;"/>
   </g>
   <g id="text_1">
    <g id="patch_19">
     <path d="M 83.693834 108.896339 
L 163.498522 108.896339 
Q 166.498522 108.896339 166.498522 105.896339 
L 166.498522 96.140089 
Q 166.498522 93.140089 163.498522 93.140089 
L 83.693834 93.140089 
Q 80.693834 93.140089 80.693834 96.140089 
L 80.693834 105.896339 
Q 80.693834 108.896339 83.693834 108.896339 
z
" style="fill:#ffffff;"/>
    </g>
    <!-- piggyBac-29% -->
    <defs>
     <path d="M 25.875 7.90625 
L 25.875 -20.796875 
L 8.40625 -20.796875 
L 8.40625 54.6875 
L 25.875 54.6875 
L 25.875 46.6875 
Q 29.5 51.46875 33.890625 53.734375 
Q 38.28125 56 44 56 
Q 54.109375 56 60.59375 47.96875 
Q 67.09375 39.9375 67.09375 27.296875 
Q 67.09375 14.65625 60.59375 6.609375 
Q 54.109375 -1.421875 44 -1.421875 
Q 38.28125 -1.421875 33.890625 0.84375 
Q 29.5 3.125 25.875 7.90625 
z
M 37.5 43.3125 
Q 31.890625 43.3125 28.875 39.1875 
Q 25.875 35.0625 25.875 27.296875 
Q 25.875 19.53125 28.875 15.40625 
Q 31.890625 11.28125 37.5 11.28125 
Q 43.109375 11.28125 46.0625 15.375 
Q 49.03125 19.484375 49.03125 27.296875 
Q 49.03125 35.109375 46.0625 39.203125 
Q 43.109375 43.3125 37.5 43.3125 
z
" id="DejaVuSans-Bold-112"/>
     <path d="M 8.40625 54.6875 
L 25.875 54.6875 
L 25.875 0 
L 8.40625 0 
z
M 8.40625 75.984375 
L 25.875 75.984375 
L 25.875 61.71875 
L 8.40625 61.71875 
z
" id="DejaVuSans-Bold-105"/>
     <path d="M 45.609375 9.28125 
Q 42 4.5 37.640625 2.25 
Q 33.296875 0 27.59375 0 
Q 17.578125 0 11.03125 7.875 
Q 4.5 15.765625 4.5 27.984375 
Q 4.5 40.234375 11.03125 48.0625 
Q 17.578125 55.90625 27.59375 55.90625 
Q 33.296875 55.90625 37.640625 53.65625 
Q 42 51.421875 45.609375 46.578125 
L 45.609375 54.6875 
L 63.1875 54.6875 
L 63.1875 5.515625 
Q 63.1875 -7.671875 54.859375 -14.625 
Q 46.53125 -21.578125 30.71875 -21.578125 
Q 25.59375 -21.578125 20.796875 -20.796875 
Q 16.015625 -20.015625 11.1875 -18.40625 
L 11.1875 -4.78125 
Q 15.765625 -7.421875 20.15625 -8.71875 
Q 24.5625 -10.015625 29 -10.015625 
Q 37.59375 -10.015625 41.59375 -6.25 
Q 45.609375 -2.484375 45.609375 5.515625 
z
M 34.078125 43.3125 
Q 28.65625 43.3125 25.625 39.296875 
Q 22.609375 35.296875 22.609375 27.984375 
Q 22.609375 20.453125 25.53125 16.578125 
Q 28.46875 12.703125 34.078125 12.703125 
Q 39.546875 12.703125 42.578125 16.703125 
Q 45.609375 20.703125 45.609375 27.984375 
Q 45.609375 35.296875 42.578125 39.296875 
Q 39.546875 43.3125 34.078125 43.3125 
z
" id="DejaVuSans-Bold-103"/>
     <path d="M 1.21875 54.6875 
L 18.703125 54.6875 
L 33.40625 17.578125 
L 45.90625 54.6875 
L 63.375 54.6875 
L 40.375 -5.171875 
Q 36.921875 -14.3125 32.296875 -17.9375 
Q 27.6875 -21.578125 20.125 -21.578125 
L 10.015625 -21.578125 
L 10.015625 -10.109375 
L 15.484375 -10.109375 
Q 19.921875 -10.109375 21.9375 -8.6875 
Q 23.96875 -7.28125 25.09375 -3.609375 
L 25.59375 -2.09375 
z
" id="DejaVuSans-Bold-121"/>
     <path d="M 38.375 44.671875 
Q 42.828125 44.671875 45.109375 46.625 
Q 47.40625 48.578125 47.40625 52.390625 
Q 47.40625 56.15625 45.109375 58.125 
Q 42.828125 60.109375 38.375 60.109375 
L 27.984375 60.109375 
L 27.984375 44.671875 
z
M 39.015625 12.796875 
Q 44.671875 12.796875 47.53125 15.1875 
Q 50.390625 17.578125 50.390625 22.40625 
Q 50.390625 27.15625 47.5625 29.515625 
Q 44.734375 31.890625 39.015625 31.890625 
L 27.984375 31.890625 
L 27.984375 12.796875 
z
M 56.5 39.015625 
Q 62.546875 37.25 65.859375 32.515625 
Q 69.1875 27.78125 69.1875 20.90625 
Q 69.1875 10.359375 62.0625 5.171875 
Q 54.9375 0 40.375 0 
L 9.1875 0 
L 9.1875 72.90625 
L 37.40625 72.90625 
Q 52.59375 72.90625 59.40625 68.3125 
Q 66.21875 63.71875 66.21875 53.609375 
Q 66.21875 48.296875 63.71875 44.5625 
Q 61.234375 40.828125 56.5 39.015625 
z
" id="DejaVuSans-Bold-66"/>
     <path d="M 32.90625 24.609375 
Q 27.4375 24.609375 24.671875 22.75 
Q 21.921875 20.90625 21.921875 17.28125 
Q 21.921875 13.96875 24.140625 12.078125 
Q 26.375 10.203125 30.328125 10.203125 
Q 35.25 10.203125 38.625 13.734375 
Q 42 17.28125 42 22.609375 
L 42 24.609375 
z
M 59.625 31.203125 
L 59.625 0 
L 42 0 
L 42 8.109375 
Q 38.484375 3.125 34.078125 0.84375 
Q 29.6875 -1.421875 23.390625 -1.421875 
Q 14.890625 -1.421875 9.59375 3.53125 
Q 4.296875 8.5 4.296875 16.40625 
Q 4.296875 26.03125 10.90625 30.515625 
Q 17.53125 35.015625 31.6875 35.015625 
L 42 35.015625 
L 42 36.375 
Q 42 40.53125 38.71875 42.453125 
Q 35.453125 44.390625 28.515625 44.390625 
Q 22.90625 44.390625 18.0625 43.265625 
Q 13.234375 42.140625 9.078125 39.890625 
L 9.078125 53.21875 
Q 14.703125 54.59375 20.359375 55.296875 
Q 26.03125 56 31.6875 56 
Q 46.484375 56 53.046875 50.171875 
Q 59.625 44.34375 59.625 31.203125 
z
" id="DejaVuSans-Bold-97"/>
     <path d="M 52.59375 52.984375 
L 52.59375 38.71875 
Q 49.03125 41.15625 45.4375 42.328125 
Q 41.84375 43.5 37.984375 43.5 
Q 30.671875 43.5 26.59375 39.234375 
Q 22.515625 34.96875 22.515625 27.296875 
Q 22.515625 19.625 26.59375 15.34375 
Q 30.671875 11.078125 37.984375 11.078125 
Q 42.09375 11.078125 45.78125 12.296875 
Q 49.46875 13.53125 52.59375 15.921875 
L 52.59375 1.609375 
Q 48.484375 0.09375 44.265625 -0.65625 
Q 40.046875 -1.421875 35.796875 -1.421875 
Q 21 -1.421875 12.640625 6.171875 
Q 4.296875 13.765625 4.296875 27.296875 
Q 4.296875 40.828125 12.640625 48.40625 
Q 21 56 35.796875 56 
Q 40.09375 56 44.265625 55.25 
Q 48.4375 54.5 52.59375 52.984375 
z
" id="DejaVuSans-Bold-99"/>
     <path d="M 5.421875 35.890625 
L 36.078125 35.890625 
L 36.078125 21.6875 
L 5.421875 21.6875 
z
" id="DejaVuSans-Bold-45"/>
     <path d="M 28.8125 13.8125 
L 60.890625 13.8125 
L 60.890625 0 
L 7.90625 0 
L 7.90625 13.8125 
L 34.515625 37.3125 
Q 38.09375 40.53125 39.796875 43.609375 
Q 41.5 46.6875 41.5 50 
Q 41.5 55.125 38.0625 58.25 
Q 34.625 61.375 28.90625 61.375 
Q 24.515625 61.375 19.28125 59.5 
Q 14.0625 57.625 8.109375 53.90625 
L 8.109375 69.921875 
Q 14.453125 72.015625 20.65625 73.109375 
Q 26.859375 74.21875 32.8125 74.21875 
Q 45.90625 74.21875 53.15625 68.453125 
Q 60.40625 62.703125 60.40625 52.390625 
Q 60.40625 46.4375 57.328125 41.28125 
Q 54.25 36.140625 44.390625 27.484375 
z
" id="DejaVuSans-Bold-50"/>
     <path d="M 10.015625 1.609375 
L 10.015625 15.09375 
Q 14.5 12.984375 18.59375 11.9375 
Q 22.703125 10.890625 26.703125 10.890625 
Q 35.109375 10.890625 39.796875 15.546875 
Q 44.484375 20.21875 45.3125 29.390625 
Q 42 26.953125 38.234375 25.734375 
Q 34.46875 24.515625 30.078125 24.515625 
Q 18.890625 24.515625 12.03125 31.03125 
Q 5.171875 37.546875 5.171875 48.1875 
Q 5.171875 59.96875 12.8125 67.046875 
Q 20.453125 74.125 33.296875 74.125 
Q 47.5625 74.125 55.375 64.5 
Q 63.1875 54.890625 63.1875 37.3125 
Q 63.1875 19.234375 54.046875 8.90625 
Q 44.921875 -1.421875 29 -1.421875 
Q 23.875 -1.421875 19.1875 -0.65625 
Q 14.5 0.09375 10.015625 1.609375 
z
M 33.203125 36.71875 
Q 38.140625 36.71875 40.625 39.90625 
Q 43.109375 43.109375 43.109375 49.515625 
Q 43.109375 55.859375 40.625 59.078125 
Q 38.140625 62.3125 33.203125 62.3125 
Q 28.265625 62.3125 25.78125 59.078125 
Q 23.296875 55.859375 23.296875 49.515625 
Q 23.296875 43.109375 25.78125 39.90625 
Q 28.265625 36.71875 33.203125 36.71875 
z
" id="DejaVuSans-Bold-57"/>
     <path d="M 77.484375 30.078125 
Q 74.03125 30.078125 72.125 27.078125 
Q 70.21875 24.078125 70.21875 18.5 
Q 70.21875 12.890625 72.09375 9.890625 
Q 73.96875 6.890625 77.484375 6.890625 
Q 81 6.890625 82.859375 9.890625 
Q 84.71875 12.890625 84.71875 18.5 
Q 84.71875 24.078125 82.828125 27.078125 
Q 80.953125 30.078125 77.484375 30.078125 
z
M 77.484375 38.28125 
Q 86.578125 38.28125 91.796875 33 
Q 97.015625 27.734375 97.015625 18.5 
Q 97.015625 9.28125 91.796875 3.921875 
Q 86.578125 -1.421875 77.484375 -1.421875 
Q 68.40625 -1.421875 63.15625 3.921875 
Q 57.90625 9.28125 57.90625 18.5 
Q 57.90625 27.6875 63.15625 32.984375 
Q 68.40625 38.28125 77.484375 38.28125 
z
M 32.71875 -1.421875 
L 21.921875 -1.421875 
L 67.484375 74.21875 
L 78.328125 74.21875 
z
M 22.703125 74.21875 
Q 31.78125 74.21875 36.984375 68.921875 
Q 42.1875 63.625 42.1875 54.390625 
Q 42.1875 45.171875 36.984375 39.84375 
Q 31.78125 34.515625 22.703125 34.515625 
Q 13.625 34.515625 8.421875 39.84375 
Q 3.21875 45.171875 3.21875 54.390625 
Q 3.21875 63.625 8.421875 68.921875 
Q 13.625 74.21875 22.703125 74.21875 
z
M 22.703125 66.015625 
Q 19.1875 66.015625 17.28125 62.984375 
Q 15.375 59.96875 15.375 54.390625 
Q 15.375 48.78125 17.28125 45.71875 
Q 19.1875 42.671875 22.703125 42.671875 
Q 26.21875 42.671875 28.09375 45.71875 
Q 29.984375 48.78125 29.984375 54.390625 
Q 29.984375 59.96875 28.078125 62.984375 
Q 26.171875 66.015625 22.703125 66.015625 
z
" id="DejaVuSans-Bold-37"/>
    </defs>
    <g style="fill:#494949;" transform="translate(83.693834 103.738527)scale(0.1 -0.1)">
     <use xlink:href="#DejaVuSans-Bold-112"/>
     <use x="71.582031" xlink:href="#DejaVuSans-Bold-105"/>
     <use x="105.859375" xlink:href="#DejaVuSans-Bold-103"/>
     <use x="177.441406" xlink:href="#DejaVuSans-Bold-103"/>
     <use x="249.023438" xlink:href="#DejaVuSans-Bold-121"/>
     <use x="314.208984" xlink:href="#DejaVuSans-Bold-66"/>
     <use x="390.429688" xlink:href="#DejaVuSans-Bold-97"/>
     <use x="457.910156" xlink:href="#DejaVuSans-Bold-99"/>
     <use x="517.1875" xlink:href="#DejaVuSans-Bold-45"/>
     <use x="558.691406" xlink:href="#DejaVuSans-Bold-50"/>
     <use x="628.271484" xlink:href="#DejaVuSans-Bold-57"/>
     <use x="697.851562" xlink:href="#DejaVuSans-Bold-37"/>
    </g>
   </g>
   <g id="text_2">
    <g id="patch_20">
     <path d="M 246.430336 131.950991 
L 296.883461 131.950991 
Q 299.883461 131.950991 299.883461 128.950991 
L 299.883461 119.272866 
Q 299.883461 116.272866 296.883461 116.272866 
L 246.430336 116.272866 
Q 243.430336 116.272866 243.430336 119.272866 
L 243.430336 128.950991 
Q 243.430336 131.950991 246.430336 131.950991 
z
" style="fill:#ffffff;"/>
    </g>
    <!-- GFP-61% -->
    <defs>
     <path d="M 74.703125 5.421875 
Q 67.671875 2 60.109375 0.28125 
Q 52.546875 -1.421875 44.484375 -1.421875 
Q 26.265625 -1.421875 15.625 8.765625 
Q 4.984375 18.953125 4.984375 36.375 
Q 4.984375 54 15.8125 64.109375 
Q 26.65625 74.21875 45.515625 74.21875 
Q 52.78125 74.21875 59.4375 72.84375 
Q 66.109375 71.484375 72.015625 68.796875 
L 72.015625 53.71875 
Q 65.921875 57.171875 59.890625 58.875 
Q 53.859375 60.59375 47.796875 60.59375 
Q 36.578125 60.59375 30.5 54.3125 
Q 24.421875 48.046875 24.421875 36.375 
Q 24.421875 24.8125 30.28125 18.5 
Q 36.140625 12.203125 46.921875 12.203125 
Q 49.859375 12.203125 52.375 12.5625 
Q 54.890625 12.9375 56.890625 13.71875 
L 56.890625 27.875 
L 45.40625 27.875 
L 45.40625 40.484375 
L 74.703125 40.484375 
z
" id="DejaVuSans-Bold-71"/>
     <path d="M 9.1875 72.90625 
L 59.90625 72.90625 
L 59.90625 58.6875 
L 27.984375 58.6875 
L 27.984375 45.125 
L 58.015625 45.125 
L 58.015625 30.90625 
L 27.984375 30.90625 
L 27.984375 0 
L 9.1875 0 
z
" id="DejaVuSans-Bold-70"/>
     <path d="M 9.1875 72.90625 
L 40.375 72.90625 
Q 54.296875 72.90625 61.734375 66.71875 
Q 69.1875 60.546875 69.1875 49.125 
Q 69.1875 37.640625 61.734375 31.46875 
Q 54.296875 25.296875 40.375 25.296875 
L 27.984375 25.296875 
L 27.984375 0 
L 9.1875 0 
z
M 27.984375 59.28125 
L 27.984375 38.921875 
L 38.375 38.921875 
Q 43.84375 38.921875 46.828125 41.578125 
Q 49.8125 44.234375 49.8125 49.125 
Q 49.8125 54 46.828125 56.640625 
Q 43.84375 59.28125 38.375 59.28125 
z
" id="DejaVuSans-Bold-80"/>
     <path d="M 36.1875 35.984375 
Q 31.25 35.984375 28.78125 32.78125 
Q 26.3125 29.59375 26.3125 23.1875 
Q 26.3125 16.796875 28.78125 13.59375 
Q 31.25 10.40625 36.1875 10.40625 
Q 41.15625 10.40625 43.625 13.59375 
Q 46.09375 16.796875 46.09375 23.1875 
Q 46.09375 29.59375 43.625 32.78125 
Q 41.15625 35.984375 36.1875 35.984375 
z
M 59.421875 71 
L 59.421875 57.515625 
Q 54.78125 59.71875 50.671875 60.765625 
Q 46.578125 61.8125 42.671875 61.8125 
Q 34.28125 61.8125 29.59375 57.140625 
Q 24.90625 52.484375 24.125 43.3125 
Q 27.34375 45.703125 31.09375 46.890625 
Q 34.859375 48.09375 39.3125 48.09375 
Q 50.484375 48.09375 57.34375 41.546875 
Q 64.203125 35.015625 64.203125 24.421875 
Q 64.203125 12.703125 56.53125 5.640625 
Q 48.875 -1.421875 35.984375 -1.421875 
Q 21.78125 -1.421875 13.984375 8.171875 
Q 6.203125 17.78125 6.203125 35.40625 
Q 6.203125 53.46875 15.3125 63.796875 
Q 24.421875 74.125 40.28125 74.125 
Q 45.3125 74.125 50.046875 73.34375 
Q 54.78125 72.5625 59.421875 71 
z
" id="DejaVuSans-Bold-54"/>
     <path d="M 11.71875 12.984375 
L 28.328125 12.984375 
L 28.328125 60.109375 
L 11.28125 56.59375 
L 11.28125 69.390625 
L 28.21875 72.90625 
L 46.09375 72.90625 
L 46.09375 12.984375 
L 62.703125 12.984375 
L 62.703125 0 
L 11.71875 0 
z
" id="DejaVuSans-Bold-49"/>
    </defs>
    <g style="fill:#494949;" transform="translate(246.430336 126.871304)scale(0.1 -0.1)">
     <use xlink:href="#DejaVuSans-Bold-71"/>
     <use x="82.080078" xlink:href="#DejaVuSans-Bold-70"/>
     <use x="150.390625" xlink:href="#DejaVuSans-Bold-80"/>
     <use x="223.666016" xlink:href="#DejaVuSans-Bold-45"/>
     <use x="265.169922" xlink:href="#DejaVuSans-Bold-54"/>
     <use x="334.75" xlink:href="#DejaVuSans-Bold-49"/>
     <use x="404.330078" xlink:href="#DejaVuSans-Bold-37"/>
    </g>
   </g>
   <g id="text_3">
    <g id="patch_21">
     <path d="M 127.743533 131.950991 
L 191.723221 131.950991 
Q 194.723221 131.950991 194.723221 128.950991 
L 194.723221 119.272866 
Q 194.723221 116.272866 191.723221 116.272866 
L 127.743533 116.272866 
Q 124.743533 116.272866 124.743533 119.272866 
L 124.743533 128.950991 
Q 124.743533 131.950991 127.743533 131.950991 
z
" style="fill:#ffffff;"/>
    </g>
    <!-- DsRed-62% -->
    <defs>
     <path d="M 27.984375 58.6875 
L 27.984375 14.203125 
L 34.71875 14.203125 
Q 46.234375 14.203125 52.3125 19.921875 
Q 58.40625 25.640625 58.40625 36.53125 
Q 58.40625 47.359375 52.34375 53.015625 
Q 46.296875 58.6875 34.71875 58.6875 
z
M 9.1875 72.90625 
L 29 72.90625 
Q 45.609375 72.90625 53.734375 70.53125 
Q 61.859375 68.171875 67.671875 62.5 
Q 72.796875 57.5625 75.28125 51.109375 
Q 77.78125 44.671875 77.78125 36.53125 
Q 77.78125 28.265625 75.28125 21.796875 
Q 72.796875 15.328125 67.671875 10.40625 
Q 61.8125 4.734375 53.609375 2.359375 
Q 45.40625 0 29 0 
L 9.1875 0 
z
" id="DejaVuSans-Bold-68"/>
     <path d="M 51.125 52.984375 
L 51.125 39.703125 
Q 45.515625 42.046875 40.28125 43.21875 
Q 35.0625 44.390625 30.421875 44.390625 
Q 25.4375 44.390625 23.015625 43.140625 
Q 20.609375 41.890625 20.609375 39.3125 
Q 20.609375 37.203125 22.4375 36.078125 
Q 24.265625 34.96875 29 34.421875 
L 32.078125 33.984375 
Q 45.515625 32.28125 50.140625 28.375 
Q 54.78125 24.46875 54.78125 16.109375 
Q 54.78125 7.375 48.328125 2.96875 
Q 41.890625 -1.421875 29.109375 -1.421875 
Q 23.6875 -1.421875 17.890625 -0.5625 
Q 12.109375 0.296875 6 2 
L 6 15.28125 
Q 11.234375 12.75 16.71875 11.46875 
Q 22.21875 10.203125 27.875 10.203125 
Q 33.015625 10.203125 35.59375 11.609375 
Q 38.1875 13.03125 38.1875 15.828125 
Q 38.1875 18.171875 36.40625 19.3125 
Q 34.625 20.453125 29.296875 21.09375 
L 26.21875 21.484375 
Q 14.546875 22.953125 9.859375 26.90625 
Q 5.171875 30.859375 5.171875 38.921875 
Q 5.171875 47.609375 11.125 51.796875 
Q 17.09375 56 29.390625 56 
Q 34.234375 56 39.546875 55.265625 
Q 44.875 54.546875 51.125 52.984375 
z
" id="DejaVuSans-Bold-115"/>
     <path d="M 35.890625 40.578125 
Q 41.796875 40.578125 44.359375 42.765625 
Q 46.921875 44.96875 46.921875 50 
Q 46.921875 54.984375 44.359375 57.125 
Q 41.796875 59.28125 35.890625 59.28125 
L 27.984375 59.28125 
L 27.984375 40.578125 
z
M 27.984375 27.59375 
L 27.984375 0 
L 9.1875 0 
L 9.1875 72.90625 
L 37.890625 72.90625 
Q 52.296875 72.90625 59 68.0625 
Q 65.71875 63.234375 65.71875 52.78125 
Q 65.71875 45.5625 62.21875 40.921875 
Q 58.734375 36.28125 51.703125 34.078125 
Q 55.5625 33.203125 58.609375 30.09375 
Q 61.671875 27 64.796875 20.703125 
L 75 0 
L 54.984375 0 
L 46.09375 18.109375 
Q 43.40625 23.578125 40.640625 25.578125 
Q 37.890625 27.59375 33.296875 27.59375 
z
" id="DejaVuSans-Bold-82"/>
     <path d="M 62.984375 27.484375 
L 62.984375 22.515625 
L 22.125 22.515625 
Q 22.75 16.359375 26.5625 13.28125 
Q 30.375 10.203125 37.203125 10.203125 
Q 42.71875 10.203125 48.5 11.84375 
Q 54.296875 13.484375 60.40625 16.796875 
L 60.40625 3.328125 
Q 54.203125 0.984375 48 -0.21875 
Q 41.796875 -1.421875 35.59375 -1.421875 
Q 20.75 -1.421875 12.515625 6.125 
Q 4.296875 13.671875 4.296875 27.296875 
Q 4.296875 40.671875 12.375 48.328125 
Q 20.453125 56 34.625 56 
Q 47.515625 56 55.25 48.234375 
Q 62.984375 40.484375 62.984375 27.484375 
z
M 45.015625 33.296875 
Q 45.015625 38.28125 42.109375 41.328125 
Q 39.203125 44.390625 34.515625 44.390625 
Q 29.4375 44.390625 26.265625 41.53125 
Q 23.09375 38.671875 22.3125 33.296875 
z
" id="DejaVuSans-Bold-101"/>
     <path d="M 45.609375 46.6875 
L 45.609375 75.984375 
L 63.1875 75.984375 
L 63.1875 0 
L 45.609375 0 
L 45.609375 7.90625 
Q 42 3.078125 37.640625 0.828125 
Q 33.296875 -1.421875 27.59375 -1.421875 
Q 17.484375 -1.421875 10.984375 6.609375 
Q 4.5 14.65625 4.5 27.296875 
Q 4.5 39.9375 10.984375 47.96875 
Q 17.484375 56 27.59375 56 
Q 33.25 56 37.625 53.734375 
Q 42 51.46875 45.609375 46.6875 
z
M 34.078125 11.28125 
Q 39.703125 11.28125 42.65625 15.375 
Q 45.609375 19.484375 45.609375 27.296875 
Q 45.609375 35.109375 42.65625 39.203125 
Q 39.703125 43.3125 34.078125 43.3125 
Q 28.515625 43.3125 25.5625 39.203125 
Q 22.609375 35.109375 22.609375 27.296875 
Q 22.609375 19.484375 25.5625 15.375 
Q 28.515625 11.28125 34.078125 11.28125 
z
" id="DejaVuSans-Bold-100"/>
    </defs>
    <g style="fill:#494949;" transform="translate(127.743533 126.871304)scale(0.1 -0.1)">
     <use xlink:href="#DejaVuSans-Bold-68"/>
     <use x="83.007812" xlink:href="#DejaVuSans-Bold-115"/>
     <use x="142.529297" xlink:href="#DejaVuSans-Bold-82"/>
     <use x="219.53125" xlink:href="#DejaVuSans-Bold-101"/>
     <use x="287.353516" xlink:href="#DejaVuSans-Bold-100"/>
     <use x="358.935547" xlink:href="#DejaVuSans-Bold-45"/>
     <use x="400.439453" xlink:href="#DejaVuSans-Bold-54"/>
     <use x="470.019531" xlink:href="#DejaVuSans-Bold-50"/>
     <use x="539.599609" xlink:href="#DejaVuSans-Bold-37"/>
    </g>
   </g>
   <g id="text_4">
    <g id="patch_22">
     <path d="M 107.884029 85.763563 
L 169.269967 85.763563 
Q 172.269967 85.763563 172.269967 82.763563 
L 172.269967 73.085438 
Q 172.269967 70.085438 169.269967 70.085438 
L 107.884029 70.085438 
Q 104.884029 70.085438 104.884029 73.085438 
L 104.884029 82.763563 
Q 104.884029 85.763563 107.884029 85.763563 
z
" style="fill:#ffffff;"/>
    </g>
    <!-- AttB-73%⇨ -->
    <defs>
     <path d="M 53.421875 13.28125 
L 24.03125 13.28125 
L 19.390625 0 
L 0.484375 0 
L 27.484375 72.90625 
L 49.90625 72.90625 
L 76.90625 0 
L 58.015625 0 
z
M 28.71875 26.8125 
L 48.6875 26.8125 
L 38.71875 55.8125 
z
" id="DejaVuSans-Bold-65"/>
     <path d="M 27.484375 70.21875 
L 27.484375 54.6875 
L 45.515625 54.6875 
L 45.515625 42.1875 
L 27.484375 42.1875 
L 27.484375 19 
Q 27.484375 15.1875 29 13.84375 
Q 30.515625 12.5 35.015625 12.5 
L 44 12.5 
L 44 0 
L 29 0 
Q 18.65625 0 14.328125 4.3125 
Q 10.015625 8.640625 10.015625 19 
L 10.015625 42.1875 
L 1.3125 42.1875 
L 1.3125 54.6875 
L 10.015625 54.6875 
L 10.015625 70.21875 
z
" id="DejaVuSans-Bold-116"/>
     <path d="M 6.6875 72.90625 
L 61.625 72.90625 
L 61.625 62.3125 
L 33.203125 0 
L 14.890625 0 
L 41.796875 59.078125 
L 6.6875 59.078125 
z
" id="DejaVuSans-Bold-55"/>
     <path d="M 46.578125 39.3125 
Q 53.953125 37.40625 57.78125 32.6875 
Q 61.625 27.984375 61.625 20.703125 
Q 61.625 9.859375 53.3125 4.21875 
Q 45.015625 -1.421875 29.109375 -1.421875 
Q 23.484375 -1.421875 17.84375 -0.515625 
Q 12.203125 0.390625 6.6875 2.203125 
L 6.6875 16.703125 
Q 11.96875 14.0625 17.15625 12.71875 
Q 22.359375 11.375 27.390625 11.375 
Q 34.859375 11.375 38.84375 13.953125 
Q 42.828125 16.546875 42.828125 21.390625 
Q 42.828125 26.375 38.75 28.9375 
Q 34.671875 31.5 26.703125 31.5 
L 19.1875 31.5 
L 19.1875 43.609375 
L 27.09375 43.609375 
Q 34.1875 43.609375 37.640625 45.828125 
Q 41.109375 48.046875 41.109375 52.59375 
Q 41.109375 56.78125 37.734375 59.078125 
Q 34.375 61.375 28.21875 61.375 
Q 23.6875 61.375 19.046875 60.34375 
Q 14.40625 59.328125 9.8125 57.328125 
L 9.8125 71.09375 
Q 15.375 72.65625 20.84375 73.4375 
Q 26.3125 74.21875 31.59375 74.21875 
Q 45.796875 74.21875 52.84375 69.546875 
Q 59.90625 64.890625 59.90625 55.515625 
Q 59.90625 49.125 56.53125 45.046875 
Q 53.171875 40.96875 46.578125 39.3125 
z
" id="DejaVuSans-Bold-51"/>
     <path d="M 58.984375 21.09375 
L 69.234375 31.34375 
L 58.984375 41.609375 
L 58.984375 36.96875 
L 10.359375 36.96875 
L 10.359375 25.734375 
L 58.984375 25.734375 
z
M 52.15625 58.109375 
L 78.90625 31.34375 
L 52.15625 4.59375 
L 52.15625 18.890625 
L 3.515625 18.890625 
L 3.515625 43.796875 
L 52.15625 43.796875 
z
" id="DejaVuSans-Bold-8680"/>
    </defs>
    <g style="fill:#494949;" transform="translate(107.884029 80.683875)scale(0.1 -0.1)">
     <use xlink:href="#DejaVuSans-Bold-65"/>
     <use x="77.392578" xlink:href="#DejaVuSans-Bold-116"/>
     <use x="125.195312" xlink:href="#DejaVuSans-Bold-116"/>
     <use x="172.998047" xlink:href="#DejaVuSans-Bold-66"/>
     <use x="249.21875" xlink:href="#DejaVuSans-Bold-45"/>
     <use x="290.722656" xlink:href="#DejaVuSans-Bold-55"/>
     <use x="360.302734" xlink:href="#DejaVuSans-Bold-51"/>
     <use x="429.882812" xlink:href="#DejaVuSans-Bold-37"/>
     <use x="530.078125" xlink:href="#DejaVuSans-Bold-8680"/>
    </g>
   </g>
   <g id="text_5">
    <g id="patch_23">
     <path d="M 334.852783 131.950991 
L 396.23872 131.950991 
Q 399.23872 131.950991 399.23872 128.950991 
L 399.23872 119.272866 
Q 399.23872 116.272866 396.23872 116.272866 
L 334.852783 116.272866 
Q 331.852783 116.272866 331.852783 119.272866 
L 331.852783 128.950991 
Q 331.852783 131.950991 334.852783 131.950991 
z
" style="fill:#ffffff;"/>
    </g>
    <!-- ⇦AttB-73% -->
    <defs>
     <path d="M 22.609375 41.609375 
L 12.359375 31.34375 
L 22.609375 21.09375 
L 22.609375 25.734375 
L 71.234375 25.734375 
L 71.234375 36.96875 
L 22.609375 36.96875 
z
M 29.4375 4.59375 
L 2.6875 31.34375 
L 29.4375 58.109375 
L 29.4375 43.796875 
L 78.078125 43.796875 
L 78.078125 18.890625 
L 29.4375 18.890625 
z
" id="DejaVuSans-Bold-8678"/>
    </defs>
    <g style="fill:#494949;" transform="translate(334.852783 126.871304)scale(0.1 -0.1)">
     <use xlink:href="#DejaVuSans-Bold-8678"/>
     <use x="83.789062" xlink:href="#DejaVuSans-Bold-65"/>
     <use x="161.181641" xlink:href="#DejaVuSans-Bold-116"/>
     <use x="208.984375" xlink:href="#DejaVuSans-Bold-116"/>
     <use x="256.787109" xlink:href="#DejaVuSans-Bold-66"/>
     <use x="333.007812" xlink:href="#DejaVuSans-Bold-45"/>
     <use x="374.511719" xlink:href="#DejaVuSans-Bold-55"/>
     <use x="444.091797" xlink:href="#DejaVuSans-Bold-51"/>
     <use x="513.671875" xlink:href="#DejaVuSans-Bold-37"/>
    </g>
   </g>
   <g id="legend_1">
    <g id="patch_24">
     <path d="M 318.675326 23.798438 
L 338.675326 23.798438 
L 338.675326 16.798438 
L 318.675326 16.798438 
z
" style="fill:#f0ffff;stroke:#000000;stroke-linejoin:miter;"/>
    </g>
    <g id="text_6">
     <!-- 30-60% GC -->
     <defs>
      <path d="M 40.578125 39.3125 
Q 47.65625 37.796875 51.625 33 
Q 55.609375 28.21875 55.609375 21.1875 
Q 55.609375 10.40625 48.1875 4.484375 
Q 40.765625 -1.421875 27.09375 -1.421875 
Q 22.515625 -1.421875 17.65625 -0.515625 
Q 12.796875 0.390625 7.625 2.203125 
L 7.625 11.71875 
Q 11.71875 9.328125 16.59375 8.109375 
Q 21.484375 6.890625 26.8125 6.890625 
Q 36.078125 6.890625 40.9375 10.546875 
Q 45.796875 14.203125 45.796875 21.1875 
Q 45.796875 27.640625 41.28125 31.265625 
Q 36.765625 34.90625 28.71875 34.90625 
L 20.21875 34.90625 
L 20.21875 43.015625 
L 29.109375 43.015625 
Q 36.375 43.015625 40.234375 45.921875 
Q 44.09375 48.828125 44.09375 54.296875 
Q 44.09375 59.90625 40.109375 62.90625 
Q 36.140625 65.921875 28.71875 65.921875 
Q 24.65625 65.921875 20.015625 65.03125 
Q 15.375 64.15625 9.8125 62.3125 
L 9.8125 71.09375 
Q 15.4375 72.65625 20.34375 73.4375 
Q 25.25 74.21875 29.59375 74.21875 
Q 40.828125 74.21875 47.359375 69.109375 
Q 53.90625 64.015625 53.90625 55.328125 
Q 53.90625 49.265625 50.4375 45.09375 
Q 46.96875 40.921875 40.578125 39.3125 
z
" id="DejaVuSans-51"/>
      <path d="M 31.78125 66.40625 
Q 24.171875 66.40625 20.328125 58.90625 
Q 16.5 51.421875 16.5 36.375 
Q 16.5 21.390625 20.328125 13.890625 
Q 24.171875 6.390625 31.78125 6.390625 
Q 39.453125 6.390625 43.28125 13.890625 
Q 47.125 21.390625 47.125 36.375 
Q 47.125 51.421875 43.28125 58.90625 
Q 39.453125 66.40625 31.78125 66.40625 
z
M 31.78125 74.21875 
Q 44.046875 74.21875 50.515625 64.515625 
Q 56.984375 54.828125 56.984375 36.375 
Q 56.984375 17.96875 50.515625 8.265625 
Q 44.046875 -1.421875 31.78125 -1.421875 
Q 19.53125 -1.421875 13.0625 8.265625 
Q 6.59375 17.96875 6.59375 36.375 
Q 6.59375 54.828125 13.0625 64.515625 
Q 19.53125 74.21875 31.78125 74.21875 
z
" id="DejaVuSans-48"/>
      <path d="M 4.890625 31.390625 
L 31.203125 31.390625 
L 31.203125 23.390625 
L 4.890625 23.390625 
z
" id="DejaVuSans-45"/>
      <path d="M 33.015625 40.375 
Q 26.375 40.375 22.484375 35.828125 
Q 18.609375 31.296875 18.609375 23.390625 
Q 18.609375 15.53125 22.484375 10.953125 
Q 26.375 6.390625 33.015625 6.390625 
Q 39.65625 6.390625 43.53125 10.953125 
Q 47.40625 15.53125 47.40625 23.390625 
Q 47.40625 31.296875 43.53125 35.828125 
Q 39.65625 40.375 33.015625 40.375 
z
M 52.59375 71.296875 
L 52.59375 62.3125 
Q 48.875 64.0625 45.09375 64.984375 
Q 41.3125 65.921875 37.59375 65.921875 
Q 27.828125 65.921875 22.671875 59.328125 
Q 17.53125 52.734375 16.796875 39.40625 
Q 19.671875 43.65625 24.015625 45.921875 
Q 28.375 48.1875 33.59375 48.1875 
Q 44.578125 48.1875 50.953125 41.515625 
Q 57.328125 34.859375 57.328125 23.390625 
Q 57.328125 12.15625 50.6875 5.359375 
Q 44.046875 -1.421875 33.015625 -1.421875 
Q 20.359375 -1.421875 13.671875 8.265625 
Q 6.984375 17.96875 6.984375 36.375 
Q 6.984375 53.65625 15.1875 63.9375 
Q 23.390625 74.21875 37.203125 74.21875 
Q 40.921875 74.21875 44.703125 73.484375 
Q 48.484375 72.75 52.59375 71.296875 
z
" id="DejaVuSans-54"/>
      <path d="M 72.703125 32.078125 
Q 68.453125 32.078125 66.03125 28.46875 
Q 63.625 24.859375 63.625 18.40625 
Q 63.625 12.0625 66.03125 8.421875 
Q 68.453125 4.78125 72.703125 4.78125 
Q 76.859375 4.78125 79.265625 8.421875 
Q 81.6875 12.0625 81.6875 18.40625 
Q 81.6875 24.8125 79.265625 28.4375 
Q 76.859375 32.078125 72.703125 32.078125 
z
M 72.703125 38.28125 
Q 80.421875 38.28125 84.953125 32.90625 
Q 89.5 27.546875 89.5 18.40625 
Q 89.5 9.28125 84.9375 3.921875 
Q 80.375 -1.421875 72.703125 -1.421875 
Q 64.890625 -1.421875 60.34375 3.921875 
Q 55.8125 9.28125 55.8125 18.40625 
Q 55.8125 27.59375 60.375 32.9375 
Q 64.9375 38.28125 72.703125 38.28125 
z
M 22.3125 68.015625 
Q 18.109375 68.015625 15.6875 64.375 
Q 13.28125 60.75 13.28125 54.390625 
Q 13.28125 47.953125 15.671875 44.328125 
Q 18.0625 40.71875 22.3125 40.71875 
Q 26.5625 40.71875 28.96875 44.328125 
Q 31.390625 47.953125 31.390625 54.390625 
Q 31.390625 60.6875 28.953125 64.34375 
Q 26.515625 68.015625 22.3125 68.015625 
z
M 66.40625 74.21875 
L 74.21875 74.21875 
L 28.609375 -1.421875 
L 20.796875 -1.421875 
z
M 22.3125 74.21875 
Q 30.03125 74.21875 34.609375 68.875 
Q 39.203125 63.53125 39.203125 54.390625 
Q 39.203125 45.171875 34.640625 39.84375 
Q 30.078125 34.515625 22.3125 34.515625 
Q 14.546875 34.515625 10.03125 39.859375 
Q 5.515625 45.21875 5.515625 54.390625 
Q 5.515625 63.484375 10.046875 68.84375 
Q 14.59375 74.21875 22.3125 74.21875 
z
" id="DejaVuSans-37"/>
      <path id="DejaVuSans-32"/>
      <path d="M 59.515625 10.40625 
L 59.515625 29.984375 
L 43.40625 29.984375 
L 43.40625 38.09375 
L 69.28125 38.09375 
L 69.28125 6.78125 
Q 63.578125 2.734375 56.6875 0.65625 
Q 49.8125 -1.421875 42 -1.421875 
Q 24.90625 -1.421875 15.25 8.5625 
Q 5.609375 18.5625 5.609375 36.375 
Q 5.609375 54.25 15.25 64.234375 
Q 24.90625 74.21875 42 74.21875 
Q 49.125 74.21875 55.546875 72.453125 
Q 61.96875 70.703125 67.390625 67.28125 
L 67.390625 56.78125 
Q 61.921875 61.421875 55.765625 63.765625 
Q 49.609375 66.109375 42.828125 66.109375 
Q 29.4375 66.109375 22.71875 58.640625 
Q 16.015625 51.171875 16.015625 36.375 
Q 16.015625 21.625 22.71875 14.15625 
Q 29.4375 6.6875 42.828125 6.6875 
Q 48.046875 6.6875 52.140625 7.59375 
Q 56.25 8.5 59.515625 10.40625 
z
" id="DejaVuSans-71"/>
      <path d="M 64.40625 67.28125 
L 64.40625 56.890625 
Q 59.421875 61.53125 53.78125 63.8125 
Q 48.140625 66.109375 41.796875 66.109375 
Q 29.296875 66.109375 22.65625 58.46875 
Q 16.015625 50.828125 16.015625 36.375 
Q 16.015625 21.96875 22.65625 14.328125 
Q 29.296875 6.6875 41.796875 6.6875 
Q 48.140625 6.6875 53.78125 8.984375 
Q 59.421875 11.28125 64.40625 15.921875 
L 64.40625 5.609375 
Q 59.234375 2.09375 53.4375 0.328125 
Q 47.65625 -1.421875 41.21875 -1.421875 
Q 24.65625 -1.421875 15.125 8.703125 
Q 5.609375 18.84375 5.609375 36.375 
Q 5.609375 53.953125 15.125 64.078125 
Q 24.65625 74.21875 41.21875 74.21875 
Q 47.75 74.21875 53.53125 72.484375 
Q 59.328125 70.75 64.40625 67.28125 
z
" id="DejaVuSans-67"/>
     </defs>
     <g transform="translate(346.675326 23.798438)scale(0.1 -0.1)">
      <use xlink:href="#DejaVuSans-51"/>
      <use x="63.623047" xlink:href="#DejaVuSans-48"/>
      <use x="127.246094" xlink:href="#DejaVuSans-45"/>
      <use x="163.330078" xlink:href="#DejaVuSans-54"/>
      <use x="226.953125" xlink:href="#DejaVuSans-48"/>
      <use x="290.576172" xlink:href="#DejaVuSans-37"/>
      <use x="385.595703" xlink:href="#DejaVuSans-32"/>
      <use x="417.382812" xlink:href="#DejaVuSans-71"/>
      <use x="494.873047" xlink:href="#DejaVuSans-67"/>
     </g>
    </g>
    <g id="patch_25">
     <path d="M 318.675326 38.476562 
L 338.675326 38.476562 
L 338.675326 31.476562 
L 318.675326 31.476562 
z
" style="fill:#ffdab9;stroke:#000000;stroke-linejoin:miter;"/>
    </g>
    <g id="text_7">
     <!-- GC &lt; 30% -->
     <defs>
      <path d="M 73.1875 49.21875 
L 22.796875 31.296875 
L 73.1875 13.484375 
L 73.1875 4.59375 
L 10.59375 27.296875 
L 10.59375 35.40625 
L 73.1875 58.109375 
z
" id="DejaVuSans-60"/>
     </defs>
     <g transform="translate(346.675326 38.476562)scale(0.1 -0.1)">
      <use xlink:href="#DejaVuSans-71"/>
      <use x="77.490234" xlink:href="#DejaVuSans-67"/>
      <use x="147.314453" xlink:href="#DejaVuSans-32"/>
      <use x="179.101562" xlink:href="#DejaVuSans-60"/>
      <use x="262.890625" xlink:href="#DejaVuSans-32"/>
      <use x="294.677734" xlink:href="#DejaVuSans-51"/>
      <use x="358.300781" xlink:href="#DejaVuSans-48"/>
      <use x="421.923828" xlink:href="#DejaVuSans-37"/>
     </g>
    </g>
    <g id="patch_26">
     <path d="M 318.675326 53.154688 
L 338.675326 53.154688 
L 338.675326 46.154688 
L 318.675326 46.154688 
z
" style="fill:#87ceeb;stroke:#000000;stroke-linejoin:miter;"/>
    </g>
    <g id="text_8">
     <!-- GC &gt; 60% -->
     <defs>
      <path d="M 10.59375 49.21875 
L 10.59375 58.109375 
L 73.1875 35.40625 
L 73.1875 27.296875 
L 10.59375 4.59375 
L 10.59375 13.484375 
L 60.890625 31.296875 
z
" id="DejaVuSans-62"/>
     </defs>
     <g transform="translate(346.675326 53.154688)scale(0.1 -0.1)">
      <use xlink:href="#DejaVuSans-71"/>
      <use x="77.490234" xlink:href="#DejaVuSans-67"/>
      <use x="147.314453" xlink:href="#DejaVuSans-32"/>
      <use x="179.101562" xlink:href="#DejaVuSans-62"/>
      <use x="262.890625" xlink:href="#DejaVuSans-32"/>
      <use x="294.677734" xlink:href="#DejaVuSans-54"/>
      <use x="358.300781" xlink:href="#DejaVuSans-48"/>
      <use x="421.923828" xlink:href="#DejaVuSans-37"/>
     </g>
    </g>
   </g>
  </g>
  <g id="axes_2">
   <g id="patch_27">
    <path d="M 44.474375 220.52 
L 412.144076 220.52 
L 412.144076 170.0025 
L 44.474375 170.0025 
z
" style="fill:#ffffff;"/>
   </g>
   <g id="PolyCollection_1">
    <path clip-path="url(#p8809d86fda)" d="M 45.349811 220.52 
L 45.349811 177.609382 
L 47.046393 191.912921 
L 48.742976 184.110991 
L 50.439558 184.110991 
L 52.13614 186.711634 
L 53.832722 177.609382 
L 55.529304 181.510347 
L 57.225886 185.411313 
L 58.922468 176.30906 
L 60.61905 188.011956 
L 62.315632 182.810669 
L 64.012215 190.6126 
L 65.708797 190.6126 
L 67.405379 186.711634 
L 69.101961 194.513565 
L 70.798543 182.810669 
L 72.495125 186.711634 
L 74.191707 182.810669 
L 75.888289 193.213243 
L 77.584871 185.411313 
L 79.281453 188.011956 
L 80.978036 193.213243 
L 82.674618 197.114208 
L 84.3712 189.312278 
L 86.067782 191.912921 
L 87.764364 191.912921 
L 89.460946 189.312278 
L 91.157528 199.714852 
L 92.85411 190.6126 
L 94.550692 195.813887 
L 96.247274 203.615817 
L 97.943857 197.114208 
L 99.640439 202.315495 
L 101.337021 176.30906 
L 103.033603 182.810669 
L 104.730185 185.411313 
L 106.426767 182.810669 
L 108.123349 194.513565 
L 109.819931 194.513565 
L 111.516513 203.615817 
L 113.213096 198.41453 
L 114.909678 211.417748 
L 116.60626 210.117426 
L 118.302842 211.417748 
L 119.999424 208.817104 
L 121.696006 207.516782 
L 123.392588 202.315495 
L 125.08917 201.015174 
L 126.785752 193.213243 
L 128.482334 193.213243 
L 130.178917 201.015174 
L 131.875499 190.6126 
L 133.572081 197.114208 
L 135.268663 203.615817 
L 136.965245 186.711634 
L 138.661827 172.408095 
L 140.358409 191.912921 
L 142.054991 201.015174 
L 143.751573 203.615817 
L 145.448155 194.513565 
L 147.144738 194.513565 
L 148.84132 175.008739 
L 150.537902 182.810669 
L 152.234484 182.810669 
L 153.931066 181.510347 
L 155.627648 173.708417 
L 157.32423 178.909704 
L 159.020812 184.110991 
L 160.717394 180.210026 
L 162.413977 181.510347 
L 164.110559 177.609382 
L 165.807141 176.30906 
L 167.503723 175.008739 
L 169.200305 178.909704 
L 170.896887 184.110991 
L 172.593469 175.008739 
L 174.290051 191.912921 
L 175.986633 191.912921 
L 177.683215 188.011956 
L 179.379798 202.315495 
L 181.07638 184.110991 
L 182.772962 186.711634 
L 184.469544 194.513565 
L 186.166126 193.213243 
L 187.862708 182.810669 
L 189.55929 181.510347 
L 191.255872 185.411313 
L 192.952454 189.312278 
L 194.649036 193.213243 
L 196.345619 197.114208 
L 198.042201 184.110991 
L 199.738783 173.708417 
L 201.435365 202.315495 
L 203.131947 191.912921 
L 204.828529 181.510347 
L 206.525111 186.711634 
L 208.221693 185.411313 
L 209.918275 188.011956 
L 211.614858 197.114208 
L 213.31144 190.6126 
L 215.008022 186.711634 
L 216.704604 184.110991 
L 218.401186 191.912921 
L 220.097768 189.312278 
L 221.79435 195.813887 
L 223.490932 182.810669 
L 225.187514 184.110991 
L 226.884096 186.711634 
L 228.580679 186.711634 
L 230.277261 184.110991 
L 231.973843 193.213243 
L 233.670425 198.41453 
L 235.367007 195.813887 
L 237.063589 198.41453 
L 238.760171 194.513565 
L 240.456753 189.312278 
L 242.153335 206.216461 
L 243.849917 189.312278 
L 245.5465 193.213243 
L 247.243082 182.810669 
L 248.939664 189.312278 
L 250.636246 194.513565 
L 252.332828 198.41453 
L 254.02941 202.315495 
L 255.725992 202.315495 
L 257.422574 193.213243 
L 259.119156 188.011956 
L 260.815739 177.609382 
L 262.512321 180.210026 
L 264.208903 176.30906 
L 265.905485 177.609382 
L 267.602067 189.312278 
L 269.298649 188.011956 
L 270.995231 180.210026 
L 272.691813 178.909704 
L 274.388395 182.810669 
L 276.084977 182.810669 
L 277.78156 173.708417 
L 279.478142 180.210026 
L 281.174724 177.609382 
L 282.871306 176.30906 
L 284.567888 175.008739 
L 286.26447 190.6126 
L 287.961052 193.213243 
L 289.657634 185.411313 
L 291.354216 199.714852 
L 293.050798 193.213243 
L 294.747381 180.210026 
L 296.443963 189.312278 
L 298.140545 190.6126 
L 299.837127 188.011956 
L 301.533709 190.6126 
L 303.230291 198.41453 
L 304.926873 189.312278 
L 306.623455 177.609382 
L 308.320037 173.708417 
L 310.01662 193.213243 
L 311.713202 190.6126 
L 313.409784 184.110991 
L 315.106366 182.810669 
L 316.802948 186.711634 
L 318.49953 198.41453 
L 320.196112 189.312278 
L 321.892694 185.411313 
L 323.589276 185.411313 
L 325.285858 184.110991 
L 326.982441 181.510347 
L 328.679023 176.30906 
L 330.375605 185.411313 
L 332.072187 188.011956 
L 333.768769 189.312278 
L 335.465351 198.41453 
L 337.161933 191.912921 
L 338.858515 191.912921 
L 340.555097 191.912921 
L 342.251679 181.510347 
L 343.948262 189.312278 
L 345.644844 193.213243 
L 347.341426 195.813887 
L 349.038008 195.813887 
L 350.73459 189.312278 
L 352.431172 188.011956 
L 354.127754 193.213243 
L 355.824336 180.210026 
L 357.520918 193.213243 
L 359.217501 185.411313 
L 360.914083 193.213243 
L 362.610665 176.30906 
L 364.307247 178.909704 
L 366.003829 172.408095 
L 367.700411 186.711634 
L 369.396993 194.513565 
L 371.093575 198.41453 
L 372.790157 190.6126 
L 374.486739 193.213243 
L 376.183322 191.912921 
L 377.879904 193.213243 
L 379.576486 210.117426 
L 381.273068 204.916139 
L 382.96965 197.114208 
L 384.666232 191.912921 
L 386.362814 181.510347 
L 388.059396 195.813887 
L 389.755978 199.714852 
L 391.45256 198.41453 
L 393.149143 202.315495 
L 394.845725 208.817104 
L 396.542307 207.516782 
L 398.238889 208.817104 
L 399.935471 202.315495 
L 401.632053 204.916139 
L 403.328635 195.813887 
L 405.025217 189.312278 
L 406.721799 184.110991 
L 408.418382 194.513565 
L 410.114964 182.810669 
L 410.114964 220.52 
L 410.114964 220.52 
L 408.418382 220.52 
L 406.721799 220.52 
L 405.025217 220.52 
L 403.328635 220.52 
L 401.632053 220.52 
L 399.935471 220.52 
L 398.238889 220.52 
L 396.542307 220.52 
L 394.845725 220.52 
L 393.149143 220.52 
L 391.45256 220.52 
L 389.755978 220.52 
L 388.059396 220.52 
L 386.362814 220.52 
L 384.666232 220.52 
L 382.96965 220.52 
L 381.273068 220.52 
L 379.576486 220.52 
L 377.879904 220.52 
L 376.183322 220.52 
L 374.486739 220.52 
L 372.790157 220.52 
L 371.093575 220.52 
L 369.396993 220.52 
L 367.700411 220.52 
L 366.003829 220.52 
L 364.307247 220.52 
L 362.610665 220.52 
L 360.914083 220.52 
L 359.217501 220.52 
L 357.520918 220.52 
L 355.824336 220.52 
L 354.127754 220.52 
L 352.431172 220.52 
L 350.73459 220.52 
L 349.038008 220.52 
L 347.341426 220.52 
L 345.644844 220.52 
L 343.948262 220.52 
L 342.251679 220.52 
L 340.555097 220.52 
L 338.858515 220.52 
L 337.161933 220.52 
L 335.465351 220.52 
L 333.768769 220.52 
L 332.072187 220.52 
L 330.375605 220.52 
L 328.679023 220.52 
L 326.982441 220.52 
L 325.285858 220.52 
L 323.589276 220.52 
L 321.892694 220.52 
L 320.196112 220.52 
L 318.49953 220.52 
L 316.802948 220.52 
L 315.106366 220.52 
L 313.409784 220.52 
L 311.713202 220.52 
L 310.01662 220.52 
L 308.320037 220.52 
L 306.623455 220.52 
L 304.926873 220.52 
L 303.230291 220.52 
L 301.533709 220.52 
L 299.837127 220.52 
L 298.140545 220.52 
L 296.443963 220.52 
L 294.747381 220.52 
L 293.050798 220.52 
L 291.354216 220.52 
L 289.657634 220.52 
L 287.961052 220.52 
L 286.26447 220.52 
L 284.567888 220.52 
L 282.871306 220.52 
L 281.174724 220.52 
L 279.478142 220.52 
L 277.78156 220.52 
L 276.084977 220.52 
L 274.388395 220.52 
L 272.691813 220.52 
L 270.995231 220.52 
L 269.298649 220.52 
L 267.602067 220.52 
L 265.905485 220.52 
L 264.208903 220.52 
L 262.512321 220.52 
L 260.815739 220.52 
L 259.119156 220.52 
L 257.422574 220.52 
L 255.725992 220.52 
L 254.02941 220.52 
L 252.332828 220.52 
L 250.636246 220.52 
L 248.939664 220.52 
L 247.243082 220.52 
L 245.5465 220.52 
L 243.849917 220.52 
L 242.153335 220.52 
L 240.456753 220.52 
L 238.760171 220.52 
L 237.063589 220.52 
L 235.367007 220.52 
L 233.670425 220.52 
L 231.973843 220.52 
L 230.277261 220.52 
L 228.580679 220.52 
L 226.884096 220.52 
L 225.187514 220.52 
L 223.490932 220.52 
L 221.79435 220.52 
L 220.097768 220.52 
L 218.401186 220.52 
L 216.704604 220.52 
L 215.008022 220.52 
L 213.31144 220.52 
L 211.614858 220.52 
L 209.918275 220.52 
L 208.221693 220.52 
L 206.525111 220.52 
L 204.828529 220.52 
L 203.131947 220.52 
L 201.435365 220.52 
L 199.738783 220.52 
L 198.042201 220.52 
L 196.345619 220.52 
L 194.649036 220.52 
L 192.952454 220.52 
L 191.255872 220.52 
L 189.55929 220.52 
L 187.862708 220.52 
L 186.166126 220.52 
L 184.469544 220.52 
L 182.772962 220.52 
L 181.07638 220.52 
L 179.379798 220.52 
L 177.683215 220.52 
L 175.986633 220.52 
L 174.290051 220.52 
L 172.593469 220.52 
L 170.896887 220.52 
L 169.200305 220.52 
L 167.503723 220.52 
L 165.807141 220.52 
L 164.110559 220.52 
L 162.413977 220.52 
L 160.717394 220.52 
L 159.020812 220.52 
L 157.32423 220.52 
L 155.627648 220.52 
L 153.931066 220.52 
L 152.234484 220.52 
L 150.537902 220.52 
L 148.84132 220.52 
L 147.144738 220.52 
L 145.448155 220.52 
L 143.751573 220.52 
L 142.054991 220.52 
L 140.358409 220.52 
L 138.661827 220.52 
L 136.965245 220.52 
L 135.268663 220.52 
L 133.572081 220.52 
L 131.875499 220.52 
L 130.178917 220.52 
L 128.482334 220.52 
L 126.785752 220.52 
L 125.08917 220.52 
L 123.392588 220.52 
L 121.696006 220.52 
L 119.999424 220.52 
L 118.302842 220.52 
L 116.60626 220.52 
L 114.909678 220.52 
L 113.213096 220.52 
L 111.516513 220.52 
L 109.819931 220.52 
L 108.123349 220.52 
L 106.426767 220.52 
L 104.730185 220.52 
L 103.033603 220.52 
L 101.337021 220.52 
L 99.640439 220.52 
L 97.943857 220.52 
L 96.247274 220.52 
L 94.550692 220.52 
L 92.85411 220.52 
L 91.157528 220.52 
L 89.460946 220.52 
L 87.764364 220.52 
L 86.067782 220.52 
L 84.3712 220.52 
L 82.674618 220.52 
L 80.978036 220.52 
L 79.281453 220.52 
L 77.584871 220.52 
L 75.888289 220.52 
L 74.191707 220.52 
L 72.495125 220.52 
L 70.798543 220.52 
L 69.101961 220.52 
L 67.405379 220.52 
L 65.708797 220.52 
L 64.012215 220.52 
L 62.315632 220.52 
L 60.61905 220.52 
L 58.922468 220.52 
L 57.225886 220.52 
L 55.529304 220.52 
L 53.832722 220.52 
L 52.13614 220.52 
L 50.439558 220.52 
L 48.742976 220.52 
L 47.046393 220.52 
L 45.349811 220.52 
z
" style="fill:#1f77b4;fill-opacity:0.3;"/>
   </g>
   <g id="matplotlib.axis_1">
    <g id="xtick_1">
     <g id="line2d_7">
      <defs>
       <path d="M 0 0 
L 0 3.5 
" id="mf4d7fde969" style="stroke:#000000;stroke-width:0.8;"/>
      </defs>
      <g>
       <use style="stroke:#000000;stroke-width:0.8;" x="44.50152" xlink:href="#mf4d7fde969" y="220.52"/>
      </g>
     </g>
     <g id="text_9">
      <!-- 0 -->
      <g transform="translate(41.32027 235.118437)scale(0.1 -0.1)">
       <use xlink:href="#DejaVuSans-48"/>
      </g>
     </g>
    </g>
    <g id="xtick_2">
     <g id="line2d_8">
      <g>
       <use style="stroke:#000000;stroke-width:0.8;" x="95.398983" xlink:href="#mf4d7fde969" y="220.52"/>
      </g>
     </g>
     <g id="text_10">
      <!-- 1500 -->
      <defs>
       <path d="M 12.40625 8.296875 
L 28.515625 8.296875 
L 28.515625 63.921875 
L 10.984375 60.40625 
L 10.984375 69.390625 
L 28.421875 72.90625 
L 38.28125 72.90625 
L 38.28125 8.296875 
L 54.390625 8.296875 
L 54.390625 0 
L 12.40625 0 
z
" id="DejaVuSans-49"/>
       <path d="M 10.796875 72.90625 
L 49.515625 72.90625 
L 49.515625 64.59375 
L 19.828125 64.59375 
L 19.828125 46.734375 
Q 21.96875 47.46875 24.109375 47.828125 
Q 26.265625 48.1875 28.421875 48.1875 
Q 40.625 48.1875 47.75 41.5 
Q 54.890625 34.8125 54.890625 23.390625 
Q 54.890625 11.625 47.5625 5.09375 
Q 40.234375 -1.421875 26.90625 -1.421875 
Q 22.3125 -1.421875 17.546875 -0.640625 
Q 12.796875 0.140625 7.71875 1.703125 
L 7.71875 11.625 
Q 12.109375 9.234375 16.796875 8.0625 
Q 21.484375 6.890625 26.703125 6.890625 
Q 35.15625 6.890625 40.078125 11.328125 
Q 45.015625 15.765625 45.015625 23.390625 
Q 45.015625 31 40.078125 35.4375 
Q 35.15625 39.890625 26.703125 39.890625 
Q 22.75 39.890625 18.8125 39.015625 
Q 14.890625 38.140625 10.796875 36.28125 
z
" id="DejaVuSans-53"/>
      </defs>
      <g transform="translate(82.673983 235.118437)scale(0.1 -0.1)">
       <use xlink:href="#DejaVuSans-49"/>
       <use x="63.623047" xlink:href="#DejaVuSans-53"/>
       <use x="127.246094" xlink:href="#DejaVuSans-48"/>
       <use x="190.869141" xlink:href="#DejaVuSans-48"/>
      </g>
     </g>
    </g>
    <g id="xtick_3">
     <g id="line2d_9">
      <g>
       <use style="stroke:#000000;stroke-width:0.8;" x="146.296447" xlink:href="#mf4d7fde969" y="220.52"/>
      </g>
     </g>
     <g id="text_11">
      <!-- 3000 -->
      <g transform="translate(133.571447 235.118437)scale(0.1 -0.1)">
       <use xlink:href="#DejaVuSans-51"/>
       <use x="63.623047" xlink:href="#DejaVuSans-48"/>
       <use x="127.246094" xlink:href="#DejaVuSans-48"/>
       <use x="190.869141" xlink:href="#DejaVuSans-48"/>
      </g>
     </g>
    </g>
    <g id="xtick_4">
     <g id="line2d_10">
      <g>
       <use style="stroke:#000000;stroke-width:0.8;" x="197.19391" xlink:href="#mf4d7fde969" y="220.52"/>
      </g>
     </g>
     <g id="text_12">
      <!-- 4500 -->
      <defs>
       <path d="M 37.796875 64.3125 
L 12.890625 25.390625 
L 37.796875 25.390625 
z
M 35.203125 72.90625 
L 47.609375 72.90625 
L 47.609375 25.390625 
L 58.015625 25.390625 
L 58.015625 17.1875 
L 47.609375 17.1875 
L 47.609375 0 
L 37.796875 0 
L 37.796875 17.1875 
L 4.890625 17.1875 
L 4.890625 26.703125 
z
" id="DejaVuSans-52"/>
      </defs>
      <g transform="translate(184.46891 235.118437)scale(0.1 -0.1)">
       <use xlink:href="#DejaVuSans-52"/>
       <use x="63.623047" xlink:href="#DejaVuSans-53"/>
       <use x="127.246094" xlink:href="#DejaVuSans-48"/>
       <use x="190.869141" xlink:href="#DejaVuSans-48"/>
      </g>
     </g>
    </g>
    <g id="xtick_5">
     <g id="line2d_11">
      <g>
       <use style="stroke:#000000;stroke-width:0.8;" x="248.091373" xlink:href="#mf4d7fde969" y="220.52"/>
      </g>
     </g>
     <g id="text_13">
      <!-- 6000 -->
      <g transform="translate(235.366373 235.118437)scale(0.1 -0.1)">
       <use xlink:href="#DejaVuSans-54"/>
       <use x="63.623047" xlink:href="#DejaVuSans-48"/>
       <use x="127.246094" xlink:href="#DejaVuSans-48"/>
       <use x="190.869141" xlink:href="#DejaVuSans-48"/>
      </g>
     </g>
    </g>
    <g id="xtick_6">
     <g id="line2d_12">
      <g>
       <use style="stroke:#000000;stroke-width:0.8;" x="298.988836" xlink:href="#mf4d7fde969" y="220.52"/>
      </g>
     </g>
     <g id="text_14">
      <!-- 7500 -->
      <defs>
       <path d="M 8.203125 72.90625 
L 55.078125 72.90625 
L 55.078125 68.703125 
L 28.609375 0 
L 18.3125 0 
L 43.21875 64.59375 
L 8.203125 64.59375 
z
" id="DejaVuSans-55"/>
      </defs>
      <g transform="translate(286.263836 235.118437)scale(0.1 -0.1)">
       <use xlink:href="#DejaVuSans-55"/>
       <use x="63.623047" xlink:href="#DejaVuSans-53"/>
       <use x="127.246094" xlink:href="#DejaVuSans-48"/>
       <use x="190.869141" xlink:href="#DejaVuSans-48"/>
      </g>
     </g>
    </g>
    <g id="xtick_7">
     <g id="line2d_13">
      <g>
       <use style="stroke:#000000;stroke-width:0.8;" x="349.886299" xlink:href="#mf4d7fde969" y="220.52"/>
      </g>
     </g>
     <g id="text_15">
      <!-- 9000 -->
      <defs>
       <path d="M 10.984375 1.515625 
L 10.984375 10.5 
Q 14.703125 8.734375 18.5 7.8125 
Q 22.3125 6.890625 25.984375 6.890625 
Q 35.75 6.890625 40.890625 13.453125 
Q 46.046875 20.015625 46.78125 33.40625 
Q 43.953125 29.203125 39.59375 26.953125 
Q 35.25 24.703125 29.984375 24.703125 
Q 19.046875 24.703125 12.671875 31.3125 
Q 6.296875 37.9375 6.296875 49.421875 
Q 6.296875 60.640625 12.9375 67.421875 
Q 19.578125 74.21875 30.609375 74.21875 
Q 43.265625 74.21875 49.921875 64.515625 
Q 56.59375 54.828125 56.59375 36.375 
Q 56.59375 19.140625 48.40625 8.859375 
Q 40.234375 -1.421875 26.421875 -1.421875 
Q 22.703125 -1.421875 18.890625 -0.6875 
Q 15.09375 0.046875 10.984375 1.515625 
z
M 30.609375 32.421875 
Q 37.25 32.421875 41.125 36.953125 
Q 45.015625 41.5 45.015625 49.421875 
Q 45.015625 57.28125 41.125 61.84375 
Q 37.25 66.40625 30.609375 66.40625 
Q 23.96875 66.40625 20.09375 61.84375 
Q 16.21875 57.28125 16.21875 49.421875 
Q 16.21875 41.5 20.09375 36.953125 
Q 23.96875 32.421875 30.609375 32.421875 
z
" id="DejaVuSans-57"/>
      </defs>
      <g transform="translate(337.161299 235.118437)scale(0.1 -0.1)">
       <use xlink:href="#DejaVuSans-57"/>
       <use x="63.623047" xlink:href="#DejaVuSans-48"/>
       <use x="127.246094" xlink:href="#DejaVuSans-48"/>
       <use x="190.869141" xlink:href="#DejaVuSans-48"/>
      </g>
     </g>
    </g>
    <g id="xtick_8">
     <g id="line2d_14">
      <g>
       <use style="stroke:#000000;stroke-width:0.8;" x="400.783762" xlink:href="#mf4d7fde969" y="220.52"/>
      </g>
     </g>
     <g id="text_16">
      <!-- 10500 -->
      <g transform="translate(384.877512 235.118437)scale(0.1 -0.1)">
       <use xlink:href="#DejaVuSans-49"/>
       <use x="63.623047" xlink:href="#DejaVuSans-48"/>
       <use x="127.246094" xlink:href="#DejaVuSans-53"/>
       <use x="190.869141" xlink:href="#DejaVuSans-48"/>
       <use x="254.492188" xlink:href="#DejaVuSans-48"/>
      </g>
     </g>
    </g>
   </g>
   <g id="matplotlib.axis_2">
    <g id="ytick_1">
     <g id="line2d_15">
      <defs>
       <path d="M 0 0 
L -3.5 0 
" id="m44c413c7ed" style="stroke:#000000;stroke-width:0.8;"/>
      </defs>
      <g>
       <use style="stroke:#000000;stroke-width:0.8;" x="44.474375" xlink:href="#m44c413c7ed" y="220.52"/>
      </g>
     </g>
     <g id="text_17">
      <!-- 0 -->
      <g transform="translate(31.111875 224.319219)scale(0.1 -0.1)">
       <use xlink:href="#DejaVuSans-48"/>
      </g>
     </g>
    </g>
    <g id="ytick_2">
     <g id="line2d_16">
      <g>
       <use style="stroke:#000000;stroke-width:0.8;" x="44.474375" xlink:href="#m44c413c7ed" y="188.011956"/>
      </g>
     </g>
     <g id="text_18">
      <!-- 50 -->
      <g transform="translate(24.749375 191.811175)scale(0.1 -0.1)">
       <use xlink:href="#DejaVuSans-53"/>
       <use x="63.623047" xlink:href="#DejaVuSans-48"/>
      </g>
     </g>
    </g>
    <g id="text_19">
     <!-- GC(%) -->
     <defs>
      <path d="M 31 75.875 
Q 24.46875 64.65625 21.28125 53.65625 
Q 18.109375 42.671875 18.109375 31.390625 
Q 18.109375 20.125 21.3125 9.0625 
Q 24.515625 -2 31 -13.1875 
L 23.1875 -13.1875 
Q 15.875 -1.703125 12.234375 9.375 
Q 8.59375 20.453125 8.59375 31.390625 
Q 8.59375 42.28125 12.203125 53.3125 
Q 15.828125 64.359375 23.1875 75.875 
z
" id="DejaVuSans-40"/>
      <path d="M 8.015625 75.875 
L 15.828125 75.875 
Q 23.140625 64.359375 26.78125 53.3125 
Q 30.421875 42.28125 30.421875 31.390625 
Q 30.421875 20.453125 26.78125 9.375 
Q 23.140625 -1.703125 15.828125 -13.1875 
L 8.015625 -13.1875 
Q 14.5 -2 17.703125 9.0625 
Q 20.90625 20.125 20.90625 31.390625 
Q 20.90625 42.671875 17.703125 53.65625 
Q 14.5 64.65625 8.015625 75.875 
z
" id="DejaVuSans-41"/>
     </defs>
     <g transform="translate(17.837813 217.686406)rotate(-90)scale(0.14 -0.14)">
      <use xlink:href="#DejaVuSans-71"/>
      <use x="77.490234" xlink:href="#DejaVuSans-67"/>
      <use x="147.314453" xlink:href="#DejaVuSans-40"/>
      <use x="186.328125" xlink:href="#DejaVuSans-37"/>
      <use x="281.347656" xlink:href="#DejaVuSans-41"/>
     </g>
    </g>
   </g>
   <g id="patch_28">
    <path d="M 44.474375 220.52 
L 44.474375 170.0025 
" style="fill:none;stroke:#000000;stroke-linecap:square;stroke-linejoin:miter;stroke-width:0.8;"/>
   </g>
   <g id="patch_29">
    <path d="M 412.144076 220.52 
L 412.144076 170.0025 
" style="fill:none;stroke:#000000;stroke-linecap:square;stroke-linejoin:miter;stroke-width:0.8;"/>
   </g>
   <g id="patch_30">
    <path d="M 44.474375 220.52 
L 412.144076 220.52 
" style="fill:none;stroke:#000000;stroke-linecap:square;stroke-linejoin:miter;stroke-width:0.8;"/>
   </g>
   <g id="patch_31">
    <path d="M 44.474375 170.0025 
L 412.144076 170.0025 
" style="fill:none;stroke:#000000;stroke-linecap:square;stroke-linejoin:miter;stroke-width:0.8;"/>
   </g>
  </g>
 </g>
 <defs>
  <clipPath id="p401a3acc8b">
   <rect height="151.5525" width="367.669701" x="44.474375" y="7.2"/>
  </clipPath>
  <clipPath id="p8809d86fda">
   <rect height="50.5175" width="367.669701" x="44.474375" y="170.0025"/>
  </clipPath>
 </defs>
</svg>
